<svg width="565" height="353" viewBox="0 0 565 353" fill="none" xmlns="http://www.w3.org/2000/svg">
<path d="M63.4247 303.206L53.3132 222.568C49.3308 190.82 71.9613 165.082 103.895 165.082H157.291" stroke="#373771" stroke-width="6" stroke-linecap="round" stroke-linejoin="round"/>
<path d="M190.758 163.665L197.388 154.328L195.644 141.793C195.175 140.906 194.695 139.982 194.201 139.029C157.995 144.416 153.59 159.587 161.721 175.836C101.661 187.563 75.5126 279.751 91.1356 323.491C95.5863 335.923 99.1584 348.355 112.382 348.496" stroke="#373771" stroke-width="6" stroke-linecap="round" stroke-linejoin="round"/>
<path d="M209.642 197.177C209.642 197.099 209.642 197.02 209.642 196.941C211.606 197.132 213.513 197.144 215.353 195.553C219.911 191.604 221.527 190.418 221.527 190.418C221.527 190.418 221.942 190.916 222.675 191.757C223.574 190.099 224.511 188.38 225.468 186.639C205.788 171.397 190.758 163.665 190.758 163.665L189.647 162.869L182.42 171.683C182.42 171.683 194.181 179.789 209.642 197.177Z" fill="#0078E8"/>
<path d="M304.772 340.258C304.772 340.258 273.278 255.558 277.285 229.31C279.469 214.992 276.042 198.756 271.309 186.212L262.288 186.797L251.489 212.332C252.193 212.506 252.898 212.651 253.602 212.746C253.602 212.746 253.188 215.428 252.168 221.59C251.484 225.696 252.657 226.148 253.585 228.999C254.783 230.918 255.703 233.073 254.692 236.405C254.36 237.494 253.573 247.759 251.791 261.683C255.106 268.728 258.272 276.162 261.239 284.061C280.335 334.999 278.35 340.556 278.35 340.556L304.772 340.258Z" fill="#0078E8"/>
<path d="M411.427 347.829C409.16 332.911 392.994 252.836 300.508 182.599C298.436 170.051 293.194 150.3 266.254 141.067" stroke="#373771" stroke-width="6" stroke-linecap="round" stroke-linejoin="round"/>
<path d="M284.786 224.851C284.786 224.851 283.791 251.903 289.713 271.351" stroke="#373771" stroke-width="8" stroke-linecap="round" stroke-linejoin="round"/>
<path d="M299.281 182.288C299.576 184.053 299.804 185.678 300.023 187.103C302.568 203.605 297.122 214.562 293.521 222.158C303.189 215.32 309.708 202.316 312.998 192.399C309.024 189.217 303.6 185.504 299.281 182.288Z" fill="#232335"/>
<path d="M162.678 175.102C155.915 176.482 144.801 179.851 136.79 185.392C142.385 188.442 170.092 205.034 192.735 214.988C192.913 214.885 194.156 212.813 194.778 212.005C182.246 202.067 169.064 187.903 162.678 175.102Z" fill="#232335"/>
<path d="M180.916 109.1C180.916 109.1 165.537 113.269 171.762 126.402C176.088 135.519 184.301 132.278 189.2 129.514" stroke="#373771" stroke-width="6" stroke-linecap="round" stroke-linejoin="round"/>
<path d="M185.019 111.595L189.85 109.975C193.037 111.902 203.563 124.98 206.957 131.462C206.957 131.462 222.41 121.437 246.532 115.026C246.532 115.026 259.665 112.026 265.375 112.266C263.718 99.0056 260.328 82.0649 254.36 66.9185C245.484 44.404 218.017 53.1396 214.031 54.4864C171.194 69.0609 184.977 111.5 184.977 111.5L185.019 111.595Z" stroke="#373771" stroke-width="6" stroke-linecap="round" stroke-linejoin="round"/>
<path d="M233.23 167.166C228.075 167.166 223.172 166.309 219.314 164.784C206.799 159.84 204.139 156.653 199.647 149.136C195.155 141.619 181.078 112.921 181.078 112.921L189.85 109.975C193.037 111.902 203.563 124.98 206.957 131.462C206.957 131.462 222.41 121.437 246.532 115.026C246.532 115.026 259.793 111.993 265.466 112.266C265.466 112.266 268.176 125.751 266.552 138.971" stroke="#373771" stroke-width="6" stroke-linecap="round" stroke-linejoin="round"/>
<path d="M182.155 116.672C182.155 116.672 174.232 107.484 168.509 96.5068C163.122 86.1882 165.355 73.4039 174.285 65.9446C181.761 59.683 188.877 61.3406 188.877 61.3406C188.877 61.3406 176.005 48.229 186.154 31.2675C187.93 28.2997 190.294 25.7259 193.1 23.7036C195.906 21.6814 199.096 20.2533 202.473 19.5068C219.132 15.8559 227.752 28.5615 227.752 28.5615C227.752 28.5615 237.324 -8.39904 278.437 1.77038C282.581 2.7981 288.064 7.18247 290.952 10.3319C308.448 29.4317 275.487 65.4847 255.434 72.7035C233.416 80.6269 219.256 80.1918 210.604 76.487C216.824 78.3808 217.052 113.468 182.155 116.672Z" fill="#232335"/>
<path d="M245.695 105.246L253.461 125.909L245.48 125.867" stroke="#373771" stroke-width="8" stroke-linecap="round" stroke-linejoin="round"/>
<path d="M241.431 143.815C243.598 143.815 245.355 142.058 245.355 139.89C245.355 137.723 243.598 135.966 241.431 135.966C239.264 135.966 237.507 137.723 237.507 139.89C237.507 142.058 239.264 143.815 241.431 143.815Z" fill="#232335"/>
<path d="M254.882 106.955C256.085 106.654 256.683 104.9 256.217 103.037C255.751 101.175 254.398 99.9083 253.195 100.209C251.991 100.51 251.393 102.264 251.859 104.127C252.325 105.99 253.678 107.256 254.882 106.955Z" fill="#232335"/>
<path d="M233.808 111.834C235.011 111.534 235.609 109.779 235.144 107.917C234.678 106.054 233.324 104.788 232.121 105.089C230.918 105.389 230.32 107.144 230.786 109.006C231.251 110.869 232.605 112.135 233.808 111.834Z" fill="#232335"/>
<path d="M219.211 95.2967C219.957 93.6117 221.143 92.1579 222.643 91.0872C224.143 90.0164 225.903 89.3678 227.739 89.2092" stroke="#373771" stroke-width="8" stroke-linecap="round" stroke-linejoin="round"/>
<path d="M247.664 83.8509C247.664 83.8509 253.316 80.7719 256.064 85.3345" stroke="#373771" stroke-width="8" stroke-linecap="round" stroke-linejoin="round"/>
<path d="M492.857 233.276H331.737C330.711 233.276 329.715 233.623 328.91 234.26C328.105 234.897 327.539 235.787 327.303 236.786L304.901 331.609H246.499C246.499 331.609 243.262 348.326 262.134 348.326H467.839C468.865 348.326 469.862 347.979 470.666 347.342C471.471 346.705 472.037 345.815 472.273 344.816L497.299 238.883C497.457 238.213 497.462 237.516 497.312 236.844C497.163 236.172 496.863 235.543 496.436 235.003C496.008 234.464 495.464 234.028 494.844 233.729C494.224 233.43 493.545 233.275 492.857 233.276Z" fill="#232335"/>
<path d="M428.939 85.4754H427.671C426.527 85.4754 425.599 86.4031 425.599 87.5474V90.817C425.599 91.9614 426.527 92.889 427.671 92.889H428.939C430.084 92.889 431.011 91.9614 431.011 90.817V87.5474C431.011 86.4031 430.084 85.4754 428.939 85.4754Z" fill="#0078E8"/>
<path d="M421.447 85.4754H388.378C387.233 85.4754 386.306 86.4031 386.306 87.5474V90.817C386.306 91.9614 387.233 92.889 388.378 92.889H421.447C422.591 92.889 423.519 91.9614 423.519 90.817V87.5474C423.519 86.4031 422.591 85.4754 421.447 85.4754Z" fill="#232335"/>
<path d="M424.816 119.912H388.378C387.233 119.912 386.306 120.84 386.306 121.984V125.254C386.306 126.398 387.233 127.326 388.378 127.326H424.816C425.961 127.326 426.888 126.398 426.888 125.254V121.984C426.888 120.84 425.961 119.912 424.816 119.912Z" fill="#232335"/>
<path d="M457.438 108.446H398.638C397.494 108.446 396.566 109.373 396.566 110.518V113.787C396.566 114.932 397.494 115.859 398.638 115.859H457.438C458.582 115.859 459.51 114.932 459.51 113.787V110.518C459.51 109.373 458.582 108.446 457.438 108.446Z" fill="#0078E8"/>
<path d="M494.958 108.446H465.104C463.96 108.446 463.032 109.373 463.032 110.518V113.787C463.032 114.932 463.96 115.859 465.104 115.859H494.958C496.102 115.859 497.03 114.932 497.03 113.787V110.518C497.03 109.373 496.102 108.446 494.958 108.446Z" fill="#0078E8"/>
<path d="M506.466 96.9833H505.198C504.053 96.9833 503.126 97.911 503.126 99.0553V102.325C503.126 103.469 504.053 104.397 505.198 104.397H506.466C507.61 104.397 508.538 103.469 508.538 102.325V99.0553C508.538 97.911 507.61 96.9833 506.466 96.9833Z" fill="#232335"/>
<path d="M449.32 96.9626H388.378C387.233 96.9626 386.306 97.8903 386.306 99.0346V102.304C386.306 103.449 387.233 104.376 388.378 104.376H449.32C450.464 104.376 451.392 103.449 451.392 102.304V99.0346C451.392 97.8903 450.464 96.9626 449.32 96.9626Z" fill="#232335"/>
<path d="M468.54 85.4754H435.47C434.326 85.4754 433.398 86.4031 433.398 87.5474V90.817C433.398 91.9614 434.326 92.889 435.47 92.889H468.54C469.684 92.889 470.612 91.9614 470.612 90.817V87.5474C470.612 86.4031 469.684 85.4754 468.54 85.4754Z" fill="#232335"/>
<path d="M498.144 96.9377H456.377C455.232 96.9377 454.305 97.8654 454.305 99.0097V102.325C454.305 103.469 455.232 104.397 456.377 104.397H498.144C499.289 104.397 500.216 103.469 500.216 102.325V99.0097C500.216 97.8654 499.289 96.9377 498.144 96.9377Z" fill="#0078E8"/>
<path d="M421.447 159.807H388.378C387.233 159.807 386.306 160.734 386.306 161.879V165.148C386.306 166.293 387.233 167.22 388.378 167.22H421.447C422.591 167.22 423.519 166.293 423.519 165.148V161.879C423.519 160.734 422.591 159.807 421.447 159.807Z" fill="#232335"/>
<path d="M424.816 194.243H388.378C387.233 194.243 386.306 195.171 386.306 196.315V199.585C386.306 200.729 387.233 201.657 388.378 201.657H424.816C425.961 201.657 426.888 200.729 426.888 199.585V196.315C426.888 195.171 425.961 194.243 424.816 194.243Z" fill="#232335"/>
<path d="M457.438 182.781H398.638C397.494 182.781 396.566 183.709 396.566 184.853V188.123C396.566 189.267 397.494 190.195 398.638 190.195H457.438C458.582 190.195 459.51 189.267 459.51 188.123V184.853C459.51 183.709 458.582 182.781 457.438 182.781Z" fill="#0078E8"/>
<path d="M494.958 182.781H465.104C463.96 182.781 463.032 183.709 463.032 184.853V188.123C463.032 189.267 463.96 190.195 465.104 190.195H494.958C496.102 190.195 497.03 189.267 497.03 188.123V184.853C497.03 183.709 496.102 182.781 494.958 182.781Z" fill="#0078E8"/>
<path d="M506.466 171.315H505.198C504.053 171.315 503.126 172.242 503.126 173.387V176.656C503.126 177.801 504.053 178.728 505.198 178.728H506.466C507.61 178.728 508.538 177.801 508.538 176.656V173.387C508.538 172.242 507.61 171.315 506.466 171.315Z" fill="#232335"/>
<path d="M515.931 159.807H514.663C513.518 159.807 512.591 160.734 512.591 161.879V165.148C512.591 166.293 513.518 167.22 514.663 167.22H515.931C517.075 167.22 518.003 166.293 518.003 165.148V161.879C518.003 160.734 517.075 159.807 515.931 159.807Z" fill="#232335"/>
<path d="M449.32 171.294H388.378C387.233 171.294 386.306 172.222 386.306 173.366V176.636C386.306 177.78 387.233 178.708 388.378 178.708H449.32C450.464 178.708 451.392 177.78 451.392 176.636V173.366C451.392 172.222 450.464 171.294 449.32 171.294Z" fill="#232335"/>
<path d="M468.54 159.807H427.671C426.527 159.807 425.599 160.734 425.599 161.879V165.148C425.599 166.293 426.527 167.22 427.671 167.22H468.54C469.684 167.22 470.612 166.293 470.612 165.148V161.879C470.612 160.734 469.684 159.807 468.54 159.807Z" fill="#0078E8"/>
<path d="M508.621 159.807H475.551C474.407 159.807 473.479 160.734 473.479 161.879V165.148C473.479 166.293 474.407 167.22 475.551 167.22H508.621C509.765 167.22 510.693 166.293 510.693 165.148V161.879C510.693 160.734 509.765 159.807 508.621 159.807Z" fill="#0078E8"/>
<path d="M428.939 148.697H427.671C426.527 148.697 425.599 149.624 425.599 150.769V154.038C425.599 155.183 426.527 156.11 427.671 156.11H428.939C430.084 156.11 431.011 155.183 431.011 154.038V150.769C431.011 149.624 430.084 148.697 428.939 148.697Z" fill="#0078E8"/>
<path d="M421.447 148.697H388.378C387.233 148.697 386.306 149.624 386.306 150.769V154.038C386.306 155.183 387.233 156.11 388.378 156.11H421.447C422.591 156.11 423.519 155.183 423.519 154.038V150.769C423.519 149.624 422.591 148.697 421.447 148.697Z" fill="#232335"/>
<path d="M468.54 148.697H435.47C434.326 148.697 433.398 149.624 433.398 150.769V154.038C433.398 155.183 434.326 156.11 435.47 156.11H468.54C469.684 156.11 470.612 155.183 470.612 154.038V150.769C470.612 149.624 469.684 148.697 468.54 148.697Z" fill="#232335"/>
<path d="M498.144 171.273H456.377C455.232 171.273 454.305 172.201 454.305 173.345V176.66C454.305 177.805 455.232 178.732 456.377 178.732H498.144C499.289 178.732 500.216 177.805 500.216 176.66V173.345C500.216 172.201 499.289 171.273 498.144 171.273Z" fill="#0078E8"/>
<path d="M546.87 304.764C547.774 304.448 548.716 304.252 549.671 304.18C551.189 304.071 552.713 304.283 554.143 304.804C555.574 305.324 556.878 306.141 557.97 307.201C559.062 308.261 559.919 309.539 560.483 310.953C561.047 312.366 561.305 313.883 561.242 315.404C561.179 316.925 560.795 318.415 560.116 319.777C559.437 321.139 558.478 322.342 557.301 323.307C556.124 324.273 554.757 324.979 553.289 325.379C551.82 325.779 550.284 325.864 548.78 325.629" stroke="#373771" stroke-width="6" stroke-linecap="round" stroke-linejoin="round"/>
<path d="M520.837 306.173L505.392 287.318" stroke="#373771" stroke-width="6" stroke-linecap="round" stroke-linejoin="round"/>
<path d="M503.126 300.33V335.89C503.126 339.187 504.435 342.349 506.767 344.681C509.098 347.012 512.26 348.322 515.558 348.322H536.526C539.824 348.322 542.986 347.012 545.317 344.681C547.649 342.349 548.958 339.187 548.958 335.89V300.33H503.126ZM521.666 326.367C521.794 326.441 521.899 326.547 521.972 326.675C522.045 326.804 522.082 326.949 522.08 327.096C522.08 327.316 521.993 327.527 521.838 327.683C521.682 327.838 521.471 327.925 521.252 327.925C521.107 327.928 520.964 327.892 520.837 327.822L512.549 322.849C512.407 322.782 512.286 322.676 512.202 322.543C512.118 322.41 512.073 322.256 512.073 322.099C512.073 321.941 512.118 321.787 512.202 321.655C512.286 321.522 512.407 321.416 512.549 321.349L520.837 316.376C520.964 316.306 521.107 316.27 521.252 316.272C521.471 316.272 521.682 316.36 521.838 316.515C521.993 316.67 522.08 316.881 522.08 317.101C522.082 317.249 522.045 317.394 521.972 317.522C521.899 317.65 521.794 317.757 521.666 317.83L514.534 322.107L521.666 326.367ZM532.026 314.109L525.354 330.789C525.312 330.873 525.256 330.95 525.188 331.017C525.111 331.096 525.019 331.158 524.917 331.201C524.815 331.243 524.706 331.265 524.596 331.265C524.376 331.265 524.165 331.178 524.01 331.023C523.854 330.867 523.767 330.656 523.767 330.437C523.766 330.315 523.791 330.195 523.842 330.084L530.513 313.405C530.558 313.315 530.619 313.233 530.692 313.164C530.767 313.086 530.858 313.024 530.958 312.983C531.059 312.941 531.167 312.921 531.276 312.924C531.496 312.924 531.707 313.011 531.862 313.167C532.017 313.322 532.105 313.533 532.105 313.753C532.106 313.881 532.079 314.009 532.026 314.126V314.109ZM543.318 322.828L535.03 327.801C534.904 327.871 534.761 327.907 534.616 327.905C534.396 327.905 534.185 327.817 534.03 327.662C533.875 327.506 533.787 327.296 533.787 327.076C533.785 326.928 533.822 326.783 533.895 326.655C533.968 326.527 534.074 326.42 534.202 326.346L541.342 322.095L534.21 317.818C534.082 317.744 533.976 317.638 533.904 317.51C533.831 317.381 533.793 317.236 533.795 317.089C533.795 316.979 533.817 316.871 533.859 316.77C533.901 316.669 533.962 316.577 534.04 316.5C534.118 316.422 534.21 316.36 534.312 316.318C534.413 316.276 534.523 316.255 534.633 316.256C534.777 316.253 534.92 316.289 535.047 316.359L543.335 321.332C543.477 321.399 543.598 321.505 543.682 321.638C543.766 321.771 543.811 321.925 543.811 322.082C543.811 322.24 543.766 322.394 543.682 322.526C543.598 322.659 543.477 322.765 543.335 322.832L543.318 322.828Z" fill="#232335"/>
<path d="M33.3681 325.729C31.9532 325.833 30.5316 325.658 29.1845 325.212C27.8374 324.767 26.5912 324.061 25.517 323.134C24.4428 322.208 23.5616 321.078 22.9239 319.811C22.2862 318.544 21.9043 317.163 21.8001 315.748C21.6958 314.333 21.8713 312.912 22.3165 311.564C22.7617 310.217 23.4679 308.971 24.3947 307.897C25.3215 306.823 26.4508 305.942 27.7181 305.304C28.9855 304.666 30.366 304.284 31.7809 304.18C32.4339 304.131 33.0901 304.142 33.741 304.213" stroke="#373771" stroke-width="6" stroke-linecap="round" stroke-linejoin="round"/>
<path d="M31.9634 300.33V335.89C31.9634 339.187 33.2732 342.349 35.6046 344.681C37.9361 347.012 41.0982 348.322 44.3954 348.322H65.3683C68.6655 348.322 71.8276 347.012 74.1591 344.681C76.4906 342.349 77.8004 339.187 77.8004 335.89V300.33H31.9634ZM50.5079 326.367C50.6356 326.441 50.7413 326.547 50.8141 326.675C50.887 326.804 50.9243 326.949 50.9223 327.096C50.9223 327.316 50.8349 327.527 50.6795 327.683C50.5241 327.838 50.3133 327.925 50.0935 327.925C49.9486 327.928 49.8058 327.892 49.6791 327.822L41.391 322.849C41.2486 322.782 41.1282 322.676 41.0439 322.543C40.9596 322.41 40.9148 322.256 40.9148 322.099C40.9148 321.941 40.9596 321.787 41.0439 321.655C41.1282 321.522 41.2486 321.416 41.391 321.349L49.6791 316.376C49.8058 316.306 49.9486 316.27 50.0935 316.272C50.3133 316.272 50.5241 316.36 50.6795 316.515C50.8349 316.67 50.9223 316.881 50.9223 317.101C50.9243 317.249 50.887 317.394 50.8141 317.522C50.7413 317.65 50.6356 317.757 50.5079 317.83L43.376 322.107L50.5079 326.367ZM67.9873 322.845L59.6993 327.818C59.5726 327.888 59.4297 327.923 59.2849 327.921C59.1752 327.923 59.0663 327.903 58.965 327.861C58.8637 327.819 58.7722 327.756 58.6964 327.677C58.6175 327.601 58.5551 327.509 58.5131 327.408C58.471 327.307 58.4502 327.198 58.4519 327.088C58.4499 326.941 58.4872 326.795 58.5601 326.667C58.6329 326.539 58.7386 326.433 58.8663 326.359L65.9982 322.086L58.8663 317.81C58.7386 317.736 58.6329 317.63 58.5601 317.501C58.4872 317.373 58.4499 317.228 58.4519 317.08C58.4519 316.861 58.5393 316.65 58.6947 316.494C58.8501 316.339 59.0609 316.252 59.2807 316.252C59.4256 316.249 59.5684 316.285 59.6951 316.355L67.9832 321.328C68.1256 321.395 68.246 321.501 68.3303 321.634C68.4146 321.767 68.4594 321.921 68.4594 322.078C68.4594 322.235 68.4146 322.389 68.3303 322.522C68.246 322.655 68.1256 322.761 67.9832 322.828L67.9873 322.845Z" fill="#232335"/>
<path d="M108.847 286L103.182 275.719" stroke="#373771" stroke-width="6" stroke-linecap="round" stroke-linejoin="round"/>
<path d="M96.2701 287.098H127.669" stroke="#373771" stroke-width="6" stroke-linecap="round" stroke-linejoin="round"/>
<path d="M123.322 320.582C122.924 320.18 122.398 319.929 121.835 319.871C121.272 319.814 120.706 319.953 120.234 320.266C119.762 320.579 119.414 321.046 119.248 321.588C119.082 322.129 119.11 322.711 119.326 323.235C119.541 323.758 119.932 324.191 120.431 324.458C120.93 324.726 121.506 324.812 122.062 324.702C122.617 324.592 123.117 324.292 123.476 323.854C123.835 323.417 124.031 322.868 124.031 322.302C124.036 321.982 123.975 321.665 123.853 321.369C123.732 321.073 123.551 320.806 123.322 320.582Z" fill="#232335"/>
<path d="M121.599 316.952C122.162 316.956 122.709 316.764 123.147 316.409C123.585 316.055 123.886 315.559 123.999 315.007C124.112 314.455 124.03 313.881 123.766 313.382C123.503 312.884 123.075 312.493 122.555 312.275C122.035 312.058 121.456 312.028 120.916 312.19C120.376 312.352 119.91 312.696 119.596 313.164C119.282 313.632 119.14 314.194 119.195 314.755C119.249 315.316 119.497 315.841 119.895 316.239C120.116 316.467 120.381 316.648 120.674 316.77C120.967 316.893 121.281 316.955 121.599 316.952Z" fill="#232335"/>
<path d="M123.322 331.808C123.724 331.41 123.975 330.884 124.033 330.321C124.091 329.758 123.951 329.192 123.639 328.721C123.326 328.249 122.859 327.9 122.318 327.734C121.777 327.568 121.195 327.595 120.671 327.811C120.148 328.026 119.715 328.416 119.447 328.914C119.179 329.413 119.093 329.989 119.202 330.544C119.311 331.1 119.61 331.6 120.047 331.96C120.484 332.319 121.032 332.516 121.598 332.517C121.919 332.522 122.237 332.462 122.533 332.34C122.83 332.219 123.098 332.037 123.322 331.808Z" fill="#232335"/>
<path d="M130.757 294.599L125.249 287.434H98.6903L93.1829 294.599C92.6551 295.26 92.3634 296.078 92.3541 296.924V340.544C92.3752 341.242 92.5753 341.923 92.9352 342.522C93.2951 343.12 93.8028 343.617 94.4096 343.963C96.1127 345.024 98.2842 346.665 98.4375 348.235H125.502C125.651 346.665 127.823 345.024 129.526 343.963C130.132 343.614 130.637 343.116 130.995 342.516C131.353 341.916 131.551 341.234 131.569 340.536V296.924C131.563 296.08 131.277 295.263 130.757 294.599ZM119.228 302.966L122.129 298.126C122.169 298.049 122.228 297.984 122.301 297.936C122.373 297.889 122.457 297.862 122.543 297.856C122.634 297.858 122.722 297.884 122.799 297.931C122.877 297.979 122.94 298.046 122.983 298.126L125.883 302.966C125.926 303.04 125.947 303.125 125.946 303.21C125.947 303.274 125.935 303.337 125.911 303.395C125.886 303.453 125.85 303.506 125.805 303.55C125.76 303.596 125.707 303.633 125.648 303.658C125.588 303.683 125.525 303.696 125.461 303.695C125.376 303.693 125.294 303.669 125.221 303.625C125.148 303.582 125.088 303.52 125.046 303.447L122.56 299.303L120.073 303.447C120.031 303.52 119.971 303.581 119.898 303.625C119.826 303.668 119.744 303.692 119.659 303.695C119.595 303.696 119.531 303.683 119.472 303.658C119.413 303.633 119.36 303.596 119.315 303.55C119.269 303.506 119.232 303.454 119.207 303.395C119.182 303.337 119.17 303.274 119.17 303.21C119.167 303.125 119.187 303.041 119.228 302.966ZM119.419 304.789C119.501 304.728 119.602 304.696 119.705 304.698C119.769 304.698 119.832 304.71 119.892 304.735C119.951 304.76 120.004 304.797 120.049 304.843C120.095 304.888 120.131 304.941 120.155 305C120.179 305.06 120.191 305.123 120.189 305.187C120.192 305.246 120.182 305.306 120.16 305.361C120.138 305.416 120.104 305.465 120.061 305.506L119.879 305.684C119.649 305.907 119.467 306.175 119.345 306.471C119.222 306.766 119.161 307.084 119.166 307.404C119.152 307.702 119.202 308 119.311 308.278C119.42 308.556 119.587 308.807 119.8 309.016C119.917 309.112 120.063 309.163 120.214 309.161C120.303 309.159 120.388 309.13 120.458 309.076C120.528 309.022 120.579 308.948 120.604 308.863L121.594 305.871C121.684 305.586 121.832 305.324 122.029 305.1C122.163 304.963 122.323 304.856 122.5 304.785C122.677 304.713 122.866 304.68 123.057 304.686C123.254 304.685 123.448 304.724 123.629 304.801C123.81 304.878 123.974 304.991 124.11 305.133C124.408 305.433 124.64 305.79 124.794 306.184C124.947 306.578 125.018 306.999 125.001 307.421C125.003 307.92 124.895 308.413 124.683 308.865C124.472 309.318 124.163 309.717 123.778 310.036C123.739 310.069 123.693 310.094 123.644 310.11C123.595 310.125 123.544 310.131 123.492 310.127C123.428 310.127 123.365 310.115 123.306 310.091C123.247 310.067 123.193 310.031 123.148 309.986C123.103 309.941 123.067 309.887 123.043 309.828C123.019 309.769 123.007 309.706 123.007 309.642C123.004 309.582 123.014 309.522 123.036 309.466C123.058 309.41 123.092 309.36 123.136 309.319L123.318 309.14C123.547 308.917 123.728 308.65 123.85 308.354C123.972 308.058 124.032 307.741 124.027 307.421C124.041 307.123 123.993 306.825 123.884 306.547C123.776 306.27 123.61 306.018 123.397 305.809C123.28 305.714 123.133 305.663 122.983 305.664C122.894 305.665 122.809 305.695 122.739 305.749C122.669 305.803 122.618 305.877 122.593 305.962L121.598 308.954C121.515 309.237 121.374 309.499 121.184 309.725C121.051 309.861 120.891 309.969 120.714 310.04C120.537 310.111 120.347 310.145 120.156 310.139C119.96 310.14 119.765 310.1 119.584 310.024C119.403 309.947 119.24 309.834 119.104 309.692C118.806 309.392 118.573 309.034 118.42 308.641C118.266 308.247 118.196 307.826 118.213 307.404C118.208 306.906 118.314 306.414 118.522 305.961C118.731 305.509 119.037 305.109 119.419 304.789ZM119.191 312.112C119.748 311.553 120.482 311.204 121.267 311.125C122.052 311.047 122.841 311.243 123.498 311.681C124.154 312.118 124.639 312.77 124.869 313.525C125.099 314.28 125.06 315.092 124.759 315.821C124.458 316.551 123.913 317.153 123.217 317.526C122.521 317.898 121.717 318.018 120.943 317.864C120.169 317.711 119.472 317.293 118.971 316.683C118.47 316.074 118.196 315.309 118.196 314.519C118.189 314.071 118.273 313.627 118.444 313.213C118.615 312.798 118.869 312.424 119.191 312.112ZM118.337 333.35C118.271 333.281 118.226 333.195 118.208 333.101C118.19 333.007 118.2 332.911 118.237 332.823C118.274 332.734 118.335 332.659 118.414 332.605C118.493 332.552 118.586 332.523 118.681 332.521H119.216C118.651 331.968 118.296 331.235 118.211 330.449C118.126 329.663 118.318 328.872 118.752 328.211C119.186 327.55 119.837 327.061 120.592 326.827C121.347 326.593 122.16 326.628 122.892 326.927C123.624 327.226 124.229 327.771 124.604 328.467C124.979 329.163 125.101 329.968 124.948 330.743C124.795 331.519 124.378 332.218 123.767 332.72C123.156 333.222 122.389 333.496 121.598 333.495H118.698C118.631 333.498 118.564 333.487 118.502 333.461C118.439 333.436 118.383 333.398 118.337 333.35ZM125.917 335.194L123.016 340.034C122.973 340.114 122.91 340.181 122.833 340.228C122.755 340.276 122.667 340.302 122.576 340.303C122.49 340.298 122.406 340.271 122.334 340.223C122.261 340.176 122.202 340.111 122.162 340.034L119.261 335.194C119.219 335.119 119.197 335.035 119.199 334.949C119.199 334.886 119.211 334.823 119.236 334.764C119.261 334.706 119.298 334.653 119.344 334.61C119.388 334.563 119.441 334.525 119.501 334.5C119.56 334.475 119.624 334.463 119.688 334.465C119.773 334.467 119.855 334.492 119.927 334.535C120 334.579 120.06 334.64 120.102 334.713L122.589 338.857L125.075 334.713C125.117 334.64 125.177 334.578 125.25 334.535C125.323 334.491 125.405 334.467 125.49 334.465C125.618 334.466 125.741 334.517 125.831 334.608C125.922 334.698 125.973 334.821 125.975 334.949C125.977 335.035 125.957 335.119 125.917 335.194ZM127.794 325.567C127.749 325.613 127.696 325.649 127.636 325.673C127.577 325.698 127.514 325.709 127.45 325.708H121.598C120.812 325.707 120.049 325.434 119.442 324.934C118.834 324.434 118.418 323.74 118.265 322.968C118.112 322.196 118.231 321.395 118.602 320.701C118.974 320.007 119.574 319.464 120.301 319.163C121.028 318.862 121.836 318.822 122.589 319.05C123.342 319.278 123.993 319.761 124.43 320.415C124.868 321.069 125.065 321.854 124.988 322.637C124.912 323.42 124.566 324.153 124.01 324.71L123.985 324.734H127.45C127.514 324.734 127.578 324.747 127.637 324.772C127.696 324.796 127.749 324.833 127.794 324.879C127.84 324.924 127.877 324.977 127.902 325.036C127.927 325.096 127.94 325.159 127.939 325.223C127.939 325.288 127.926 325.351 127.901 325.41C127.876 325.469 127.84 325.523 127.794 325.567Z" fill="#232335"/>
<path d="M233.524 171.236C233.694 165.878 233.611 157.445 231.709 153.761C228.688 147.913 231.506 141.672 237.685 148.058C241.207 151.697 242.935 156.525 243.772 160.001" stroke="#373771" stroke-width="6" stroke-linecap="round" stroke-linejoin="round"/>
<path d="M285.697 162.637C291.664 162.637 296.501 157.8 296.501 151.834C296.501 145.867 291.664 141.03 285.697 141.03C279.731 141.03 274.894 145.867 274.894 151.834C274.894 157.8 279.731 162.637 285.697 162.637Z" stroke="#373771" stroke-width="6" stroke-linecap="round" stroke-linejoin="round"/>
<path d="M215.721 349.565C247.299 347.207 253.581 240.068 254.675 236.409C256.867 229.182 249.984 227.487 250.888 221.764C251.791 216.041 251.091 213.476 251.091 213.476C236.268 211.064 221.871 192.424 221.871 192.424C221.871 192.424 220.379 193.514 216.132 197.144C211.884 200.774 207.143 195.197 202.295 200.758C199.096 204.467 164.236 262.989 164.236 262.989" stroke="#373771" stroke-width="6" stroke-linecap="round" stroke-linejoin="round"/>
<path d="M252.168 221.594C253.196 215.432 253.602 212.751 253.602 212.751C237.817 210.322 221.54 190.419 221.54 190.419C221.54 190.419 219.932 191.604 215.365 195.553C213.525 197.144 211.635 197.132 209.655 196.941C208.258 214.226 239.264 229.613 253.95 230.338C253.014 226.186 251.393 226.273 252.168 221.594Z" fill="#232335"/>
<path d="M143.715 253.171C143.715 253.171 162.404 237.043 173.254 247.204" stroke="#373771" stroke-width="6" stroke-linecap="round" stroke-linejoin="round"/>
<path d="M215.39 205.436L246.702 223.641L262.375 186.585C277.496 186.61 277.43 178.397 274.264 178.115C271.098 177.833 255.894 179.967 255.894 179.967C255.894 179.967 256.387 178.861 268.74 176.515C281.093 174.17 278.773 167.287 276.116 167.1C273.46 166.914 253.83 171.833 253.83 171.833L270.696 165.811C276.701 163.905 276.912 158.087 273.775 157.266C271.703 156.724 260.655 160.064 251.911 163.122C251.911 163.122 262.42 157.735 267.406 154.477C272.391 151.22 268.906 146.973 265.993 147.238C263.079 147.503 242.84 161.037 238.986 164.39C235.132 167.742 215.39 205.436 215.39 205.436Z" stroke="#373771" stroke-width="6" stroke-linecap="round" stroke-linejoin="round"/>
<path d="M195.001 304.449C195.571 304.315 196.15 304.225 196.734 304.18C198.317 304.065 199.906 304.3 201.388 304.869C202.87 305.438 204.209 306.326 205.309 307.471C206.409 308.616 207.242 309.989 207.751 311.493C208.26 312.997 208.431 314.594 208.252 316.171C208.074 317.749 207.549 319.267 206.717 320.619C205.885 321.971 204.765 323.123 203.437 323.993C202.109 324.862 200.605 325.429 199.033 325.652C197.462 325.874 195.86 325.748 194.343 325.281" stroke="#373771" stroke-width="6" stroke-linecap="round" stroke-linejoin="round"/>
<path d="M150.188 300.33V335.89C150.188 339.187 151.498 342.349 153.829 344.681C156.161 347.012 159.323 348.322 162.62 348.322H183.589C186.886 348.322 190.048 347.012 192.38 344.681C194.711 342.349 196.021 339.187 196.021 335.89V300.33H150.188ZM168.728 326.367C168.856 326.441 168.962 326.547 169.035 326.675C169.107 326.804 169.145 326.949 169.143 327.096C169.143 327.316 169.055 327.527 168.9 327.683C168.745 327.838 168.534 327.925 168.314 327.925C168.169 327.928 168.026 327.892 167.9 327.822L159.612 322.849C159.469 322.782 159.349 322.676 159.264 322.543C159.18 322.41 159.135 322.256 159.135 322.099C159.135 321.941 159.18 321.787 159.264 321.655C159.349 321.522 159.469 321.416 159.612 321.349L167.9 316.376C168.026 316.306 168.169 316.27 168.314 316.272C168.423 316.272 168.532 316.294 168.633 316.336C168.734 316.378 168.825 316.439 168.902 316.517C168.982 316.593 169.044 316.684 169.086 316.785C169.129 316.887 169.149 316.996 169.147 317.105C169.149 317.253 169.112 317.398 169.039 317.526C168.966 317.654 168.86 317.761 168.732 317.835L161.601 322.111L168.728 326.367ZM179.088 314.109L172.417 330.789C172.373 330.873 172.315 330.95 172.247 331.017C172.169 331.096 172.077 331.158 171.975 331.201C171.874 331.243 171.764 331.265 171.654 331.265C171.434 331.265 171.223 331.178 171.068 331.023C170.913 330.867 170.825 330.656 170.825 330.437C170.825 330.316 170.849 330.196 170.896 330.084L177.568 313.405C177.614 313.316 177.674 313.234 177.746 313.164C177.822 313.086 177.912 313.025 178.013 312.984C178.113 312.942 178.221 312.922 178.33 312.924C178.55 312.924 178.761 313.011 178.916 313.167C179.071 313.322 179.159 313.533 179.159 313.753C179.162 313.88 179.14 314.007 179.093 314.126L179.088 314.109ZM190.381 322.828L182.093 327.801C181.966 327.871 181.823 327.907 181.678 327.905C181.459 327.905 181.248 327.817 181.092 327.662C180.937 327.506 180.85 327.296 180.85 327.076C180.848 326.928 180.885 326.783 180.958 326.655C181.031 326.527 181.136 326.42 181.264 326.346L188.392 322.074L181.264 317.797C181.136 317.724 181.031 317.617 180.958 317.489C180.885 317.361 180.848 317.215 180.85 317.068C180.847 316.958 180.868 316.849 180.91 316.748C180.952 316.647 181.015 316.555 181.094 316.479C181.171 316.402 181.263 316.34 181.364 316.298C181.465 316.256 181.573 316.235 181.683 316.235C181.827 316.233 181.97 316.268 182.097 316.339L190.385 321.311C190.527 321.378 190.648 321.484 190.732 321.617C190.816 321.75 190.861 321.904 190.861 322.061C190.861 322.219 190.816 322.373 190.732 322.506C190.648 322.639 190.527 322.745 190.385 322.812L190.381 322.828Z" fill="#232335"/>
<path d="M3 349H541" stroke="#373771" stroke-width="6" stroke-linecap="round" stroke-linejoin="round"/>
<path d="M285.544 172.815L283.248 137.329L237.511 140.292L239.065 164.303C243.13 160.826 263.1 147.491 265.98 147.23C268.86 146.968 272.378 151.216 267.393 154.469C262.408 157.722 251.899 163.114 251.899 163.114C260.643 160.055 271.703 156.715 273.762 157.258C276.904 158.087 276.688 163.888 270.683 165.803L253.817 171.824C253.817 171.824 273.448 166.905 276.104 167.092C278.76 167.278 281.077 174.162 268.728 176.507C256.378 178.853 255.881 179.959 255.881 179.959C255.881 179.959 271.09 177.821 274.251 178.107C277.413 178.393 277.484 186.602 262.362 186.577L262.275 186.78L273.928 186.026C275.559 185.922 277.153 185.498 278.619 184.777C280.086 184.057 281.396 183.055 282.474 181.828C283.553 180.601 284.379 179.173 284.906 177.627C285.433 176.08 285.65 174.445 285.544 172.815Z" fill="#232335"/>
</svg>
