<svg width="533" height="364" viewBox="0 0 533 364" fill="none" xmlns="http://www.w3.org/2000/svg">
<path d="M189.24 260.53L184.169 305.664C184.169 305.664 156.572 335.706 131.233 345.096C97.6366 357.519 85.2848 339.765 99.4522 308.229L131.233 254.416L152.593 232.042L189.277 248.793" fill="white"/>
<path d="M189.24 260.53L184.169 305.664C184.169 305.664 156.572 335.706 131.233 345.096C97.6366 357.519 85.2848 339.765 99.4522 308.229L131.233 254.416L152.593 232.042L189.277 248.793" stroke="#232335" stroke-width="6" stroke-linecap="round" stroke-linejoin="round"/>
<path d="M371.108 216.093C371.108 216.093 409.529 244.604 433.248 292.011C448.665 324.842 385.633 323.519 341.19 318.648C312.553 301.303 312.716 295.37 312.716 295.37L371.108 216.093Z" fill="white" stroke="#232335" stroke-width="6" stroke-linecap="round" stroke-linejoin="round"/>
<path d="M399.058 280.033C381.459 273.357 363.581 275.672 349.135 282.895" stroke="#232335" stroke-width="6" stroke-linecap="round" stroke-linejoin="round"/>
<path d="M153.642 291.862C153.642 291.862 122.609 297.638 108.827 306.916" stroke="#232335" stroke-width="6" stroke-linecap="round" stroke-linejoin="round"/>
<path d="M318.516 177.152C343.883 184.881 379.81 221.775 379.81 221.775L338.854 265.642L349.135 290.471L330.454 313.068L338.752 362.669L177.816 363.337L190.818 304.212L123.487 263.123L155.198 212.729C155.198 212.729 163.635 197.017 191.352 190.568C213.725 185.359 294.221 169.744 318.516 177.152Z" fill="#51A9FF"/>
<path d="M271.848 166.844L271.421 178.14L280.903 177.477C284.539 179.722 290.148 215.912 256.181 223.2C229.88 228.841 217.222 202.236 213.544 186.987L223.969 184.315L231.779 139.469L271.848 166.844Z" fill="white" stroke="#232335" stroke-width="6" stroke-linecap="round" stroke-linejoin="round"/>
<path d="M224.996 50.6655L234.681 47.2685L228.696 30.2355L219.01 33.6325L224.996 50.6655Z" fill="#324AC6"/>
<path d="M216.999 36.2543C227.018 36.2543 235.141 28.1396 235.141 18.1295C235.141 8.11941 227.018 0.00463867 216.999 0.00463867C206.979 0.00463867 198.856 8.11941 198.856 18.1295C198.856 28.1396 206.979 36.2543 216.999 36.2543Z" fill="#232335"/>
<path d="M231.589 126.976L227.897 127.714C227.897 127.714 206.504 130.219 207.707 110.619C208.636 95.7736 223.281 96.6504 230.307 97.954" fill="white"/>
<path d="M231.589 126.976L227.897 127.714C227.897 127.714 206.504 130.219 207.707 110.619C208.636 95.7736 223.281 96.6504 230.307 97.954" stroke="#232335" stroke-width="6" stroke-linecap="round" stroke-linejoin="round"/>
<path d="M307.942 118.718C307.255 127.658 299.417 168.305 270.729 168.013C242.041 167.721 225.914 139.715 226.091 112.882C226.267 86.0501 240.732 65.3691 258.897 65.1372C277.063 64.9052 312.916 54.0034 307.942 118.718Z" fill="white" stroke="#232335" stroke-width="6" stroke-linecap="round" stroke-linejoin="round"/>
<path d="M232.805 41.181C248.932 36.078 266.239 33.7168 281.484 39.7615C327.636 60.6094 327.756 95.3793 308.346 111.203C309.085 86.5697 303.057 74.6241 294.583 68.9876C285.324 83.7306 255.415 96.5019 228.023 96.822C227.962 97.0679 227.911 97.3138 227.855 97.5596C220.342 96.6318 208.524 97.2998 207.707 110.605C206.579 128.957 225.269 127.932 227.674 127.723C227.99 129.175 231.821 142.299 231.821 142.299L227.679 161.129L166.742 151.698C165.886 151.678 165.046 151.458 164.291 151.055C163.536 150.652 162.886 150.077 162.394 149.376C161.903 148.676 161.583 147.87 161.46 147.023C161.338 146.177 161.416 145.313 161.69 144.502C169.017 122.699 180.96 58.3549 232.805 41.181Z" fill="#232335"/>
<path d="M275.215 130.038L283.736 131.068L281.962 96.7942" stroke="#232335" stroke-width="6" stroke-linecap="round" stroke-linejoin="round"/>
<path d="M290.52 96.8823C290.52 96.8823 296.979 93.9458 299.737 98.9235" stroke="#232335" stroke-width="6" stroke-linecap="round" stroke-linejoin="round"/>
<path d="M257.597 95.4814C257.597 95.4814 263.323 91.3062 267.037 95.6066" stroke="#232335" stroke-width="6" stroke-linecap="round" stroke-linejoin="round"/>
<path d="M265.98 105.677C266.354 103.277 265.398 101.136 263.844 100.894C262.291 100.653 260.729 102.402 260.354 104.802C259.98 107.202 260.936 109.344 262.49 109.585C264.043 109.827 265.606 108.077 265.98 105.677Z" fill="#232335"/>
<path d="M296.881 108.181C297.141 105.766 296.084 103.672 294.521 103.504C292.958 103.337 291.481 105.158 291.221 107.573C290.961 109.988 292.018 112.082 293.581 112.25C295.144 112.417 296.622 110.596 296.881 108.181Z" fill="#232335"/>
<path d="M229.16 140.406L222.845 127.259" stroke="#324AC6" stroke-width="6" stroke-linecap="round" stroke-linejoin="round"/>
<path d="M237.695 119.085L224.428 97.5364" stroke="#324AC6" stroke-width="6" stroke-linecap="round" stroke-linejoin="round"/>
<path d="M235.146 114.395C235.146 114.395 234.593 136.662 226.091 137.187C229.276 146.97 256.706 186.5 287.618 165.35C293.355 161.343 298.085 156.061 301.437 149.921C308.955 136.468 308.402 127.82 308.402 127.82C308.402 127.82 295.54 114.673 285.347 112.553C275.154 110.433 271.082 117.795 257.588 120.328C253.641 121.063 249.58 120.912 245.698 119.886C241.817 118.86 238.212 116.984 235.146 114.395Z" fill="#8FC9CD"/>
<path d="M277.004 106.548C278.975 93.555 272.575 81.8112 262.709 80.3171C252.843 78.8229 243.247 88.1442 241.276 101.137C239.304 114.129 245.704 125.873 255.57 127.367C265.436 128.861 275.032 119.54 277.004 106.548Z" stroke="#324AC6" stroke-width="6" stroke-linecap="round" stroke-linejoin="round"/>
<path d="M321.233 111.909C323.078 99.7499 317.09 88.7596 307.858 87.3614C298.626 85.9632 289.646 94.6867 287.801 106.846C285.956 119.005 291.944 129.995 301.176 131.393C310.408 132.792 319.388 124.068 321.233 111.909Z" stroke="#324AC6" stroke-width="6" stroke-linecap="round" stroke-linejoin="round"/>
<path d="M288.078 105.242L277.495 104.082" stroke="#324AC6" stroke-width="6" stroke-linecap="round" stroke-linejoin="round"/>
<path d="M224.428 97.5364L241.373 96.4555" stroke="#324AC6" stroke-width="6" stroke-linecap="round" stroke-linejoin="round"/>
<path d="M368.94 256.035C373.635 247.545 383.005 236.876 412.037 237.502C444.444 238.202 445.707 257.784 462.08 298.297C463.376 302.407 446.032 311.435 445.944 331.457C422.299 315.22 440.283 271.706 404.686 275.705C379.146 279.161 373.867 273.181 373.867 273.181L368.94 256.035Z" fill="white" stroke="#232335" stroke-width="6" stroke-linecap="round" stroke-linejoin="round"/>
<path d="M387.365 276.062L388.396 273.478" stroke="#232335" stroke-width="6" stroke-linecap="round" stroke-linejoin="round"/>
<path d="M390.184 268.987C392.882 262.205 396.978 251.897 399.982 244.256" stroke="#232335" stroke-width="6" stroke-linecap="round" stroke-linejoin="round" stroke-dasharray="10.42 10.42"/>
<path d="M400.869 242.006L401.881 239.413" stroke="#232335" stroke-width="6" stroke-linecap="round" stroke-linejoin="round"/>
<path d="M427.894 286.801C427.894 286.801 442.182 270.745 443.376 254.402" stroke="#232335" stroke-width="6" stroke-linecap="round" stroke-linejoin="round" stroke-dasharray="12 12"/>
<path d="M400.947 205.425L363.691 176.637L294.239 266.346L331.495 295.134L400.947 205.425Z" fill="white" stroke="#232335" stroke-width="6" stroke-linecap="round" stroke-linejoin="round"/>
<path d="M297.443 268.829L336.542 218.329" stroke="#232335" stroke-width="6" stroke-linecap="round" stroke-linejoin="round"/>
<path d="M301.195 271.729L356.314 200.533" stroke="#324AC6" stroke-width="6" stroke-linecap="round" stroke-linejoin="round"/>
<path d="M304.947 274.628L360.066 203.432" stroke="#324AC6" stroke-width="6" stroke-linecap="round" stroke-linejoin="round"/>
<path d="M308.695 277.523L363.818 206.332" stroke="#324AC6" stroke-width="6" stroke-linecap="round" stroke-linejoin="round"/>
<path d="M312.447 280.422L367.565 209.231" stroke="#324AC6" stroke-width="6" stroke-linecap="round" stroke-linejoin="round"/>
<path d="M316.199 283.322L371.318 212.126" stroke="#324AC6" stroke-width="6" stroke-linecap="round" stroke-linejoin="round"/>
<path d="M319.951 286.221L375.069 215.026" stroke="#324AC6" stroke-width="6" stroke-linecap="round" stroke-linejoin="round"/>
<path d="M323.703 289.121L378.821 217.925" stroke="#324AC6" stroke-width="6" stroke-linecap="round" stroke-linejoin="round"/>
<path d="M327.455 292.02L382.573 220.824" stroke="#324AC6" stroke-width="6" stroke-linecap="round" stroke-linejoin="round"/>
<path d="M385.16 225.807C385.16 225.807 352.91 190.55 319.403 233.837L364.993 174.949L402.248 203.739L385.16 225.807Z" fill="white" stroke="#232335" stroke-width="6" stroke-linecap="round" stroke-linejoin="round"/>
<path d="M402.248 203.739L364.993 174.949L372.121 170.954L409.376 199.74L402.248 203.739Z" fill="white" stroke="#232335" stroke-width="6" stroke-linecap="round" stroke-linejoin="round"/>
<path d="M365.896 156.293L322.799 137.312L249.821 302.693L292.919 321.674L365.896 156.293Z" fill="white" stroke="#232335" stroke-width="6" stroke-linecap="round" stroke-linejoin="round"/>
<path d="M253.571 304.318L306.526 184.292" stroke="#324AC6" stroke-width="6" stroke-linecap="round" stroke-linejoin="round"/>
<path d="M257.908 306.23L321.427 162.261" stroke="#324AC6" stroke-width="6" stroke-linecap="round" stroke-linejoin="round"/>
<path d="M262.25 308.141L325.764 164.172" stroke="#324AC6" stroke-width="6" stroke-linecap="round" stroke-linejoin="round"/>
<path d="M266.587 310.052L330.106 166.083" stroke="#324AC6" stroke-width="6" stroke-linecap="round" stroke-linejoin="round"/>
<path d="M270.929 311.964L334.443 167.995" stroke="#324AC6" stroke-width="6" stroke-linecap="round" stroke-linejoin="round"/>
<path d="M275.266 313.875L338.785 169.906" stroke="#324AC6" stroke-width="6" stroke-linecap="round" stroke-linejoin="round"/>
<path d="M279.608 315.786L343.122 171.813" stroke="#324AC6" stroke-width="6" stroke-linecap="round" stroke-linejoin="round"/>
<path d="M283.945 317.697L347.464 173.724" stroke="#324AC6" stroke-width="6" stroke-linecap="round" stroke-linejoin="round"/>
<path d="M288.286 319.604L351.801 175.635" stroke="#324AC6" stroke-width="6" stroke-linecap="round" stroke-linejoin="round"/>
<path d="M355.515 179.847C355.515 179.847 315.716 153.405 293.626 203.465L323.679 135.34L366.781 154.319L355.515 179.847Z" fill="white" stroke="#232335" stroke-width="6" stroke-linecap="round" stroke-linejoin="round"/>
<path d="M366.781 154.319L323.679 135.34L323.87 126.28L366.971 145.259L366.781 154.319Z" fill="white" stroke="#232335" stroke-width="6" stroke-linecap="round" stroke-linejoin="round"/>
<path d="M392.645 258.438L354.736 235.846L334.982 266.965C330.705 273.7 336.329 278.98 344.329 291.301C347.631 272.703 381.738 274.819 381.738 274.819L392.645 258.438Z" fill="#51A9FF"/>
<path d="M392.441 258.529C396.716 251.794 391.86 241.061 381.594 234.558C371.328 228.054 359.54 228.242 355.265 234.978C350.989 241.713 355.846 252.446 366.112 258.95C376.377 265.453 388.165 265.265 392.441 258.529Z" fill="#51A9FF"/>
<path d="M385.562 253.901C387.041 251.571 385.362 247.859 381.812 245.61C378.263 243.361 374.186 243.427 372.707 245.757C371.228 248.088 372.906 251.8 376.456 254.049C380.006 256.298 384.082 256.231 385.562 253.901Z" stroke="white" stroke-width="4" stroke-linecap="round" stroke-linejoin="round"/>
<path d="M378.938 254.973C378.399 254.2 378.107 253.283 378.099 252.342C378.091 251.401 378.367 250.48 378.891 249.698C380.145 247.717 382.016 246.915 383.762 247.378" stroke="white" stroke-width="4" stroke-linecap="round" stroke-linejoin="round"/>
<path d="M392.348 260.748C388.071 267.484 376.788 267.517 366.525 261.013C358.167 255.729 353.398 247.977 354.192 241.529" stroke="white" stroke-width="4" stroke-linecap="round" stroke-linejoin="round"/>
<path d="M344.984 231.054L302.328 219.716L291.885 255.056C289.624 262.701 297.244 271.692 308.899 275.134C320.554 278.576 331.843 275.166 334.104 267.517L335.237 266.589L333.408 267.359L344.984 231.054Z" fill="#51A9FF"/>
<path d="M344.834 231.218C347.096 223.569 339.479 214.579 327.821 211.138C316.163 207.697 304.879 211.108 302.617 218.757C300.355 226.406 307.972 235.396 319.63 238.837C331.287 242.278 342.572 238.867 344.834 231.218Z" fill="#51A9FF"/>
<path d="M336.95 228.657C337.733 226.011 335.1 222.901 331.068 221.711C327.037 220.521 323.135 221.702 322.353 224.348C321.57 226.995 324.203 230.104 328.234 231.294C332.265 232.484 336.168 231.303 336.95 228.657Z" stroke="white" stroke-width="4" stroke-linecap="round" stroke-linejoin="round"/>
<path d="M330.854 231.49C330.125 230.893 329.593 230.092 329.327 229.189C329.061 228.286 329.074 227.324 329.363 226.428C330.027 224.183 331.597 222.889 333.408 222.861" stroke="white" stroke-width="4" stroke-linecap="round" stroke-linejoin="round"/>
<path d="M341.65 235.284C336.51 241.988 323.731 242.535 312.8 237.604C301.72 232.598 300.36 226.414 302.621 218.765" stroke="white" stroke-width="4" stroke-linecap="round" stroke-linejoin="round"/>
<path d="M304.163 258.512L353.616 269.252L344.612 310.646C342.662 319.604 330.013 324.466 316.357 321.501C302.7 318.537 293.209 308.869 295.159 299.907L304.163 258.512Z" fill="#8FC9CD" stroke="#51A9FF" stroke-width="6" stroke-linecap="round" stroke-linejoin="round"/>
<path d="M353.849 268.125C355.798 259.165 346.308 249.498 332.653 246.533C318.997 243.569 306.347 248.429 304.398 257.39C302.449 266.35 311.939 276.018 325.595 278.982C339.25 281.947 351.9 277.086 353.849 268.125Z" fill="#8FC9CD"/>
<path d="M330.862 262.862C331.536 259.763 328.255 256.419 323.534 255.394C318.812 254.369 314.438 256.051 313.764 259.151C313.09 262.25 316.371 265.594 321.092 266.619C325.814 267.644 330.188 265.962 330.862 262.862Z" stroke="#51A9FF" stroke-width="6" stroke-linecap="round" stroke-linejoin="round"/>
<path d="M318.363 265.355C319.428 265.156 320.408 264.641 321.176 263.877C321.944 263.113 322.463 262.136 322.667 261.073C323.238 258.443 322.37 256.267 320.564 255.242" stroke="#51A9FF" stroke-width="6" stroke-linecap="round" stroke-linejoin="round"/>
<path d="M353.849 268.125C355.798 259.165 346.308 249.498 332.653 246.533C318.997 243.569 306.347 248.429 304.398 257.39C302.449 266.35 311.939 276.018 325.595 278.982C339.25 281.947 351.9 277.086 353.849 268.125Z" stroke="#51A9FF" stroke-width="6" stroke-linecap="round" stroke-linejoin="round"/>
<path d="M246.541 223.404V276.688C246.541 287.822 230.14 296.803 209.908 296.803C189.676 296.803 173.275 287.799 173.275 276.688V223.404H246.541Z" fill="white" stroke="#232335" stroke-width="6" stroke-linecap="round" stroke-linejoin="round"/>
<path d="M209.894 236.523C230.126 236.523 246.527 229.642 246.527 221.154C246.527 212.666 230.126 205.785 209.894 205.785C189.662 205.785 173.261 212.666 173.261 221.154C173.261 229.642 189.662 236.523 209.894 236.523Z" fill="white" stroke="#232335" stroke-width="6" stroke-linecap="round" stroke-linejoin="round"/>
<path d="M209.894 237.196V239.979" stroke="#232335" stroke-width="6" stroke-linecap="round" stroke-linejoin="round"/>
<path d="M209.894 245.81V289.534" stroke="#232335" stroke-width="6" stroke-linecap="round" stroke-linejoin="round" stroke-dasharray="12.57 12.57"/>
<path d="M209.894 292.452V295.235" stroke="#232335" stroke-width="6" stroke-linecap="round" stroke-linejoin="round"/>
<path d="M209.894 223.404C215.757 223.404 220.509 222.097 220.509 220.486C220.509 218.874 215.757 217.568 209.894 217.568C204.032 217.568 199.279 218.874 199.279 220.486C199.279 222.097 204.032 223.404 209.894 223.404Z" fill="#232335"/>
<path d="M306.169 232.102V285.382C306.169 296.515 289.768 305.501 269.536 305.501C249.304 305.501 232.898 296.492 232.898 285.382V232.102H306.169Z" fill="white" stroke="#232335" stroke-width="6" stroke-linecap="round" stroke-linejoin="round"/>
<path d="M269.536 245.221C289.768 245.221 306.169 238.34 306.169 229.852C306.169 221.364 289.768 214.483 269.536 214.483C249.304 214.483 232.903 221.364 232.903 229.852C232.903 238.34 249.304 245.221 269.536 245.221Z" fill="white" stroke="#232335" stroke-width="6" stroke-linecap="round" stroke-linejoin="round"/>
<path d="M249.322 243.106V245.889" stroke="#232335" stroke-width="6" stroke-linecap="round" stroke-linejoin="round"/>
<path d="M249.322 251.721V295.444" stroke="#232335" stroke-width="6" stroke-linecap="round" stroke-linejoin="round" stroke-dasharray="12.57 12.57"/>
<path d="M249.322 298.357V301.141" stroke="#232335" stroke-width="6" stroke-linecap="round" stroke-linejoin="round"/>
<path d="M269.536 232.102C275.398 232.102 280.151 230.796 280.151 229.184C280.151 227.572 275.398 226.266 269.536 226.266C263.673 226.266 258.921 227.572 258.921 229.184C258.921 230.796 263.673 232.102 269.536 232.102Z" fill="#232335"/>
<path d="M289.331 253.098V299.41C289.331 310.544 272.93 319.525 252.698 319.525C232.466 319.525 216.065 310.521 216.065 299.41V253.098H289.331Z" fill="white" stroke="#232335" stroke-width="6" stroke-linecap="round" stroke-linejoin="round"/>
<path d="M252.698 266.218C272.93 266.218 289.331 259.337 289.331 250.848C289.331 242.36 272.93 235.479 252.698 235.479C232.467 235.479 216.065 242.36 216.065 250.848C216.065 259.337 232.467 266.218 252.698 266.218Z" fill="white" stroke="#232335" stroke-width="6" stroke-linecap="round" stroke-linejoin="round"/>
<path d="M260.007 266.213V268.996" stroke="#232335" stroke-width="6" stroke-linecap="round" stroke-linejoin="round"/>
<path d="M260.007 274.053V311.973" stroke="#232335" stroke-width="6" stroke-linecap="round" stroke-linejoin="round" stroke-dasharray="10.9 10.9"/>
<path d="M260.007 314.501V317.285" stroke="#232335" stroke-width="6" stroke-linecap="round" stroke-linejoin="round"/>
<path d="M252.698 253.098C258.561 253.098 263.313 251.792 263.313 250.18C263.313 248.569 258.561 247.262 252.698 247.262C246.836 247.262 242.083 248.569 242.083 250.18C242.083 251.792 246.836 253.098 252.698 253.098Z" fill="#232335"/>
<path d="M150.794 177.981L145.413 179.823L152.906 201.674L158.287 199.832L150.794 177.981Z" fill="#51A9FF"/>
<path d="M162.361 190.301L143.52 196.749L151.013 218.6L169.854 212.152L162.361 190.301Z" fill="#51A9FF"/>
<path d="M173.28 200.182L142.856 210.797C137.183 212.776 134.19 218.975 136.171 224.642L173.168 330.482C175.149 336.149 181.353 339.139 187.026 337.16L217.45 326.545C223.123 324.566 226.116 318.368 224.135 312.7L187.139 206.86C185.158 201.193 178.953 198.203 173.28 200.182Z" fill="#8FC9CD"/>
<mask id="mask0_3193_1495" style="mask-type:luminance" maskUnits="userSpaceOnUse" x="135" y="199" width="90" height="139">
<path d="M173.28 200.182L142.856 210.797C137.183 212.776 134.19 218.975 136.171 224.642L173.168 330.482C175.149 336.149 181.353 339.139 187.026 337.16L217.45 326.545C223.123 324.566 226.116 318.368 224.135 312.7L187.139 206.86C185.158 201.193 178.953 198.203 173.28 200.182Z" fill="white"/>
</mask>
<g mask="url(#mask0_3193_1495)">
<path d="M204.8 242.554L197.742 222.355L184.782 226.851C182.102 224.381 178.792 222.698 175.216 221.986C171.64 221.275 167.937 221.563 164.514 222.818C161.091 224.074 158.081 226.248 155.816 229.103C153.551 231.957 152.117 235.38 151.674 238.996L137.724 244.479L144.518 263.912L160.408 257.881C162.959 259.57 165.866 260.645 168.903 261.024C171.939 261.402 175.022 261.073 177.91 260.063C180.798 259.052 183.412 257.388 185.549 255.199C187.685 253.01 189.285 250.358 190.224 247.448L204.8 242.554Z" fill="white"/>
</g>
<path d="M157.743 169.405C157.743 169.405 158.75 176.985 147.179 180.284C135.728 183.531 134.149 175.088 136.638 173.905C138.365 173.084 148.911 167.828 155.212 164.678C158.49 163.037 162.052 162.042 165.706 161.746C166.837 161.635 167.973 161.58 169.11 161.583C172.727 161.764 172.737 166 168.576 166.223C163.789 166.441 157.743 169.405 157.743 169.405Z" fill="#51A9FF"/>
<path d="M184.782 243.171L181.276 232.914L175.383 234.927L173.368 229.036L163.101 232.538L165.117 238.43L159.219 240.443L162.725 250.7L168.622 248.687L170.633 254.578L180.9 251.076L178.889 245.184L184.782 243.171Z" fill="#51A9FF"/>
<path d="M248.356 265.851C245.932 264.742 225.069 268.477 213.632 270.37C213.632 270.37 230.005 266.023 236.85 263.082C243.694 260.14 242.013 254.731 238.368 254.416C236.358 254.253 219.218 258.688 202.483 265.155C203.802 261.398 207.753 248.738 201.317 247.592C193.93 246.274 193.976 262.808 178.903 276.521C175.346 278.841 172.509 281.206 170.805 283.577L135.56 294.279L152.342 350.76L181.796 309.426C191.877 314.682 218.187 302.115 218.187 302.115C240.323 300.449 241.284 293.644 237.444 292.614C233.604 291.584 214.965 291.978 214.965 291.978C214.965 291.978 217.333 289.998 233.075 289.752C248.816 289.506 247.428 280.538 244.191 279.736C240.955 278.933 214.166 281.517 214.166 281.517L242.761 275.718C250.539 274.656 252.053 267.535 248.356 265.851Z" fill="#324AC6"/>
<path d="M353.923 278.613L304.005 290.345C303.229 290.104 301.98 289.664 301.98 289.664C280.648 288.921 269.967 275.217 264.906 280.988C261.386 285.001 268.087 290.693 272.503 293.792C256.757 298.264 241.647 304.787 240.04 306.09C237.189 308.382 238.842 313.815 246.16 312.418C253.478 311.022 269.48 305.46 269.48 305.46C258.939 310.293 239.571 318.885 238.182 321.154C236.07 324.624 241.317 329.671 248.398 326.178L275.331 314.965C275.331 314.965 251.672 327.825 249.443 330.302C247.214 332.779 251.11 340.972 264.265 332.375C277.42 323.779 280.518 324.09 280.518 324.09C280.518 324.09 264.962 335.368 262.361 338.369C259.761 341.371 270.669 349.039 284.274 335.887C284.274 335.887 309.437 326.748 312.739 321.506L365.917 338.327L353.923 278.613Z" fill="#324AC6"/>
<path d="M3 363H530" stroke="#232335" stroke-width="6" stroke-linecap="round" stroke-linejoin="round"/>
</svg>
