<svg width="1249" height="379" viewBox="0 0 1249 379" fill="none" xmlns="http://www.w3.org/2000/svg">
<g clip-path="url(#clip0_3193_1640)">
<path d="M398.273 374.492C395.922 347.032 376.78 307.582 372.498 269.769C401.346 242.775 370.162 164.159 352.966 163.31C335.627 160.124 320.602 156.939 292.866 155.97C258.617 154.775 227.635 158.892 216.164 160.545C173.29 181.769 149.964 306.297 178.218 330.857C183.567 335.507 192.184 340.165 202.739 344.508C201.837 355.026 201.237 365.544 201.237 375.311L398.273 374.492Z" fill="#232335"/>
<path d="M260.961 160.244L267.158 122.95L313.736 140.433L315.524 166.938C309.228 213.218 259.593 168.449 260.961 160.244Z" fill="white" stroke="#232335" stroke-width="6" stroke-linecap="round" stroke-linejoin="round"/>
<path d="M325.703 52.8238C325.703 52.8238 289.981 75.2125 307.26 96.3541C307.26 96.3541 314.96 105.189 321.338 103.461C321.338 103.461 316.681 95.9484 322.09 92.1017C322.09 92.1017 323.705 114.558 342.103 110.02C342.103 110.02 335.342 100.065 337.197 88.1574C340.991 63.3045 335.282 48.3686 325.703 52.8238Z" fill="#232335"/>
<path d="M251.713 88.2175C251.713 88.2175 244.906 44.3792 289.23 36.8136C293.362 36.1074 321.699 31.8626 326.86 55.3632C330.308 71.0653 330.962 88.1048 330.541 101.343C330.541 101.418 330.113 126.338 320.264 140.185C310.415 154.031 288.591 152.739 277.052 145.917C265.513 139.095 263.402 135.542 260.172 127.45C256.941 119.359 251.75 88.2926 251.75 88.2926L251.713 88.2175Z" fill="white" stroke="#232335" stroke-width="6" stroke-linecap="round" stroke-linejoin="round"/>
<path d="M312.301 91.6434L316.403 111.853H308.838" stroke="#232335" stroke-width="6" stroke-linecap="round" stroke-linejoin="round"/>
<path d="M323.816 89.9526C323.835 88.044 322.851 86.487 321.619 86.4749C320.386 86.4629 319.372 88.0003 319.354 89.9089C319.335 91.8175 320.319 93.3745 321.551 93.3866C322.783 93.3986 323.797 91.8611 323.816 89.9526Z" fill="#232335"/>
<path d="M302.448 90.5886C302.824 88.7172 302.149 87.0037 300.94 86.7613C299.732 86.519 298.448 87.8397 298.073 89.7111C297.698 91.5825 298.373 93.296 299.581 93.5384C300.79 93.7807 302.073 92.46 302.448 90.5886Z" fill="#232335"/>
<path d="M288.531 76.7301C289.613 75.2524 291.073 74.0927 292.756 73.3724C294.44 72.652 296.286 72.3975 298.102 72.6355" stroke="#232335" stroke-width="6" stroke-linecap="round" stroke-linejoin="round"/>
<path d="M317.605 70.9451C317.605 70.9451 325.29 67.4967 328.67 72.1247" stroke="#232335" stroke-width="6" stroke-linecap="round" stroke-linejoin="round"/>
<path d="M286.496 55.5435C286.496 55.5435 303.248 114.28 264.184 120.32C264.184 120.32 241.428 124.34 236.23 116.301C236.23 116.301 252.719 107.541 250.646 98.1271C250.646 98.1271 232.105 118.457 215.969 103.867C215.969 103.867 242.901 99.3592 240.512 75.1373C238.799 57.7598 280.493 41.4491 286.496 55.5435Z" fill="#232335"/>
<path d="M215.097 63.8153L238.897 60.2166C241.361 44.1914 250.691 21.2467 283.536 17.4376C334.853 11.4723 336.386 61.4186 336.386 61.4186L217.433 79.1493C216.427 79.3017 215.4 79.2543 214.411 79.0099C213.423 78.7654 212.492 78.3286 211.672 77.7245C210.853 77.1203 210.16 76.3606 209.634 75.4887C209.108 74.6169 208.759 73.6499 208.606 72.643C208.454 71.6362 208.501 70.6092 208.746 69.6207C208.99 68.6321 209.427 67.7014 210.031 66.8817C210.635 66.0619 211.395 65.3692 212.267 64.8431C213.138 64.317 214.105 63.9677 215.112 63.8153H215.097Z" fill="#0078E8"/>
<path d="M296.142 117C296.142 117 299.387 124.603 310.107 122.912" stroke="#232335" stroke-width="6" stroke-linecap="round" stroke-linejoin="round"/>
<path d="M412.352 209.116V183.362C412.352 178.327 410.352 173.498 406.792 169.937C403.231 166.377 398.403 164.377 393.368 164.377H385.961C386.039 170.629 384.876 176.835 382.538 182.634C380.2 188.434 376.734 193.711 372.341 198.161C367.947 202.61 362.714 206.143 356.945 208.554C351.176 210.965 344.986 212.206 338.733 212.206C332.481 212.206 326.29 210.965 320.521 208.554C314.752 206.143 309.519 202.61 305.126 198.161C300.733 193.711 297.267 188.434 294.929 182.634C292.591 176.835 291.427 170.629 291.506 164.377H284.099C279.065 164.379 274.237 166.379 270.677 169.939C267.118 173.499 265.117 178.327 265.115 183.362V320.624C265.121 325.655 267.124 330.479 270.683 334.034C274.243 337.59 279.068 339.587 284.099 339.587H393.368C398.403 339.587 403.231 337.587 406.792 334.026C410.352 330.466 412.352 325.637 412.352 320.602V303.577C424.774 303.42 436.634 298.375 445.363 289.535C454.092 280.695 458.987 268.771 458.987 256.347C458.987 243.923 454.092 231.999 445.363 223.159C436.634 214.318 424.774 209.273 412.352 209.116Z" fill="#93C9FE"/>
<path d="M399.378 333.171C399.273 332.848 382.79 313.637 382.234 314.043C381.678 314.448 359.096 324.561 358.6 325.35C358.104 326.139 357.24 330.677 359.517 334.914C361.793 339.151 364.295 348.813 374.504 349.572C384.713 350.33 399.378 333.171 399.378 333.171Z" fill="white"/>
<path d="M369.238 318.475C369.238 318.475 367.315 305.2 370.365 302.022C373.415 298.844 390.648 328.317 396.576 330.361" fill="white"/>
<path d="M369.238 318.475C369.238 318.475 367.315 305.2 370.365 302.022C373.415 298.844 390.648 328.317 396.576 330.361" stroke="#232335" stroke-width="6" stroke-linecap="round" stroke-linejoin="round"/>
<path d="M360.088 320.804C360.088 320.804 355.986 311.113 361.417 306.425C366.849 301.736 380.244 328.257 386.126 331.691" fill="white"/>
<path d="M360.088 320.804C360.088 320.804 355.986 311.113 361.417 306.425C366.849 301.736 380.244 328.257 386.126 331.691" stroke="#232335" stroke-width="6" stroke-linecap="round" stroke-linejoin="round"/>
<path d="M357.654 331.931C357.654 331.931 350.712 314.569 355.55 310.895C360.388 307.221 368.231 329.737 377.637 334.936" fill="white"/>
<path d="M357.654 331.931C357.654 331.931 350.712 314.569 355.55 310.895C360.388 307.221 368.231 329.737 377.637 334.936" stroke="#232335" stroke-width="6" stroke-linecap="round" stroke-linejoin="round"/>
<path d="M395.351 329.7C396.126 325.958 395.74 322.068 394.247 318.551C392.541 314.531 390.49 309.062 390.31 305.568C389.972 299.483 399.926 302.338 400.339 306.117C400.753 309.896 402.646 309.678 407.003 313.524C411.36 317.371 410.564 332.713 410.564 332.713C410.564 332.713 414.395 340.579 402.045 349.992C389.694 359.406 376.502 352.081 376.502 352.081C376.502 352.081 352.635 343.261 352.643 326.064C352.65 308.866 358.976 333.937 370.921 340.992" fill="white"/>
<path d="M395.351 329.7C396.126 325.958 395.74 322.068 394.247 318.551C392.541 314.531 390.49 309.062 390.31 305.568C389.972 299.483 399.926 302.338 400.339 306.117C400.753 309.896 402.646 309.678 407.003 313.524C411.36 317.371 410.564 332.713 410.564 332.713C410.564 332.713 414.395 340.579 402.045 349.992C389.694 359.406 376.502 352.081 376.502 352.081C376.502 352.081 352.635 343.261 352.643 326.064C352.65 308.866 358.976 333.937 370.921 340.992" stroke="#232335" stroke-width="6" stroke-linecap="round" stroke-linejoin="round"/>
<path d="M266.219 333.171C266.332 332.848 282.807 313.637 283.363 314.043C283.919 314.448 306.501 324.561 306.997 325.35C307.493 326.139 308.364 330.677 306.081 334.914C303.797 339.151 301.303 348.813 291.093 349.572C280.884 350.33 266.219 333.171 266.219 333.171Z" fill="white"/>
<path d="M296.367 318.475C296.367 318.475 298.283 305.2 295.24 302.022C292.198 298.844 274.956 328.317 269.029 330.361" fill="white"/>
<path d="M296.367 318.475C296.367 318.475 298.283 305.2 295.24 302.022C292.198 298.844 274.956 328.317 269.029 330.361" stroke="#232335" stroke-width="6" stroke-linecap="round" stroke-linejoin="round"/>
<path d="M305.51 320.804C305.51 320.804 309.619 311.113 304.18 306.425C298.741 301.736 285.354 328.25 279.464 331.683" fill="white"/>
<path d="M305.51 320.804C305.51 320.804 309.619 311.113 304.18 306.425C298.741 301.736 285.354 328.25 279.464 331.683" stroke="#232335" stroke-width="6" stroke-linecap="round" stroke-linejoin="round"/>
<path d="M307.944 331.931C307.944 331.931 314.885 314.569 310.055 310.895C305.224 307.221 297.366 329.737 287.968 334.936" fill="white"/>
<path d="M307.944 331.931C307.944 331.931 314.885 314.569 310.055 310.895C305.224 307.221 297.366 329.737 287.968 334.936" stroke="#232335" stroke-width="6" stroke-linecap="round" stroke-linejoin="round"/>
<path d="M270.246 329.7C269.475 325.957 269.86 322.069 271.35 318.551C273.056 314.531 275.107 309.062 275.287 305.568C275.625 299.483 265.679 302.338 265.258 306.117C264.837 309.896 262.951 309.678 258.594 313.524C254.237 317.371 255.033 332.713 255.033 332.713C255.033 332.713 251.202 340.579 263.552 349.992C275.903 359.406 289.095 352.081 289.095 352.081C289.095 352.081 312.969 343.261 312.962 326.064C312.954 308.866 306.621 333.937 294.677 340.992" fill="white"/>
<path d="M270.246 329.7C269.475 325.957 269.86 322.069 271.35 318.551C273.056 314.531 275.107 309.062 275.287 305.568C275.625 299.483 265.679 302.338 265.258 306.117C264.837 309.896 262.951 309.678 258.594 313.524C254.237 317.371 255.033 332.713 255.033 332.713C255.033 332.713 251.202 340.579 263.552 349.992C275.903 359.406 289.095 352.081 289.095 352.081C289.095 352.081 312.969 343.261 312.962 326.064C312.954 308.866 306.621 333.937 294.677 340.992" stroke="#232335" stroke-width="6" stroke-linecap="round" stroke-linejoin="round"/>
<path d="M664.756 160.425L614.557 152.514L609.163 135.459C618.531 129.494 650.121 132.334 674.717 141.417L664.756 160.462" fill="#232335"/>
<path d="M747.077 255.351L709.725 168.043C707.329 162.634 702.295 158.629 696.203 157.014C693.057 155.556 689.681 154.659 686.226 154.362L673.56 153.303L674.695 141.379C674.695 141.379 672.929 145.669 658.994 148.284C640.152 151.822 609.141 135.422 609.141 135.422V153.904L589.931 153.355C581.668 153.115 565.629 152.461 556.343 170.853L511.186 284.239C503.185 298.882 507.324 320.557 520.621 331.721L546.99 346.349L544.541 375.649L744.095 374.966L742.983 348.963C803.601 311.316 747.077 255.351 747.077 255.351Z" fill="#215DD1"/>
<path d="M583.794 288.07C583.794 288.07 563.991 263.578 533.761 285.208" stroke="white" stroke-width="6" stroke-linecap="round" stroke-linejoin="round"/>
<path d="M583.794 283.766C583.471 283.112 571.774 256.591 538.907 273.676" stroke="white" stroke-width="6" stroke-linecap="round" stroke-linejoin="round"/>
<path d="M700.365 288.07C700.365 288.07 718.395 255.945 752.847 278.161" stroke="white" stroke-width="6" stroke-linecap="round" stroke-linejoin="round"/>
<path d="M698.118 281.977C698.118 281.977 707.749 257.087 739.662 262.909" stroke="white" stroke-width="6" stroke-linecap="round" stroke-linejoin="round"/>
<path d="M615.97 151.83V101.373L660.263 128.066L659.227 155.173L615.97 151.83Z" fill="white" stroke="#232335" stroke-width="6" stroke-linecap="round" stroke-linejoin="round"/>
<path d="M674.62 47.2792C656.59 34.7926 640.333 30.2172 614.895 62.8236L611.417 84.2882C600.727 81.0651 595.093 86.2791 597.421 95.6027C599.923 105.648 605.745 110.163 615.451 107.548C620.087 118.067 628.861 130.17 645.171 133.701C670.713 139.238 676.61 123.431 679.458 117.218C682.305 111.004 692.649 59.7733 674.62 47.2792Z" fill="white" stroke="#232335" stroke-width="6" stroke-linecap="round" stroke-linejoin="round"/>
<path d="M666.115 86.6022L668.324 105.82L661.142 105.64" stroke="#232335" stroke-width="6" stroke-linecap="round" stroke-linejoin="round"/>
<path d="M674.462 89.8628C675.644 89.8628 676.603 88.3795 676.603 86.5496C676.603 84.7198 675.644 83.2364 674.462 83.2364C673.279 83.2364 672.321 84.7198 672.321 86.5496C672.321 88.3795 673.279 89.8628 674.462 89.8628Z" fill="#232335"/>
<path d="M653.825 89.5022C655.007 89.5022 655.966 88.0189 655.966 86.189C655.966 84.3592 655.007 82.8758 653.825 82.8758C652.642 82.8758 651.684 84.3592 651.684 86.189C651.684 88.0189 652.642 89.5022 653.825 89.5022Z" fill="#232335"/>
<path d="M672.892 67.2488C672.892 67.2488 678.841 65.7011 680.329 70.562" stroke="#232335" stroke-width="6" stroke-linecap="round" stroke-linejoin="round"/>
<path d="M652.014 109.757C652.014 109.757 658.903 112.259 664.733 111.26C664.733 111.26 662.547 121.23 656.928 120.02C651.308 118.81 652.014 109.757 652.014 109.757Z" fill="#232335"/>
<path d="M580.556 24.2294C569.099 1.80318 550.664 -0.157713 529.388 4.0721C508.113 8.30191 496.236 36.9038 495.492 39.5559C486.815 70.4869 498.302 103.552 523.814 123.07C526.646 125.226 529.479 127.42 532.191 129.539C547.216 141.282 513.973 151.327 513.973 151.327C577.596 156.428 563.72 92.7253 562.368 87.1056C582.727 79.3297 591.231 45.078 580.556 24.2294Z" fill="#232335"/>
<path d="M572.271 41.2542C567.076 39.2285 561.223 41.7967 559.198 46.9905C557.173 52.1843 559.743 58.0369 564.939 60.0626L601.783 74.4286C606.978 76.4543 612.832 73.8861 614.856 68.6923C616.881 63.4985 614.311 57.6459 609.116 55.6202L572.271 41.2542Z" fill="#0078E8"/>
<path d="M692.492 69.2097C692.266 53.5977 688.518 39.9091 679.09 30.8935C677.601 29.1768 675.802 27.757 673.786 26.7088C666.093 21.7276 655.651 19.0605 641.798 19.5564C641.503 19.5751 641.214 19.6517 640.949 19.7818C638.779 19.9799 636.622 20.301 634.488 20.7434C633.318 20.9279 632.162 21.1992 631.032 21.5549C627.211 22.5893 623.488 23.9569 619.906 25.6419C588.835 39.0075 576.604 63.1092 590.48 96.3992C597.647 113.559 606.947 119.081 615.94 119.096V108.705C615.188 107.053 613.904 107.691 613.904 107.691C604.228 110.306 599.901 105.648 597.376 95.6028C596.159 90.7494 597.113 87.0155 599.803 85.002L600.013 84.8442C600.118 84.7691 600.231 84.7015 600.344 84.6339L600.562 84.4986L600.93 84.3033L601.148 84.2056C601.282 84.1379 601.42 84.0777 601.561 84.0253L601.764 83.9502C601.914 83.8976 602.072 83.8375 602.229 83.7924H602.372C603.248 83.5436 604.151 83.4048 605.062 83.3792H605.129C605.355 83.3792 605.588 83.3792 605.828 83.3792H605.963C606.196 83.3792 606.436 83.3792 606.669 83.3792H606.827L607.578 83.4543H607.691C608.94 83.6261 610.174 83.8974 611.38 84.2657C612.206 84.5137 611.598 84.9043 612.491 85.2574L614.745 85.0997C615.496 85.0997 616.308 85.0245 617.134 84.9269C636.749 82.5678 667.22 68.5335 678.075 50.5024C685.738 59.7884 686.572 78.0976 685.167 93.5217C689.968 86.3246 692.518 77.8612 692.492 69.2097Z" fill="#232335"/>
<path d="M645.479 67.1661C646.559 65.7794 647.992 64.7084 649.628 64.0648C651.264 63.4212 653.043 63.2286 654.779 63.5073" stroke="#FFFDFD" stroke-width="6" stroke-linecap="round" stroke-linejoin="round"/>
<path d="M705.744 205.856L701.018 180.777C700.567 178.346 699.64 176.028 698.291 173.956C696.942 171.883 695.196 170.098 693.156 168.702C691.115 167.306 688.818 166.327 686.398 165.82C683.978 165.314 681.481 165.291 679.052 165.752L671.84 167.111C670.74 161.036 668.45 155.237 665.1 150.051C661.749 144.864 657.406 140.392 652.32 136.892C647.234 133.392 641.505 130.933 635.464 129.656C629.424 128.38 623.19 128.312 617.123 129.456C611.056 130.6 605.275 132.933 600.113 136.322C594.952 139.71 590.512 144.086 587.049 149.198C583.587 154.31 581.17 160.057 579.938 166.108C578.706 172.158 578.684 178.392 579.872 184.451L572.66 185.811C570.229 186.262 567.911 187.189 565.839 188.539C563.767 189.888 561.982 191.633 560.586 193.674C559.19 195.715 558.21 198.012 557.704 200.433C557.198 202.853 557.174 205.35 557.635 207.779L562.361 232.857C574.515 230.658 587.045 233.353 597.22 240.356C607.395 247.358 614.39 258.099 616.678 270.238C618.966 282.376 616.363 294.927 609.436 305.154C602.509 315.381 591.82 322.454 579.699 324.831L582.832 341.428C583.283 343.859 584.21 346.177 585.559 348.249C586.909 350.322 588.654 352.107 590.695 353.503C592.736 354.899 595.032 355.878 597.452 356.385C599.873 356.891 602.369 356.915 604.799 356.454L711.19 336.394C713.621 335.943 715.939 335.016 718.011 333.666C720.084 332.317 721.869 330.572 723.265 328.531C724.661 326.49 725.64 324.193 726.146 321.773C726.653 319.352 726.676 316.855 726.215 314.426L723.09 297.822C717.052 298.961 710.848 298.9 704.834 297.641C698.819 296.383 693.112 293.952 688.037 290.487C682.962 287.023 678.619 282.593 675.256 277.45C671.893 272.307 669.576 266.551 668.437 260.513C667.298 254.474 667.359 248.27 668.618 242.256C669.876 236.241 672.307 230.533 675.771 225.457C679.235 220.382 683.665 216.039 688.808 212.675C693.951 209.312 699.705 206.995 705.744 205.856Z" fill="#93C9FE"/>
<path d="M604.964 338.881C615.113 346.086 616.435 340.624 613.46 337.13C609.704 332.765 592.057 318.844 592.057 318.844C592.057 318.844 606.233 323.066 609.704 315.087C613.175 307.108 609.381 305.538 604.04 308.25C598.698 310.962 582.103 301.181 582.103 301.181L576.664 296.184C576.664 296.184 558.409 290.309 553.714 310.504C552.651 313.821 552.457 317.354 553.149 320.767C553.841 324.18 555.396 327.359 557.665 330C559.836 332.457 567.356 342.247 591.193 354.155C591.193 354.155 602.372 358.309 594.003 350.233C591.927 348.241 589.721 346.389 587.4 344.688" fill="white"/>
<path d="M604.964 338.881C615.113 346.086 616.435 340.624 613.46 337.13C609.704 332.765 592.057 318.844 592.057 318.844C592.057 318.844 606.233 323.066 609.704 315.087C613.175 307.108 609.381 305.538 604.04 308.25C598.698 310.962 582.103 301.181 582.103 301.181L576.664 296.184C576.664 296.184 558.409 290.309 553.714 310.504C552.651 313.821 552.457 317.354 553.149 320.767C553.841 324.18 555.396 327.359 557.665 330C559.836 332.457 567.356 342.247 591.193 354.155C591.193 354.155 602.372 358.309 594.003 350.233C591.927 348.241 589.721 346.389 587.4 344.688" stroke="#232335" stroke-width="6" stroke-linecap="round" stroke-linejoin="round"/>
<path d="M589.097 328.032C592.651 330.669 607.495 339.008 611.041 344.328C614.587 349.647 610.147 351.42 597.459 342.246" fill="white"/>
<path d="M589.097 328.032C592.651 330.669 607.495 339.008 611.041 344.328C614.587 349.647 610.147 351.42 597.459 342.246" stroke="#232335" stroke-width="6" stroke-linecap="round" stroke-linejoin="round"/>
<path d="M583.606 333.742C583.997 334.388 608.344 347.566 606.767 351.022C605.467 353.847 601.996 354.027 588.534 345.462L577.724 337.949" fill="white"/>
<path d="M583.606 333.742C583.997 334.388 608.344 347.566 606.767 351.022C605.467 353.847 601.996 354.027 588.534 345.462L577.724 337.949" stroke="#232335" stroke-width="6" stroke-linecap="round" stroke-linejoin="round"/>
<path d="M693.844 316.342C682.012 320.188 682.38 314.584 686.256 312.135C691.147 309.077 712.182 301.075 712.182 301.075C712.182 301.075 697.39 300.865 696.466 292.188C695.542 283.51 699.629 283.172 703.918 287.349C708.208 291.526 726.966 287.161 726.966 287.161L733.653 284.013C733.653 284.013 752.824 283.848 751.277 304.524C751.301 308.008 750.431 311.44 748.752 314.493C747.073 317.545 744.639 320.117 741.683 321.962C738.881 323.659 728.784 330.752 702.476 334.997C702.476 334.997 690.561 335.628 700.973 330.414C703.551 329.134 706.212 328.027 708.936 327.1" fill="white"/>
<path d="M693.844 316.342C682.012 320.188 682.38 314.584 686.256 312.135C691.147 309.077 712.182 301.075 712.182 301.075C712.182 301.075 697.39 300.865 696.466 292.188C695.542 283.51 699.629 283.172 703.918 287.349C708.208 291.526 726.966 287.161 726.966 287.161L733.653 284.013C733.653 284.013 752.824 283.848 751.277 304.524C751.301 308.008 750.431 311.44 748.752 314.493C747.073 317.545 744.639 320.117 741.683 321.962C738.881 323.659 728.784 330.752 702.476 334.997C702.476 334.997 690.561 335.628 700.973 330.414C703.551 329.134 706.212 328.027 708.936 327.1" stroke="#232335" stroke-width="6" stroke-linecap="round" stroke-linejoin="round"/>
<path d="M712.227 310.722C708.05 312.18 691.387 315.703 686.422 319.738C681.456 323.772 685.16 326.77 700.004 321.811" fill="white"/>
<path d="M712.227 310.722C708.05 312.18 691.387 315.703 686.422 319.738C681.456 323.772 685.16 326.77 700.004 321.811" stroke="#232335" stroke-width="6" stroke-linecap="round" stroke-linejoin="round"/>
<path d="M715.765 317.799C715.195 318.295 688.029 323.607 688.503 327.371C688.893 330.451 692.169 331.623 707.562 327.506L720.138 323.532" fill="white"/>
<path d="M715.765 317.799C715.195 318.295 688.029 323.607 688.503 327.371C688.893 330.451 692.169 331.623 707.562 327.506L720.138 323.532" stroke="#232335" stroke-width="6" stroke-linecap="round" stroke-linejoin="round"/>
<path d="M1109.46 217.125C1109.66 176.089 1049.81 161.98 1049.81 161.98C1054.32 141.59 1052.26 91.2377 966.967 106.639C923.282 114.197 910.924 137.135 920.21 155.729C903.216 164.159 860.801 224.961 860.801 224.961L861.597 277.222C858.363 276.547 855.068 276.199 851.764 276.185C838.868 276.133 826.48 281.205 817.323 290.285C808.167 299.365 802.99 311.71 802.933 324.606C802.82 351.465 826.777 375.491 853.634 375.604C856.813 375.62 859.985 375.29 863.092 374.62V375.612L1094.98 375.011C1094.98 375.011 1096.08 328.535 1090.54 279.205C1100.25 256.944 1109.4 232.046 1109.46 217.125Z" fill="#0078E8"/>
<path d="M1012.23 136.977L1027.71 145.549C1027.71 145.549 987.446 162.934 980.174 243.218C975.449 295.381 979.205 376.739 979.205 376.739L952.596 376.325C952.596 376.325 959.77 215.014 948.171 188.764C936.572 162.513 949.365 160.861 955.225 155.406C961.085 149.952 1012.23 136.977 1012.23 136.977Z" fill="white"/>
<path d="M843.094 358.843C864.408 358.843 881.686 341.563 881.686 320.248C881.686 298.934 864.408 281.654 843.094 281.654C821.781 281.654 804.503 298.934 804.503 320.248C804.503 341.563 821.781 358.843 843.094 358.843Z" fill="#232335"/>
<path d="M983.893 357.092C1002.45 357.092 1017.5 342.046 1017.5 323.487C1017.5 304.927 1002.45 289.881 983.893 289.881C965.334 289.881 950.29 304.927 950.29 323.487C950.29 342.046 965.334 357.092 983.893 357.092Z" fill="#232335"/>
<path d="M1011.46 209.462C1018.14 206.419 1039.42 182.085 1049.77 161.822C1058.41 161.695 1070.89 167.607 1076.31 171.807C1051.75 210.642 1011.42 209.522 1011.46 209.462Z" fill="#232335"/>
<path d="M1006.78 279.205C1006.78 279.205 1036.44 266.809 1058.51 301.406" stroke="#232335" stroke-width="6" stroke-linecap="round" stroke-linejoin="round"/>
<path d="M1004.64 279.618C1004.64 279.618 1028.03 255.892 1059.92 285.726" stroke="#232335" stroke-width="6" stroke-linecap="round" stroke-linejoin="round"/>
<path d="M1089.49 281.647C1089.49 281.647 1060.86 383.823 985.756 362.314C985.756 362.314 972.414 358.985 966.043 350.293" stroke="#232335" stroke-width="6" stroke-linecap="round" stroke-linejoin="round"/>
<path d="M996.228 292.255C1001.99 284.728 1007 276.653 1011.18 268.146C1018.57 253.398 1028.12 229.702 1028.12 229.702" stroke="#232335" stroke-width="6" stroke-linecap="round" stroke-linejoin="round"/>
<path d="M1013.43 104.43L1012.28 140.035C1012.34 142.373 1011.87 144.694 1010.9 146.823C1009.93 148.952 1008.49 150.834 1006.69 152.326C999.797 158.066 987.161 169.388 971.287 187.306C971.287 187.306 951.484 166.217 948.141 133.288L1013.43 104.43Z" fill="white" stroke="#232335" stroke-width="6" stroke-linecap="round" stroke-linejoin="round"/>
<path d="M1018.26 86.1138C1018.26 86.1138 1034.04 86.4895 1031.12 100.561C1028.21 114.633 1010.89 106.414 1010.89 106.414L1013.3 86.3993L1018.26 86.1138Z" fill="white" stroke="#232335" stroke-width="6" stroke-linecap="round" stroke-linejoin="round"/>
<path d="M973.616 41.5168C969.469 41.1562 941.057 39.2629 937.849 62.9438C934.641 86.6248 937.849 112.83 940.456 124.798C943.063 136.766 997.46 131.462 1000.56 130.41C1003.65 129.359 1007.32 125.76 1007.32 125.76L1014.93 89.4046C1014.93 89.4046 1018.16 45.4085 973.616 41.5168Z" fill="white" stroke="#232335" stroke-width="6" stroke-linecap="round" stroke-linejoin="round"/>
<path d="M1009.68 89.0514C1007.01 91.6509 999.804 106.684 998.031 113.701C998.031 113.701 980.392 107.691 955.09 107.255C955.09 107.255 941.29 107.473 935.783 109.066C935.783 109.066 936.865 133.941 947.998 146.864C959.132 159.786 982.796 156.285 993.929 148.592C1005.06 140.898 1006.9 137.21 1009.51 128.938C1012.12 120.666 1019.03 89.8177 1019.03 89.8177L1009.68 89.0514Z" fill="#8B96B4"/>
<path d="M1016.86 94.4007C1016.86 94.4007 1024.29 82.9884 1027.2 71.1104C1029.93 59.9386 1024.78 48.1958 1014.43 43.1471C1005.79 38.9098 999.353 42.1704 999.353 42.1704C999.353 42.1704 1008.61 26.5584 994.846 12.6744C992.446 10.2567 989.579 8.35254 986.42 7.07774C983.261 5.80295 979.876 5.18419 976.47 5.2591C971.76 5.28282 967.159 6.68096 963.232 9.28202C959.304 11.8831 956.221 15.574 954.361 19.9019C954.361 19.9019 936.467 -13.313 899.415 6.13812C895.659 8.09901 891.452 13.5985 889.423 17.3024C877.118 39.7512 917.22 66.5801 938.187 68.7739C961.183 71.193 974.66 67.4366 982.097 61.8394C976.568 65.1 982.631 99.547 1016.86 94.4007Z" fill="#232335"/>
<path d="M971.993 124.543C971.993 124.543 968.417 132.476 960.213 129.096" stroke="#232335" stroke-width="8" stroke-linecap="round" stroke-linejoin="round"/>
<path d="M955.195 97.6838L950.583 116.399L960.266 117.413" stroke="#232335" stroke-width="8" stroke-linecap="round" stroke-linejoin="round"/>
<path d="M948.128 94.8481C948.136 92.9519 947.15 91.4104 945.927 91.4051C944.703 91.3997 943.704 92.9325 943.695 94.8288C943.687 96.725 944.673 98.2665 945.897 98.2719C947.121 98.2772 948.119 96.7443 948.128 94.8481Z" fill="#232335"/>
<path d="M969.496 94.5616C969.505 92.6654 968.519 91.1239 967.295 91.1186C966.071 91.1133 965.072 92.6461 965.064 94.5423C965.056 96.4385 966.041 97.98 967.265 97.9853C968.489 97.9907 969.488 96.4578 969.496 94.5616Z" fill="#232335"/>
<path d="M978.266 81.8916C977.153 80.4507 975.673 79.335 973.982 78.661C972.29 77.9871 970.449 77.7795 968.65 78.0599" stroke="#232335" stroke-width="8" stroke-linecap="round" stroke-linejoin="round"/>
<path d="M948.269 77.6167C948.269 77.6167 942.123 75.9863 940.561 81.0125" stroke="#232335" stroke-width="8" stroke-linecap="round" stroke-linejoin="round"/>
<path d="M965.555 153.535L855.783 153.062C853.278 153.051 850.795 153.534 848.477 154.482C846.159 155.431 844.05 156.827 842.271 158.591C840.492 160.354 839.078 162.451 838.109 164.761C837.141 167.071 836.637 169.55 836.626 172.055L836.513 197.93C824.027 198.024 812.081 203.037 803.265 211.882C794.45 220.726 789.477 232.69 789.424 245.177C789.37 257.665 794.241 269.67 802.98 278.59C811.719 287.51 823.622 292.625 836.107 292.826L836.032 309.948C836.018 315.001 838.011 319.854 841.572 323.439C845.133 327.024 849.971 329.049 855.024 329.069L964.796 329.542C967.3 329.553 969.781 329.07 972.099 328.122C974.416 327.174 976.524 325.779 978.302 324.016C980.081 322.253 981.494 320.157 982.462 317.847C983.431 315.538 983.934 313.061 983.945 310.557L984.539 172.663C984.555 167.61 982.564 162.757 979.005 159.171C975.445 155.584 970.608 153.557 965.555 153.535Z" fill="#93C9FE"/>
<path d="M828.325 319.542C828.43 319.212 844.912 299.963 845.468 300.414C846.024 300.865 868.599 310.932 869.095 311.721C869.591 312.51 870.462 317.04 868.186 321.278C865.91 325.515 863.408 335.184 853.161 335.943C842.914 336.702 828.325 319.542 828.325 319.542Z" fill="white"/>
<path d="M858.465 304.839C858.465 304.839 860.388 291.571 857.323 288.424C854.258 285.276 837.039 314.719 831.112 316.763" fill="white"/>
<path d="M858.465 304.839C858.465 304.839 860.388 291.571 857.323 288.424C854.258 285.276 837.039 314.719 831.112 316.763" stroke="#232335" stroke-width="6" stroke-linecap="round" stroke-linejoin="round"/>
<path d="M867.607 307.168C867.607 307.168 871.717 297.469 866.285 292.781C860.854 288.093 847.459 314.614 841.577 318.047" fill="white"/>
<path d="M867.607 307.168C867.607 307.168 871.717 297.469 866.285 292.781C860.854 288.093 847.459 314.614 841.577 318.047" stroke="#232335" stroke-width="6" stroke-linecap="round" stroke-linejoin="round"/>
<path d="M870.049 318.303C870.049 318.303 876.99 300.94 872.152 297.266C867.314 293.592 859.471 316.116 850.066 321.308" fill="white"/>
<path d="M870.049 318.303C870.049 318.303 876.99 300.94 872.152 297.266C867.314 293.592 859.471 316.116 850.066 321.308" stroke="#232335" stroke-width="6" stroke-linecap="round" stroke-linejoin="round"/>
<path d="M832.381 316.071C831.607 312.329 831.992 308.44 833.486 304.922C835.191 300.895 837.242 295.433 837.422 291.932C837.76 285.847 827.806 288.709 827.393 292.481C826.98 296.252 825.087 296.049 820.722 299.888C816.357 303.727 817.169 319.077 817.169 319.077C817.169 319.077 813.337 326.943 825.688 336.356C838.038 345.77 851.23 338.445 851.23 338.445C851.23 338.445 875.127 329.632 875.12 312.435C875.112 295.238 868.787 320.309 856.842 327.371" fill="white"/>
<path d="M832.381 316.071C831.607 312.329 831.992 308.44 833.486 304.922C835.191 300.895 837.242 295.433 837.422 291.932C837.76 285.847 827.806 288.709 827.393 292.481C826.98 296.252 825.087 296.049 820.722 299.888C816.357 303.727 817.169 319.077 817.169 319.077C817.169 319.077 813.337 326.943 825.688 336.356C838.038 345.77 851.23 338.445 851.23 338.445C851.23 338.445 875.127 329.632 875.12 312.435C875.112 295.238 868.787 320.309 856.842 327.371" stroke="#232335" stroke-width="6" stroke-linecap="round" stroke-linejoin="round"/>
<path d="M982.481 321.744C982.375 321.413 965.9 302.165 965.337 302.616C964.774 303.066 942.206 313.134 941.71 313.885C941.215 314.636 940.343 319.204 942.619 323.442C944.896 327.679 947.405 337.348 957.644 338.107C967.884 338.866 982.481 321.744 982.481 321.744Z" fill="white"/>
<path d="M952.34 307.041C952.34 307.041 950.417 293.773 953.482 290.625C956.547 287.477 973.766 316.92 979.693 318.964" fill="white"/>
<path d="M952.34 307.041C952.34 307.041 950.417 293.773 953.482 290.625C956.547 287.477 973.766 316.92 979.693 318.964" stroke="#232335" stroke-width="6" stroke-linecap="round" stroke-linejoin="round"/>
<path d="M943.198 309.37C943.198 309.37 939.088 299.67 944.527 294.982C949.967 290.294 963.309 316.815 969.236 320.249" fill="white"/>
<path d="M943.198 309.37C943.198 309.37 939.088 299.67 944.527 294.982C949.967 290.294 963.309 316.815 969.236 320.249" stroke="#232335" stroke-width="6" stroke-linecap="round" stroke-linejoin="round"/>
<path d="M940.756 320.504C940.756 320.504 933.815 303.141 938.653 299.468C943.491 295.794 951.341 318.31 960.739 323.509" fill="white"/>
<path d="M940.756 320.504C940.756 320.504 933.815 303.141 938.653 299.468C943.491 295.794 951.341 318.31 960.739 323.509" stroke="#232335" stroke-width="6" stroke-linecap="round" stroke-linejoin="round"/>
<path d="M978.454 318.273C979.228 314.53 978.843 310.641 977.349 307.123C975.652 303.096 973.593 297.634 973.413 294.141C973.075 288.048 983.029 290.91 983.449 294.682C983.87 298.453 985.748 298.25 990.113 302.097C994.478 305.944 993.666 321.285 993.666 321.285C993.666 321.285 997.498 329.151 985.147 338.565C972.797 347.979 959.605 340.661 959.605 340.661C959.605 340.661 935.708 331.841 935.715 314.644C935.723 297.447 942.048 322.517 953.993 329.58" fill="white"/>
<path d="M978.454 318.273C979.228 314.53 978.843 310.641 977.349 307.123C975.652 303.096 973.593 297.634 973.413 294.141C973.075 288.048 983.029 290.91 983.449 294.682C983.87 298.453 985.748 298.25 990.113 302.097C994.478 305.944 993.666 321.285 993.666 321.285C993.666 321.285 997.498 329.151 985.147 338.565C972.797 347.979 959.605 340.661 959.605 340.661C959.605 340.661 935.708 331.841 935.715 314.644C935.723 297.447 942.048 322.517 953.993 329.58" stroke="#232335" stroke-width="6" stroke-linecap="round" stroke-linejoin="round"/>
<path d="M2.25378 376.746H1246.75" stroke="#232335" stroke-width="6" stroke-linecap="round" stroke-linejoin="round"/>
</g>
<defs>
<clipPath id="clip0_3193_1640">
<rect width="1249" height="379" fill="white"/>
</clipPath>
</defs>
</svg>
