<svg width="155" height="154" viewBox="0 0 155 154" fill="none" xmlns="http://www.w3.org/2000/svg">
<g clip-path="url(#clip0_2311_597)">
<path d="M93.0542 34.1026C87.8695 30.848 84.251 27.7001 81.1726 24.979C76.528 20.8708 74.9078 18.7899 68.589 12.3341C66.1047 9.77305 62.4862 6.19831 58.0576 1.98331C57.2475 1.23635 55.7893 1.02293 54.8172 1.60983C43.3677 8.11906 31.9183 14.6283 20.4688 21.1909C19.4426 21.7778 18.9026 23.2184 19.2266 24.3388C21.4409 31.0081 23.6552 37.6774 25.8695 44.3467C28.4618 43.7064 30.6221 43.1729 33.7005 42.1591C34.9966 41.7323 36.4008 41.2521 37.859 40.7719C36.4548 36.4502 34.9967 32.1285 33.5925 27.8068L54.8712 15.7487C59.0838 20.8174 62.8643 24.8723 65.7806 27.8068C70.2092 32.3419 73.2876 35.4365 78.0402 39.1713C82.9008 42.9595 87.0054 45.3604 88.5176 46.2141C92.6761 48.615 98.5089 51.4962 105.962 53.7904C106.718 49.6288 107.636 46.1074 108.932 41.7323C102.127 39.3847 96.8347 36.5036 93.0542 34.1026Z" fill="white"/>
<path d="M47.6342 42.4238C42.1795 45.1982 37.6429 46.7455 33.7004 48.026C27.7596 49.9468 25.1673 50.2669 16.3101 52.4544C12.7997 53.3081 7.88502 54.5886 1.94425 56.2959C0.864111 56.6161 0 57.7365 0 58.857C0 71.9288 0 84.9472 0 98.0191C0 99.1929 0.972126 100.367 2.16028 100.633C9.12718 102.074 16.0401 103.515 23.007 104.955C23.7631 102.447 24.3571 100.26 25.0052 97.1654C25.2753 95.8315 25.5993 94.391 25.8693 92.897C21.3868 91.9367 16.9042 91.0296 12.4216 90.0693L12.4756 65.8464C19.0105 64.7793 24.4652 63.5521 28.5157 62.5384C34.6725 61.0445 38.993 59.924 44.6098 57.7365C50.3345 55.4423 54.4931 53.148 56.0052 52.2944C60.1638 49.9468 65.6185 46.372 71.3972 41.1433C68.1028 38.4222 65.5105 35.8612 62.2701 32.5533C56.8153 37.2484 51.6307 40.343 47.6342 42.4238Z" fill="white"/>
<path d="M32.351 85.2132C32.081 91.2423 31.1088 95.9375 30.2447 99.939C28.9486 105.968 27.9764 108.369 25.4381 117.012C24.466 120.427 23.1158 125.282 21.6036 131.205C21.3336 132.272 21.9277 133.606 22.8998 134.139C34.2953 140.648 45.6907 147.158 57.0862 153.667C58.2203 154.307 59.7325 153.987 60.5426 153.027C63.135 149.772 66.0514 146.411 69.2918 142.996C71.128 141.075 73.0183 139.261 74.8005 137.554C73.9904 136.7 72.9643 135.686 71.7761 134.513C70.966 133.712 70.0479 132.912 68.9677 131.952C67.9416 131.045 66.8615 130.084 65.6193 129.071C63.9451 130.511 62.0548 132.272 60.2186 134.353C58.7604 136.007 57.4642 137.661 56.3841 139.155C49.3092 135.1 42.2343 131.045 35.1594 126.936C37.4817 120.801 39.1559 115.519 40.29 111.57C42.0182 105.541 43.2604 101.326 44.1245 95.4039C44.9886 89.3749 45.0426 84.6797 45.0426 82.919C45.0426 78.1705 44.6646 71.7146 42.9904 64.1916C38.9399 65.6322 35.3754 66.5926 30.9468 67.713C32.351 74.8091 32.513 80.7848 32.351 85.2132Z" fill="white"/>
<path d="M61.9992 119.949C67.1839 123.204 70.8023 126.352 73.8807 129.073C78.5253 133.181 80.1455 135.262 86.4644 141.718C88.9487 144.279 92.5672 147.854 96.9957 152.068C97.8058 152.815 99.264 153.029 100.236 152.442C111.686 145.933 123.135 139.424 134.585 132.861C135.611 132.274 136.151 130.833 135.827 129.713C133.612 123.044 131.398 116.374 129.184 109.705C126.592 110.345 124.431 110.879 121.353 111.893C120.057 112.319 118.653 112.8 117.194 113.28C118.599 117.602 120.057 121.923 121.461 126.245L100.128 138.356C95.9156 133.288 92.1351 129.233 89.2187 126.298C84.7902 121.763 81.7117 118.669 76.9591 114.934C72.0985 111.146 67.994 108.745 66.4818 107.891C62.3232 105.49 56.4905 102.609 49.0375 100.315C48.2814 104.476 47.3633 107.998 46.0671 112.373C52.872 114.72 58.2187 117.548 61.9992 119.949Z" fill="white"/>
<path d="M107.366 111.999C112.821 109.225 117.357 107.677 121.3 106.397C127.24 104.476 129.833 104.156 138.69 101.968C142.2 101.115 147.115 99.8342 153.056 98.1269C154.136 97.8067 155 96.6863 155 95.5658C155 82.494 155 69.4756 155 56.4037C155 55.23 154.028 54.0562 152.84 53.7894C145.873 52.3488 138.96 50.9082 131.993 49.4677C131.237 51.9753 130.643 54.1629 129.995 57.2574C129.725 58.5913 129.401 60.0318 129.131 61.5258C133.613 62.4861 138.096 63.3932 142.578 64.3536L142.524 88.5764C135.99 89.6435 130.535 90.8707 126.484 91.8844C120.328 93.3783 116.007 94.4988 110.39 96.6863C104.666 98.9805 100.507 101.275 98.9948 102.128C94.8362 104.476 89.3815 108.051 83.6028 113.28C86.8972 116.001 89.4895 118.562 92.73 121.87C98.2387 117.174 103.369 114.026 107.366 111.999Z" fill="white"/>
<path d="M122.705 68.8353C122.975 62.8062 123.947 58.1111 124.811 54.1095C126.107 48.0804 127.079 45.6795 129.618 37.0361C130.59 33.6214 131.94 28.7661 133.452 22.8438C133.722 21.7767 133.128 20.4429 132.156 19.9093C120.706 13.4001 109.257 6.83749 97.8075 0.328257C96.7813 -0.258641 95.2691 -0.0452233 94.459 0.861801C89.7064 6.09053 84.9538 11.3193 80.2012 16.548C82.0374 18.4687 83.6036 20.016 86.0339 22.1502C87.0601 23.0572 88.1402 24.0176 89.3824 25.0313C92.4608 21.67 95.5392 18.3087 98.6176 14.894L119.842 27.1122C117.52 33.2479 115.846 38.53 114.712 42.4782C112.983 48.5073 111.741 52.7223 110.877 58.6446C110.013 64.6736 109.959 69.3688 109.959 71.1295C109.959 75.8781 110.337 82.334 112.011 89.8569C116.062 88.4164 119.626 87.456 124.055 86.3355C122.651 79.2928 122.489 73.3171 122.705 68.8353Z" fill="white"/>
</g>
<defs>
<clipPath id="clip0_2311_597">
<rect width="155" height="154" fill="white"/>
</clipPath>
</defs>
</svg>
