<svg width="98" height="98" viewBox="0 0 98 98" fill="none" xmlns="http://www.w3.org/2000/svg">
<g id="globe-fill">
<path id="Vector" d="M48.7067 8C43.427 8 37.4735 24.1291 36.7099 44.75H60.7035C59.9399 24.1332 53.9865 8 48.7067 8ZM35.8197 10.0417C20.7645 15.0601 9.42917 28.8291 8 44.75H28.5433C28.9965 30.7074 31.5322 18.2532 35.8197 10.0417ZM61.5937 10.0417C65.8812 18.2532 68.4169 30.7074 68.8702 44.75H89.2868C87.8087 28.6412 76.796 15.1499 61.5937 10.0417ZM8.12661 52.9166C9.59661 69.2785 20.9564 82.6841 35.9463 87.6249C31.6629 79.4133 28.9965 66.9592 28.5433 52.9166H8.12661ZM36.7099 52.9166C37.4735 73.5333 43.427 89.6666 48.7067 89.6666C53.9865 89.6666 59.9399 73.5374 60.7035 52.9166H36.7099ZM68.8702 52.9166C68.4169 66.9592 65.7506 79.4133 61.4671 87.6249C76.8654 82.386 87.7842 68.7599 89.2868 52.9166H68.8702Z" fill="#0078E8"/>
</g>
</svg>
