<svg width="619" height="119" viewBox="0 0 619 119" fill="none" xmlns="http://www.w3.org/2000/svg">
<g clip-path="url(#clip0_2311_90)">
<path d="M161.005 45.0322C165.022 38.6865 170.923 35.5338 178.709 35.5338C186.495 35.5338 192.929 38.2015 197.969 43.5773C203.01 48.9125 205.551 55.8242 205.551 64.2723C205.551 72.72 203.01 79.6317 197.969 85.048C192.929 90.4237 186.536 93.1316 178.873 93.1316C171.21 93.1316 165.227 89.7366 161.005 82.9461V92.3233H146.581V17.547H161.005V45.0322ZM186.495 76.3574C189.446 73.4071 190.962 69.3651 190.962 64.2318C190.962 59.0985 189.486 55.097 186.495 52.1868C183.545 49.2766 180.02 47.8212 176.004 47.8212C171.988 47.8212 168.464 49.2766 165.513 52.2269C162.563 55.1776 161.047 59.1791 161.047 64.3124C161.047 69.4457 162.522 73.4472 165.513 76.398C168.505 79.3487 171.988 80.8036 176.004 80.8036C180.02 80.8036 183.503 79.3082 186.495 76.3574Z" fill="white"/>
<path d="M216.944 92.3242V17.5479H231.369V92.3242H216.944Z" fill="white"/>
<path d="M285.915 36.3426H300.34V92.3237H285.915V83.8355C282.309 89.9794 276.408 93.0514 268.212 93.0514C261.778 93.0514 256.532 90.9495 252.434 86.7457C248.336 82.5424 246.287 76.6814 246.287 69.2038V36.383H260.63V67.1826C260.63 71.5481 261.778 74.9431 263.991 77.2874C266.245 79.6322 269.318 80.8446 273.211 80.8446C277.104 80.8446 280.178 79.6723 282.473 77.2874C284.767 74.9431 285.915 71.5481 285.915 67.1826V36.3426Z" fill="white"/>
<path d="M339.679 93.1311C331.401 93.1311 324.68 90.5039 319.516 85.2088C314.312 79.9138 311.73 72.9214 311.73 64.2309C311.73 55.5408 314.353 48.5886 319.557 43.3745C324.803 38.1604 331.524 35.5331 339.843 35.5331C348.161 35.5331 354.964 38.0795 360.291 43.1724C365.619 48.2651 368.282 55.0556 368.282 63.5438C368.282 65.4839 368.16 67.3029 367.873 69.0006H326.483C326.811 72.6385 328.204 75.5487 330.581 77.8119C332.958 80.035 335.99 81.1263 339.679 81.1263C344.678 81.1263 348.366 79.1055 350.743 75.0634H366.315C364.676 80.399 361.48 84.7236 356.808 88.0785C352.095 91.4334 346.399 93.1311 339.679 93.1311ZM349.186 50.8928C346.645 48.6697 343.53 47.578 339.924 47.578C336.318 47.578 333.286 48.7098 330.868 50.8928C328.45 53.1154 326.975 56.0662 326.524 59.7847H353.366C353.12 56.0662 351.726 53.1154 349.186 50.8928Z" fill="white"/>
<path d="M394.104 45.0318C398.12 38.6858 404.021 35.5331 411.807 35.5331C419.594 35.5331 426.028 38.2008 431.068 43.5766C436.109 48.9121 438.65 55.8238 438.65 64.2714C438.65 72.7191 436.109 79.6308 431.068 85.0471C426.028 90.4228 419.635 93.1311 411.971 93.1311C404.308 93.1311 398.325 89.7357 394.104 82.9452V119H379.68V36.3415H394.104V45.0318ZM419.553 76.357C422.503 73.4062 424.019 69.3642 424.019 64.2309C424.019 59.0976 422.544 55.0961 419.553 52.1859C416.602 49.2757 413.078 47.8208 409.062 47.8208C405.046 47.8208 401.522 49.2757 398.571 52.2264C395.621 55.1772 394.104 59.1787 394.104 64.312C394.104 69.4453 395.579 73.4468 398.571 76.3971C401.563 79.3479 405.046 80.8032 409.062 80.8032C413.078 80.8032 416.602 79.3078 419.553 76.357Z" fill="white"/>
<path d="M464.462 36.3415V46.2443C468.273 39.09 473.805 35.5331 481.056 35.5331V50.084H477.452C473.15 50.084 469.909 51.1352 467.699 53.2772C465.528 55.3791 464.418 59.0575 464.418 64.2309V92.3228H449.995V36.3415H464.462Z" fill="white"/>
<path d="M507.288 22.0738C507.288 24.499 506.426 26.5603 504.746 28.2175C503.026 29.9152 500.974 30.7236 498.556 30.7236C496.142 30.7236 494.05 29.8748 492.37 28.2175C490.65 26.5199 489.828 24.499 489.828 22.0738C489.828 19.6486 490.69 17.5872 492.37 15.93C494.09 14.2323 496.142 13.424 498.556 13.424C500.974 13.424 503.066 14.2728 504.746 15.93C506.466 17.5872 507.288 19.6486 507.288 22.0738ZM491.305 92.3233V36.3419H505.727V92.3233H491.305Z" fill="white"/>
<path d="M535.563 36.3415V44.7488C539.167 38.605 545.069 35.5331 553.183 35.5331C559.66 35.5331 564.983 37.6349 569.082 41.8385C573.181 46.0424 575.232 51.9029 575.232 59.3806V92.3228H560.889V61.4018C560.889 57.0363 559.74 53.6813 557.529 51.337C555.314 48.9927 552.201 47.8609 548.306 47.8609C544.415 47.8609 541.342 49.0333 539.047 51.337C536.753 53.6813 535.603 56.9957 535.603 61.4018V92.3228H521.176V36.3415H535.563Z" fill="white"/>
<path d="M612.116 80.3986H619V92.3224H609.905C604.082 92.3224 599.616 91.0288 596.46 88.361C593.307 85.7338 591.751 81.4088 591.751 75.346V47.9416H585.685V36.3006H591.751V22.4771H606.173V36.3006H618.876V47.9416H606.173V75.346C606.173 77.1649 606.624 78.4585 607.487 79.2262C608.389 79.9944 609.905 80.3986 612.116 80.3986Z" fill="white"/>
<path d="M70.6115 25.8363C66.6773 23.3707 63.9316 20.9859 61.5958 18.9245C58.0715 15.8122 56.8423 14.2359 52.0477 9.34508C50.1624 7.40494 47.4167 4.69685 44.0565 1.50369C43.4417 0.937817 42.3353 0.77614 41.5977 1.22075C32.9099 6.15196 24.2222 11.0831 15.5344 16.0547C14.7558 16.4994 14.346 17.5907 14.5919 18.4395C16.2721 23.492 17.9523 28.5444 19.6324 33.5969C21.5995 33.1119 23.2387 32.7076 25.5745 31.9397C26.558 31.6163 27.6235 31.2525 28.73 30.8888C27.6645 27.6148 26.558 24.3408 25.4926 21.0668L41.6386 11.932C44.835 15.7718 47.7036 18.8437 49.9166 21.0668C53.2769 24.5025 55.6127 26.8468 59.2188 29.6761C62.9072 32.5459 66.0216 34.3648 67.169 35.0115C70.3246 36.8304 74.7504 39.0131 80.4059 40.7511C80.9793 37.5984 81.6761 34.9307 82.6595 31.6163C77.4961 29.8379 73.4801 27.6552 70.6115 25.8363Z" fill="white"/>
<path d="M36.1443 32.1386C32.0053 34.2404 28.563 35.4126 25.5715 36.3826C21.0637 37.8377 19.0966 38.0803 12.3759 39.7375C9.71224 40.3842 5.98308 41.3542 1.47528 42.6477C0.65568 42.8902 0 43.739 0 44.588C0 54.4906 0 64.353 0 74.256C0 75.145 0.73764 76.0344 1.6392 76.2363C6.92559 77.3275 12.171 78.4188 17.4574 79.5105C18.0312 77.6105 18.4819 75.9533 18.9737 73.609C19.1786 72.5984 19.4245 71.5071 19.6294 70.3757C16.2281 69.6481 12.8267 68.9609 9.42538 68.2333L9.46637 49.8826C14.4249 49.0743 18.5639 48.1448 21.6374 47.3766C26.3091 46.2452 29.5875 45.3963 33.8494 43.739C38.1933 42.001 41.3488 40.2629 42.4962 39.6162C45.6517 37.8377 49.7906 35.1296 54.1753 31.1685C51.6759 29.1071 49.7088 27.167 47.25 24.6609C43.1109 28.2179 39.1768 30.5622 36.1443 32.1386Z" fill="white"/>
<path d="M24.5474 64.5549C24.3425 69.1223 23.6049 72.679 22.9492 75.7105C21.9657 80.2778 21.2281 82.0968 19.302 88.6449C18.5644 91.2316 17.5399 94.91 16.3924 99.3963C16.1875 100.205 16.6383 101.215 17.376 101.619C26.0227 106.551 34.6695 111.482 43.3162 116.413C44.1768 116.898 45.3241 116.656 45.9391 115.928C47.9062 113.463 50.1191 110.916 52.5779 108.329C53.9711 106.874 55.4054 105.5 56.7575 104.207C56.1429 103.56 55.3643 102.792 54.4627 101.902C53.8482 101.296 53.1513 100.69 52.3316 99.9622C51.553 99.2751 50.7337 98.5479 49.7911 97.7797C48.5208 98.8709 47.0865 100.205 45.6933 101.781C44.5866 103.034 43.6031 104.287 42.7835 105.419C37.4151 102.347 32.0468 99.2751 26.6784 96.163C28.4406 91.5145 29.7109 87.5131 30.5715 84.5222C31.8829 79.9548 32.8254 76.7616 33.4811 72.2749C34.1367 67.7075 34.1777 64.1507 34.1777 62.8166C34.1777 59.2193 33.8908 54.3288 32.6205 48.6296C29.547 49.7209 26.8423 50.4485 23.482 51.2969C24.5474 56.6731 24.6704 61.1999 24.5474 64.5549Z" fill="white"/>
<path d="M47.0462 90.8697C50.9799 93.3357 53.7256 95.7201 56.0615 97.7819C59.5858 100.894 60.8154 102.47 65.61 107.361C67.4949 109.301 70.2406 112.009 73.6009 115.203C74.2159 115.768 75.3221 115.93 76.0596 115.486C84.7477 110.554 93.4354 105.623 102.123 100.652C102.902 100.207 103.312 99.1155 103.066 98.2667C101.386 93.2145 99.705 88.1618 98.0248 83.1092C96.0582 83.5944 94.4187 83.9986 92.0829 84.7663C91.0995 85.0898 90.034 85.4539 88.9273 85.8175C89.9929 89.0913 91.0995 92.3656 92.1647 95.6394L75.9778 104.815C72.7816 100.975 69.9129 97.9031 67.7 95.68C64.3397 92.2444 62.0034 89.8997 58.3973 87.0705C54.7094 84.2009 51.595 82.3819 50.4472 81.7349C47.292 79.916 42.8661 77.7334 37.2108 75.9956C36.6371 79.1482 35.9404 81.816 34.9569 85.1304C40.1204 86.9088 44.1774 89.0512 47.0462 90.8697Z" fill="white"/>
<path d="M81.4683 84.8474C85.6072 82.7456 89.0498 81.5736 92.0413 80.6036C96.549 79.1482 98.516 78.9058 105.237 77.2486C107.901 76.6016 111.63 75.6316 116.137 74.3384C116.957 74.0956 117.613 73.2472 117.613 72.3983C117.613 62.4953 117.613 52.6328 117.613 42.7302C117.613 41.8409 116.875 40.9517 115.973 40.7496C110.687 39.6583 105.441 38.5669 100.155 37.4756C99.5816 39.3753 99.1306 41.0325 98.639 43.3769C98.4338 44.3874 98.188 45.4787 97.9833 46.6105C101.385 47.3382 104.786 48.0253 108.187 48.7525L108.146 67.1032C103.188 67.9115 99.0488 68.8411 95.9751 69.6093C91.3034 70.7411 88.0249 71.59 83.7631 73.2472C79.4195 74.985 76.2639 76.7233 75.1165 77.3698C71.9609 79.1482 67.822 81.8561 63.4373 85.8175C65.9368 87.8789 67.9038 89.819 70.3626 92.3251C74.5426 88.7683 78.4357 86.3834 81.4683 84.8474Z" fill="white"/>
<path d="M93.1043 52.1476C93.309 47.5802 94.0469 44.0231 94.7022 40.9917C95.6859 36.4242 96.4234 34.6054 98.3494 28.0574C99.0873 25.4705 100.112 21.7923 101.259 17.3058C101.464 16.4974 101.013 15.4869 100.276 15.0827C91.5877 10.1515 82.9 5.17989 74.2124 0.248677C73.4338 -0.195938 72.2864 -0.0342599 71.6718 0.652874C68.0653 4.61398 64.4591 8.5751 60.853 12.5363C62.2462 13.9914 63.4347 15.1635 65.2789 16.7803C66.0575 17.4674 66.8768 18.195 67.8194 18.963C70.1553 16.4165 72.4911 13.8701 74.827 11.2832L90.932 20.5393C89.1701 25.1876 87.8998 29.1891 87.0389 32.1802C85.7275 36.7476 84.7853 39.9408 84.1296 44.4275C83.4739 48.9949 83.4328 52.5517 83.4328 53.8854C83.4328 57.4827 83.7198 62.3736 84.99 68.0728C88.0638 66.9816 90.7684 66.2539 94.1287 65.405C93.0631 60.0699 92.9402 55.5426 93.1043 52.1476Z" fill="white"/>
</g>
<defs>
<clipPath id="clip0_2311_90">
<rect width="619" height="119" fill="white"/>
</clipPath>
</defs>
</svg>
