<svg width="432" height="83" viewBox="0 0 432 83" fill="none" xmlns="http://www.w3.org/2000/svg">
<g clip-path="url(#clip0_2610_940)">
<path d="M112.365 31.4091C115.169 26.983 119.287 24.7841 124.721 24.7841C130.155 24.7841 134.645 26.6447 138.163 30.3943C141.68 34.1155 143.454 38.9362 143.454 44.8286C143.454 50.7207 141.68 55.5415 138.163 59.3192C134.645 63.0686 130.183 64.9574 124.835 64.9574C119.487 64.9574 115.311 62.5894 112.365 57.8532V64.3936H102.298V12.2387H112.365V31.4091ZM130.155 53.2577C132.214 51.2 133.272 48.3807 133.272 44.8003C133.272 41.22 132.242 38.429 130.155 36.3992C128.096 34.3694 125.636 33.3543 122.833 33.3543C120.03 33.3543 117.571 34.3694 115.512 36.4272C113.452 38.4853 112.394 41.2762 112.394 44.8566C112.394 48.437 113.424 51.2279 115.512 53.286C117.599 55.3441 120.03 56.3589 122.833 56.3589C125.636 56.3589 128.067 55.3158 130.155 53.2577Z" fill="white"/>
<path d="M151.405 64.3941V12.2393H161.472V64.3941H151.405Z" fill="white"/>
<path d="M199.54 25.3481H209.607V64.3938H199.54V58.4735C197.023 62.7587 192.905 64.9014 187.185 64.9014C182.695 64.9014 179.034 63.4353 176.174 60.5033C173.314 57.5715 171.884 53.4836 171.884 48.2682V25.3763H181.894V46.8584C181.894 49.9033 182.695 52.2712 184.239 53.9063C185.812 55.5417 187.957 56.3874 190.674 56.3874C193.391 56.3874 195.536 55.5697 197.138 53.9063C198.739 52.2712 199.54 49.9033 199.54 46.8584V25.3481Z" fill="white"/>
<path d="M237.062 64.957C231.285 64.957 226.594 63.1246 222.991 59.4314C219.358 55.7382 217.557 50.8612 217.557 44.7997C217.557 38.7385 219.387 33.8895 223.019 30.2528C226.68 26.6161 231.37 24.7836 237.176 24.7836C242.982 24.7836 247.729 26.5597 251.447 30.1118C255.165 33.6639 257.024 38.4001 257.024 44.3204C257.024 45.6737 256.939 46.9423 256.738 48.1265H227.852C228.081 50.6638 229.054 52.6936 230.713 54.2722C232.371 55.8227 234.488 56.5839 237.062 56.5839C240.551 56.5839 243.125 55.1744 244.784 52.3552H255.652C254.508 56.0766 252.277 59.0929 249.016 61.4329C245.727 63.7729 241.752 64.957 237.062 64.957ZM243.697 35.4966C241.924 33.9461 239.75 33.1846 237.233 33.1846C234.717 33.1846 232.6 33.974 230.913 35.4966C229.225 37.0469 228.196 39.105 227.881 41.6986H246.614C246.443 39.105 245.47 37.0469 243.697 35.4966Z" fill="white"/>
<path d="M275.046 31.4087C277.848 26.9825 281.967 24.7836 287.401 24.7836C292.835 24.7836 297.325 26.6442 300.843 30.3938C304.361 34.1151 306.134 38.9359 306.134 44.828C306.134 50.7201 304.361 55.5408 300.843 59.3185C297.325 63.068 292.863 64.957 287.515 64.957C282.167 64.957 277.991 62.5887 275.046 57.8525V82.9997H264.979V25.3474H275.046V31.4087ZM292.806 53.2574C294.865 51.1993 295.923 48.3801 295.923 44.7997C295.923 41.2193 294.894 38.4284 292.806 36.3986C290.747 34.3687 288.287 33.354 285.485 33.354C282.682 33.354 280.222 34.3687 278.163 36.4268C276.104 38.4849 275.046 41.2759 275.046 44.8563C275.046 48.4366 276.075 51.2276 278.163 53.2854C280.251 55.3435 282.682 56.3585 285.485 56.3585C288.287 56.3585 290.747 55.3155 292.806 53.2574Z" fill="white"/>
<path d="M324.148 25.3474V32.2544C326.808 27.2645 330.668 24.7836 335.729 24.7836V34.9325H333.214C330.212 34.9325 327.95 35.6657 326.407 37.1597C324.892 38.6257 324.117 41.1913 324.117 44.7997V64.3932H314.052V25.3474H324.148Z" fill="white"/>
<path d="M354.037 15.396C354.037 17.0875 353.435 18.5253 352.262 19.6812C351.062 20.8652 349.63 21.4291 347.942 21.4291C346.257 21.4291 344.798 20.837 343.625 19.6812C342.425 18.4971 341.851 17.0875 341.851 15.396C341.851 13.7045 342.453 12.2667 343.625 11.1109C344.826 9.92679 346.257 9.36298 347.942 9.36298C349.63 9.36298 351.09 9.95501 352.262 11.1109C353.463 12.2667 354.037 13.7045 354.037 15.396ZM342.882 64.3936V25.3477H352.947V64.3936H342.882Z" fill="white"/>
<path d="M373.769 25.3474V31.2114C376.284 26.9262 380.404 24.7836 386.066 24.7836C390.587 24.7836 394.302 26.2496 397.162 29.1815C400.023 32.1136 401.454 36.2012 401.454 41.4167V64.3932H391.444V42.8264C391.444 39.7816 390.642 37.4416 389.099 35.8065C387.553 34.1714 385.381 33.382 382.662 33.382C379.947 33.382 377.802 34.1997 376.201 35.8065C374.599 37.4416 373.797 39.7533 373.797 42.8264V64.3932H363.729V25.3474H373.769Z" fill="white"/>
<path d="M427.195 56.0763H432V64.3929H425.653C421.589 64.3929 418.472 63.4907 416.269 61.63C414.069 59.7975 412.983 56.7809 412.983 52.5522V33.4382H408.749V25.3189H412.983V15.6773H423.048V25.3189H431.913V33.4382H423.048V52.5522C423.048 53.8209 423.363 54.7231 423.965 55.2586C424.594 55.7944 425.653 56.0763 427.195 56.0763Z" fill="white"/>
<path d="M49.28 18.0203C46.5343 16.3006 44.6181 14.6372 42.9879 13.1995C40.5283 11.0287 39.6705 9.92921 36.3243 6.518C35.0086 5.1648 33.0924 3.27596 30.7472 1.0488C30.3182 0.654112 29.5461 0.541345 29.0312 0.851455C22.9681 4.29087 16.9049 7.73026 10.8417 11.1979C10.2983 11.508 10.0124 12.2691 10.1839 12.8612C11.3565 16.3852 12.5291 19.9091 13.7017 23.4331C15.0745 23.0948 16.2185 22.8129 17.8487 22.2772C18.5351 22.0517 19.2787 21.798 20.0509 21.5443C19.3073 19.2607 18.5351 16.9772 17.7915 14.6937L29.0598 8.3223C31.2906 11.0005 33.2926 13.1431 34.837 14.6937C37.1822 17.09 38.8123 18.7251 41.3291 20.6985C43.9032 22.7001 46.0767 23.9688 46.8775 24.4198C49.0797 25.6885 52.1685 27.2108 56.1155 28.4231C56.5157 26.2241 57.002 24.3634 57.6883 22.0517C54.0848 20.8113 51.282 19.2889 49.28 18.0203Z" fill="white"/>
<path d="M25.2251 22.416C22.3365 23.882 19.9341 24.6995 17.8463 25.3761C14.7003 26.391 13.3275 26.5602 8.63716 27.716C6.77817 28.1671 4.17559 28.8437 1.02959 29.7459C0.457599 29.915 0 30.507 0 31.0992C0 38.006 0 44.8849 0 51.792C0 52.4121 0.514799 53.0324 1.14399 53.1732C4.83337 53.9343 8.49417 54.6955 12.1835 55.4569C12.5839 54.1317 12.8985 52.9758 13.2418 51.3407C13.3847 50.6359 13.5563 49.8747 13.6993 49.0856C11.3256 48.5781 8.95175 48.0988 6.57797 47.5913L6.60658 34.7921C10.0671 34.2283 12.9557 33.58 15.1007 33.0442C18.3611 32.255 20.6491 31.663 23.6235 30.507C26.6551 29.2948 28.8573 28.0825 29.6581 27.6315C31.8603 26.391 34.7488 24.5022 37.8089 21.7394C36.0646 20.3016 34.6918 18.9484 32.9758 17.2005C30.0871 19.6814 27.3415 21.3165 25.2251 22.416Z" fill="white"/>
<path d="M17.1317 45.0256C16.9887 48.2113 16.4739 50.6921 16.0163 52.8064C15.3299 55.9921 14.8151 57.2608 13.4709 61.8279C12.9561 63.6321 12.2411 66.1977 11.4403 69.3268C11.2973 69.8909 11.6119 70.5955 12.1267 70.8774C18.1613 74.317 24.1959 77.7562 30.2304 81.1958C30.831 81.534 31.6317 81.3649 32.0609 80.8574C33.4338 79.1377 34.9782 77.3615 36.6942 75.5573C37.6665 74.5423 38.6675 73.5838 39.6111 72.6819C39.1822 72.2306 38.6388 71.6951 38.0096 71.0747C37.5807 70.6521 37.0944 70.2291 36.5223 69.7215C35.9789 69.2423 35.4071 68.7351 34.7492 68.1992C33.8627 68.9604 32.8617 69.8909 31.8894 70.9902C31.117 71.8642 30.4306 72.7381 29.8586 73.5275C26.1121 71.3849 22.3655 69.2423 18.6189 67.0717C19.8487 63.8295 20.7353 61.0385 21.3359 58.9524C22.2511 55.7668 22.9089 53.5396 23.3665 50.4102C23.8241 47.2245 23.8527 44.7437 23.8527 43.8132C23.8527 41.3042 23.6525 37.8932 22.7659 33.9181C20.6209 34.6792 18.7333 35.1868 16.3881 35.7785C17.1317 39.5283 17.2175 42.6857 17.1317 45.0256Z" fill="white"/>
<path d="M32.8336 63.3797C35.579 65.0996 37.4952 66.7627 39.1254 68.2008C41.585 70.3714 42.4431 71.471 45.7893 74.882C47.1047 76.2352 49.0209 78.1242 51.3661 80.3513C51.7953 80.7461 52.5674 80.8589 53.0821 80.5487C59.1455 77.1091 65.2086 73.6699 71.2717 70.2023C71.8151 69.8921 72.1012 69.131 71.9296 68.5389C70.757 65.0151 69.5841 61.491 68.4116 57.9669C67.0391 58.3053 65.8949 58.5872 64.2647 59.1227C63.5784 59.3484 62.8348 59.6023 62.0624 59.8559C62.8061 62.1393 63.5784 64.423 64.3218 66.7065L53.025 73.1061C50.7943 70.4279 48.7923 68.2853 47.2479 66.7347C44.9028 64.3385 43.2723 62.7031 40.7556 60.7298C38.1818 58.7283 36.0082 57.4596 35.2071 57.0084C33.0052 55.7397 29.9163 54.2174 25.9695 53.0053C25.5691 55.2042 25.0829 57.0649 24.3965 59.3766C28.0001 60.617 30.8315 62.1113 32.8336 63.3797Z" fill="white"/>
<path d="M56.8568 59.1793C59.7453 57.7133 62.1479 56.8959 64.2357 56.2193C67.3816 55.2042 68.7544 55.0351 73.4447 53.8793C75.3038 53.428 77.9063 52.7514 81.0522 51.8495C81.6243 51.6801 82.0819 51.0883 82.0819 50.4963C82.0819 43.5891 82.0819 36.7103 82.0819 29.8034C82.0819 29.1831 81.5672 28.5629 80.9377 28.422C77.2484 27.6608 73.5875 26.8996 69.8983 26.1384C69.498 27.4634 69.1833 28.6193 68.8402 30.2544C68.697 30.9593 68.5254 31.7204 68.3826 32.5098C70.7564 33.0174 73.1302 33.4966 75.5038 34.0038L75.4754 46.8031C72.0148 47.3668 69.1262 48.0152 66.981 48.551C63.7207 49.3404 61.4326 49.9325 58.4583 51.0883C55.4269 52.3004 53.2246 53.5128 52.4239 53.9638C50.2216 55.2042 47.3331 57.0929 44.2729 59.8559C46.0173 61.2936 47.3901 62.6468 49.1061 64.3948C52.0233 61.914 54.7403 60.2506 56.8568 59.1793Z" fill="white"/>
<path d="M64.9774 36.3718C65.1202 33.1862 65.6352 30.7052 66.0925 28.5908C66.7791 25.4051 67.2938 24.1365 68.6379 19.5694C69.153 17.7652 69.8679 15.1997 70.6687 12.0704C70.8115 11.5066 70.4971 10.8018 69.9824 10.5198C63.919 7.08045 57.8558 3.61287 51.7927 0.173447C51.2493 -0.136663 50.4486 -0.0238955 50.0197 0.455366C47.5027 3.21816 44.9859 5.98095 42.4692 8.74377C43.4415 9.75868 44.271 10.5762 45.558 11.7039C46.1014 12.1832 46.6732 12.6906 47.3311 13.2263C48.9613 11.4502 50.5915 9.67411 52.2216 7.86981L63.4614 14.3257C62.2317 17.5678 61.3452 20.3588 60.7444 22.445C59.8292 25.6307 59.1716 27.8578 58.714 30.9873C58.2564 34.1729 58.2277 36.6537 58.2277 37.5839C58.2277 40.093 58.4279 43.5043 59.3145 47.4794C61.4597 46.7182 63.3472 46.2107 65.6923 45.6186C64.9487 41.8975 64.8629 38.7398 64.9774 36.3718Z" fill="white"/>
</g>
<defs>
<clipPath id="clip0_2610_940">
<rect width="432" height="83" fill="white"/>
</clipPath>
</defs>
</svg>
