<svg width="93" height="94" viewBox="0 0 93 94" fill="none" xmlns="http://www.w3.org/2000/svg">
<g id="mark-github-24">
<path id="Icon" fill-rule="evenodd" clip-rule="evenodd" d="M46.5 2.9375C21.8792 2.9375 1.9375 23.0936 1.9375 47.9792C1.9375 67.9101 14.6935 84.7444 32.4071 90.7124C34.6352 91.1066 35.4708 89.7553 35.4708 88.573C35.4708 87.5032 35.4151 83.9562 35.4151 80.1839C24.2188 82.2671 21.3222 77.4251 20.4309 74.8916C19.9296 73.5966 17.7572 69.5992 15.8633 68.5294C14.3036 67.6849 12.0755 65.6017 15.8076 65.5454C19.3169 65.4891 21.8235 68.8109 22.6591 70.1622C26.6697 76.9747 33.0755 75.0605 35.6379 73.8781C36.0278 70.9504 37.1976 68.9798 38.4788 67.8538C28.5636 66.7278 18.2028 62.8429 18.2028 45.6145C18.2028 40.7162 19.9296 36.6624 22.7705 33.5095C22.3248 32.3835 20.7652 27.7667 23.2161 21.5735C23.2161 21.5735 26.9482 20.3911 35.4708 26.1903C39.0358 25.1768 42.8236 24.6701 46.6114 24.6701C50.3992 24.6701 54.187 25.1768 57.752 26.1903C66.2746 20.3348 70.0067 21.5735 70.0067 21.5735C72.4577 27.7667 70.898 32.3835 70.4523 33.5095C73.2932 36.6624 75.02 40.6599 75.02 45.6145C75.02 62.8992 64.6035 66.7278 54.6884 67.8538C56.3038 69.2613 57.6963 71.9638 57.6963 76.1865C57.6963 82.2108 57.6406 87.0528 57.6406 88.573C57.6406 89.7553 58.4762 91.1629 60.7043 90.7124C78.3065 84.7444 91.0625 67.8538 91.0625 47.9792C91.0625 23.0936 71.1208 2.9375 46.5 2.9375Z" fill="#0078E8"/>
</g>
</svg>
