<svg width="99" height="85" viewBox="0 0 99 85" fill="none" xmlns="http://www.w3.org/2000/svg">
<g id="vuesax/bold/monitor">
<g id="monitor">
<path id="Vector" d="M72.435 7.08331H26.4412C16.4175 7.08331 8.25 14.0958 8.25 22.7021V45.7229V46.4312C8.25 55.0729 16.4175 62.05 26.4412 62.05H42.2812C44.55 62.05 46.4062 63.6437 46.4062 65.5916V69.0271C46.4062 70.975 44.55 72.5687 42.2812 72.5687H32.2987C30.6075 72.5687 29.205 73.7729 29.205 75.225C29.205 76.6771 30.5662 77.9166 32.2987 77.9166H66.7425C68.4338 77.9166 69.8363 76.7125 69.8363 75.2604C69.8363 73.8083 68.4338 72.6041 66.7425 72.6041H56.76C54.4912 72.6041 52.635 71.0104 52.635 69.0625V65.6271C52.635 63.6791 54.4912 62.0854 56.76 62.0854H72.4762C82.5413 62.0854 90.6675 55.0729 90.6675 46.4666V45.7583V22.7375C90.6263 14.0958 82.4587 7.08331 72.435 7.08331Z" fill="#0078E8"/>
</g>
</g>
</svg>
