<svg width="336" height="336" viewBox="0 0 336 336" fill="none" xmlns="http://www.w3.org/2000/svg">
<path d="M168 234.5C162.4 234.5 156.8 234.08 151.48 233.1C121.8 228.76 94.78 211.68 77.7 186.34C65.8 168.42 59.5 147.56 59.5 126C59.5 66.22 108.22 17.5 168 17.5C227.78 17.5 276.5 66.22 276.5 126C276.5 147.56 270.2 168.42 258.3 186.34C241.08 211.82 214.06 228.76 184.1 233.24C179.2 234.08 173.6 234.5 168 234.5ZM168 38.5C119.7 38.5 80.5 77.7 80.5 126C80.5 143.5 85.54 160.3 95.06 174.58C108.92 195.02 130.62 208.74 154.7 212.24C163.66 213.78 172.48 213.78 180.74 212.24C205.24 208.74 226.94 194.88 240.8 174.44C250.32 160.16 255.36 143.36 255.36 125.86C255.5 77.6999 216.3 38.5 168 38.5Z" fill="#EDF6FF"/>
<path d="M90.5774 316.259C88.6174 316.259 86.7974 315.98 84.8374 315.56C75.7374 313.46 68.7374 306.459 66.6375 297.359L61.7374 276.779C61.4574 275.519 60.4774 274.539 59.0774 274.119L35.9774 268.66C27.2974 266.56 20.4374 260.12 18.0574 251.58C15.6774 243.04 18.0574 233.8 24.3574 227.5L78.9574 172.9C81.1974 170.66 84.2774 169.54 87.3574 169.82C90.4374 170.1 93.2374 171.779 95.0574 174.439C108.917 194.879 130.617 208.74 154.837 212.24C163.797 213.78 172.617 213.78 180.877 212.24C205.377 208.74 227.077 194.879 240.937 174.439C242.617 171.779 245.557 170.1 248.637 169.82C251.717 169.54 254.797 170.66 257.037 172.9L311.637 227.5C317.937 233.8 320.317 243.04 317.937 251.58C315.557 260.12 308.557 266.7 300.017 268.66L276.917 274.119C275.657 274.399 274.677 275.379 274.257 276.779L269.357 297.359C267.257 306.459 260.257 313.46 251.157 315.56C242.057 317.8 232.677 314.579 226.797 307.439L167.997 239.82L109.197 307.58C104.437 313.18 97.7174 316.259 90.5774 316.259ZM85.2575 196.42L39.1974 242.48C37.9374 243.74 38.0774 245.14 38.3574 245.98C38.4974 246.68 39.1974 248.079 40.8774 248.359L63.9774 253.82C73.0774 255.92 80.0774 262.919 82.1774 272.019L87.0774 292.599C87.4974 294.419 88.8974 294.979 89.7374 295.259C90.5774 295.399 91.9774 295.54 93.2374 294.14L146.857 232.4C123.057 227.78 101.217 215.04 85.2575 196.42ZM189.137 232.26L242.757 293.859C244.017 295.399 245.557 295.399 246.397 295.119C247.237 294.979 248.497 294.28 249.057 292.46L253.957 271.88C256.057 262.78 263.057 255.779 272.157 253.679L295.257 248.22C296.937 247.8 297.637 246.54 297.777 245.84C298.057 245.14 298.197 243.6 296.937 242.34L250.877 196.279C234.777 214.899 213.077 227.64 189.137 232.26Z" fill="#EDF6FF"/>
<path d="M194.462 180.46C190.822 180.46 186.482 179.48 181.302 176.4L168.002 168.42L154.702 176.26C142.522 183.54 134.542 179.34 131.602 177.24C128.662 175.14 122.362 168.84 125.582 154.98L128.942 140.56L117.742 130.2C111.582 124.04 109.342 116.62 111.442 109.9C113.542 103.18 119.702 98.4199 128.382 97.0199L143.362 94.5L150.502 78.8201C154.562 70.8401 160.862 66.3599 168.002 66.3599C175.142 66.3599 181.582 70.9802 185.502 78.9602L193.762 95.4801L207.622 97.16C216.162 98.56 222.322 103.32 224.562 110.04C226.662 116.76 224.422 124.18 218.262 130.34L206.642 141.96L210.282 154.98C213.502 168.84 207.202 175.14 204.262 177.24C202.722 178.5 199.362 180.46 194.462 180.46ZM134.542 117.46L144.202 127.12C148.682 131.6 150.922 139.16 149.522 145.32L146.862 156.52L158.062 149.94C164.082 146.44 172.202 146.44 178.082 149.94L189.282 156.52L186.762 145.32C185.362 139.02 187.462 131.6 191.942 127.12L201.602 117.46L189.422 115.36C183.542 114.38 177.662 110.04 175.002 104.72L168.002 91L161.002 105C158.482 110.18 152.602 114.66 146.722 115.64L134.542 117.46Z" fill="#EDF6FF"/>
</svg>
