<svg width="357" height="354" viewBox="0 0 357 354" fill="none" xmlns="http://www.w3.org/2000/svg">
<path d="M272.126 354C263.359 354 252.11 351.188 238.05 342.917L188.59 313.638C183.462 310.66 173.537 310.66 168.575 313.638L118.95 342.917C89.6712 360.285 72.4678 353.338 64.6932 347.714C57.0841 342.09 45.1741 327.698 52.9487 294.615L64.6932 243.832C66.0166 238.539 63.3699 229.441 59.3999 225.471L18.3766 184.448C-2.13509 163.936 -0.480919 146.402 2.33116 137.8C5.14325 129.198 14.0757 113.98 42.5274 109.183L95.2953 100.416C100.258 99.5887 107.371 94.2954 109.521 89.8292L138.8 31.4371C152.033 4.80499 169.402 0.834991 178.5 0.834991C187.598 0.834991 204.967 4.80499 218.2 31.4371L247.313 89.6637C249.629 94.13 256.742 99.4233 261.704 100.25L314.472 109.018C343.089 113.815 352.022 129.033 354.669 137.635C357.315 146.236 358.969 163.77 338.623 184.282L297.6 225.471C293.63 229.441 291.149 238.373 292.307 243.832L304.051 294.615C311.66 327.698 299.916 342.09 292.307 347.714C288.171 350.691 281.555 354 272.126 354ZM178.5 286.51C186.605 286.51 194.711 288.495 201.162 292.299L250.622 321.578C265.013 330.18 274.111 330.18 277.585 327.698C281.058 325.217 283.539 316.45 279.9 300.239L268.156 249.456C265.013 235.727 270.141 218.027 280.066 207.937L321.089 166.913C329.195 158.808 332.834 150.868 331.179 145.409C329.36 139.95 321.751 135.484 310.502 133.665L257.734 124.897C244.997 122.747 231.102 112.491 225.313 100.912L196.199 42.6854C190.906 32.0987 184.29 25.8129 178.5 25.8129C172.71 25.8129 166.094 32.0987 160.966 42.6854L131.687 100.912C125.897 112.491 112.002 122.747 99.2653 124.897L46.6628 133.665C35.4145 135.484 27.8053 139.95 25.9857 145.409C24.1662 150.868 27.9707 158.973 36.0762 166.913L77.0995 207.937C87.0245 217.862 92.1524 235.727 89.0095 249.456L77.2649 300.239C73.4603 316.615 76.107 325.217 79.5807 327.698C83.0545 330.18 91.987 330.014 106.544 321.578L156.003 292.299C162.289 288.495 170.395 286.51 178.5 286.51Z" fill="#EDF6FF"/>
</svg>
