<svg width="1204" height="531" viewBox="0 0 1204 531" fill="none" xmlns="http://www.w3.org/2000/svg">
<g clip-path="url(#clip0_3192_1107)">
<path d="M703.367 199.969H872.673C872.996 199.969 873.315 200.033 873.613 200.156C873.911 200.279 874.181 200.46 874.409 200.687C874.637 200.915 874.818 201.185 874.941 201.482C875.065 201.78 875.128 202.098 875.128 202.42V329.852" stroke="#232335" stroke-width="6" stroke-linecap="round" stroke-linejoin="round"/>
<path d="M586.456 199.969H658.258" stroke="#232335" stroke-width="6" stroke-linecap="round" stroke-linejoin="round"/>
<path d="M533.634 199.969H545.909" stroke="#FFCD1C" stroke-width="6" stroke-linecap="round" stroke-linejoin="round"/>
<path d="M358.998 435.282V202.457C358.998 201.807 359.256 201.183 359.717 200.723C360.177 200.264 360.802 200.005 361.453 200.005H381.527" stroke="#232335" stroke-width="6" stroke-linecap="round" stroke-linejoin="round"/>
<path d="M765.907 427.639H600.91V220.743H647.482" stroke="#232335" stroke-width="6" stroke-linecap="round" stroke-linejoin="round"/>
<path d="M695.343 220.743H767.783V355.839" stroke="#232335" stroke-width="6" stroke-linecap="round" stroke-linejoin="round"/>
<path d="M626.213 253.837H620.268V238.262H636.192L626.213 253.837Z" stroke="#232335" stroke-width="6" stroke-linecap="round" stroke-linejoin="round"/>
<path d="M621.057 253.41L626.553 252.167" stroke="#232335" stroke-width="6" stroke-linecap="round" stroke-linejoin="round"/>
<path d="M654.949 317.018H620.268V351.645H654.949V317.018Z" stroke="#232335" stroke-width="6" stroke-linecap="round" stroke-linejoin="round"/>
<path d="M654.949 317.018L620.268 351.645" stroke="#232335" stroke-width="6" stroke-linecap="round" stroke-linejoin="round"/>
<path d="M702.295 337.488V351.645H667.614V317.018H702.295V331.248" stroke="#232335" stroke-width="6" stroke-linecap="round" stroke-linejoin="round"/>
<path d="M702.295 317.018L667.614 351.645" stroke="#232335" stroke-width="6" stroke-linecap="round" stroke-linejoin="round"/>
<path d="M714.969 329.852V317.018H749.65V338.724" stroke="#232335" stroke-width="6" stroke-linecap="round" stroke-linejoin="round"/>
<path d="M749.649 317.018L734.63 332.014" stroke="#232335" stroke-width="6" stroke-linecap="round" stroke-linejoin="round"/>
<path d="M654.949 283.193V307.018H620.268V300.894" stroke="#232335" stroke-width="6" stroke-linecap="round" stroke-linejoin="round"/>
<path d="M702.295 272.384H667.614V307.011H702.295V272.384Z" stroke="#232335" stroke-width="6" stroke-linecap="round" stroke-linejoin="round"/>
<path d="M702.295 272.384L667.614 307.018" stroke="#232335" stroke-width="6" stroke-linecap="round" stroke-linejoin="round"/>
<path d="M749.65 272.384H714.969V307.011H749.65V272.384Z" stroke="#232335" stroke-width="6" stroke-linecap="round" stroke-linejoin="round"/>
<path d="M749.65 272.384L714.969 307.018" stroke="#232335" stroke-width="6" stroke-linecap="round" stroke-linejoin="round"/>
<path d="M667.411 378.384H631.608V408.499H667.411V378.384Z" stroke="#232335" stroke-width="6" stroke-linecap="round" stroke-linejoin="round"/>
<path d="M750.511 408.499H620.268V369.273H720.675" stroke="#232335" stroke-width="6" stroke-linecap="round" stroke-linejoin="round"/>
<path d="M681.888 379.526H724.238" stroke="#232335" stroke-width="6" stroke-linecap="round" stroke-linejoin="round"/>
<path d="M681.888 387.075H731.559" stroke="#232335" stroke-width="6" stroke-linecap="round" stroke-linejoin="round"/>
<path d="M680.201 248.168H702.136" stroke="#232335" stroke-width="6" stroke-linecap="round" stroke-linejoin="round"/>
<path d="M709.182 248.168H748.382" stroke="#232335" stroke-width="6" stroke-linecap="round" stroke-linejoin="round"/>
<path d="M645.128 528.209V440.285H778.175" stroke="#232335" stroke-width="6" stroke-linecap="round" stroke-linejoin="round"/>
<path d="M711.637 457.812H664.486V473.379H711.637V457.812Z" stroke="#232335" stroke-width="6" stroke-linecap="round" stroke-linejoin="round"/>
<path d="M665.282 472.96L711.63 457.812" stroke="#232335" stroke-width="6" stroke-linecap="round" stroke-linejoin="round"/>
<path d="M699.167 491.933H664.486V526.56H699.167V491.933Z" stroke="#232335" stroke-width="6" stroke-linecap="round" stroke-linejoin="round"/>
<path d="M699.167 491.933L664.486 526.56" stroke="#232335" stroke-width="6" stroke-linecap="round" stroke-linejoin="round"/>
<path d="M746.521 491.933H711.84V526.56H746.521V491.933Z" stroke="#232335" stroke-width="6" stroke-linecap="round" stroke-linejoin="round"/>
<path d="M746.521 491.933L711.84 526.56" stroke="#232335" stroke-width="6" stroke-linecap="round" stroke-linejoin="round"/>
<path d="M793.868 491.933H759.187V526.56H793.868V491.933Z" stroke="#232335" stroke-width="6" stroke-linecap="round" stroke-linejoin="round"/>
<path d="M793.868 491.933L759.187 526.56" stroke="#232335" stroke-width="6" stroke-linecap="round" stroke-linejoin="round"/>
<path d="M724.419 467.718H746.362" stroke="#232335" stroke-width="6" stroke-linecap="round" stroke-linejoin="round"/>
<path d="M753.4 467.718H792.6" stroke="#232335" stroke-width="6" stroke-linecap="round" stroke-linejoin="round"/>
<path d="M407.445 252.058H572.653V458.954H432.335" stroke="#232335" stroke-width="6" stroke-linecap="round" stroke-linejoin="round"/>
<path d="M405.78 430.748V290.8" stroke="#232335" stroke-width="6" stroke-linecap="round" stroke-linejoin="round"/>
<path d="M426.68 269.585H472.281V285.153H462.432" stroke="#232335" stroke-width="6" stroke-linecap="round" stroke-linejoin="round"/>
<path d="M443.843 278.877L472.281 269.585" stroke="#232335" stroke-width="6" stroke-linecap="round" stroke-linejoin="round"/>
<path d="M425.137 305.825H454.742" stroke="#232335" stroke-width="6" stroke-linecap="round" stroke-linejoin="round"/>
<path d="M425.927 320.669C427.202 320.669 428.237 319.637 428.237 318.363C428.237 317.089 427.202 316.056 425.927 316.056C424.651 316.056 423.616 317.089 423.616 318.363C423.616 319.637 424.651 320.669 425.927 320.669Z" stroke="#232335" stroke-width="6" stroke-linecap="round" stroke-linejoin="round"/>
<path d="M425.927 332.556C427.202 332.556 428.237 331.524 428.237 330.25C428.237 328.976 427.202 327.943 425.927 327.943C424.651 327.943 423.616 328.976 423.616 330.25C423.616 331.524 424.651 332.556 425.927 332.556Z" stroke="#232335" stroke-width="6" stroke-linecap="round" stroke-linejoin="round"/>
<path d="M425.927 344.451C427.202 344.451 428.237 343.418 428.237 342.144C428.237 340.87 427.202 339.838 425.927 339.838C424.651 339.838 423.616 340.87 423.616 342.144C423.616 343.418 424.651 344.451 425.927 344.451Z" stroke="#232335" stroke-width="6" stroke-linecap="round" stroke-linejoin="round"/>
<path d="M425.927 356.338C427.202 356.338 428.237 355.305 428.237 354.031C428.237 352.757 427.202 351.725 425.927 351.725C424.651 351.725 423.616 352.757 423.616 354.031C423.616 355.305 424.651 356.338 425.927 356.338Z" stroke="#232335" stroke-width="6" stroke-linecap="round" stroke-linejoin="round"/>
<path d="M434.349 318.363H457.457" stroke="#232335" stroke-width="6" stroke-linecap="round" stroke-linejoin="round"/>
<path d="M434.349 330.25H450.795" stroke="#232335" stroke-width="6" stroke-linecap="round" stroke-linejoin="round"/>
<path d="M434.349 342.144H444.806" stroke="#232335" stroke-width="6" stroke-linecap="round" stroke-linejoin="round"/>
<path d="M434.349 354.031H460.224" stroke="#232335" stroke-width="6" stroke-linecap="round" stroke-linejoin="round"/>
<path d="M425.137 367.574H472.281" stroke="#232335" stroke-width="6" stroke-linecap="round" stroke-linejoin="round"/>
<path d="M425.927 382.419C427.202 382.419 428.237 381.386 428.237 380.112C428.237 378.838 427.202 377.806 425.927 377.806C424.651 377.806 423.616 378.838 423.616 380.112C423.616 381.386 424.651 382.419 425.927 382.419Z" stroke="#232335" stroke-width="6" stroke-linecap="round" stroke-linejoin="round"/>
<path d="M425.927 394.306C427.202 394.306 428.237 393.273 428.237 391.999C428.237 390.725 427.202 389.693 425.927 389.693C424.651 389.693 423.616 390.725 423.616 391.999C423.616 393.273 424.651 394.306 425.927 394.306Z" stroke="#232335" stroke-width="6" stroke-linecap="round" stroke-linejoin="round"/>
<path d="M434.349 380.112H465.394" stroke="#232335" stroke-width="6" stroke-linecap="round" stroke-linejoin="round"/>
<path d="M434.349 391.999H446.573" stroke="#232335" stroke-width="6" stroke-linecap="round" stroke-linejoin="round"/>
<path d="M511.249 300.764H554.519V356.338H485.07V335.16" stroke="#232335" stroke-width="6" stroke-linecap="round" stroke-linejoin="round"/>
<path d="M485.063 356.338L554.519 300.764" stroke="#232335" stroke-width="6" stroke-linecap="round" stroke-linejoin="round"/>
<path d="M503.682 369.382H485.063V387.972H503.682V369.382Z" stroke="#232335" stroke-width="6" stroke-linecap="round" stroke-linejoin="round"/>
<path d="M503.682 369.382L485.063 387.972" stroke="#232335" stroke-width="6" stroke-linecap="round" stroke-linejoin="round"/>
<path d="M529.101 369.382H510.482V387.972H529.101V369.382Z" stroke="#232335" stroke-width="6" stroke-linecap="round" stroke-linejoin="round"/>
<path d="M529.101 369.382L510.482 387.972" stroke="#232335" stroke-width="6" stroke-linecap="round" stroke-linejoin="round"/>
<path d="M554.519 369.382H535.9V387.972H554.519V369.382Z" stroke="#232335" stroke-width="6" stroke-linecap="round" stroke-linejoin="round"/>
<path d="M554.519 369.382L535.9 387.972" stroke="#232335" stroke-width="6" stroke-linecap="round" stroke-linejoin="round"/>
<path d="M525.023 409.7H497.215V433.944H525.023V409.7Z" stroke="#232335" stroke-width="6" stroke-linecap="round" stroke-linejoin="round"/>
<path d="M555.374 400.589H485.063V433.944H555.374V400.589Z" stroke="#232335" stroke-width="6" stroke-linecap="round" stroke-linejoin="round"/>
<path d="M533.844 410.849H547.625" stroke="#232335" stroke-width="6" stroke-linecap="round" stroke-linejoin="round"/>
<path d="M533.844 418.391H547.625" stroke="#232335" stroke-width="6" stroke-linecap="round" stroke-linejoin="round"/>
<path d="M485.063 279.491H507.006" stroke="#232335" stroke-width="6" stroke-linecap="round" stroke-linejoin="round"/>
<path d="M514.052 279.491H553.252" stroke="#232335" stroke-width="6" stroke-linecap="round" stroke-linejoin="round"/>
<path d="M520.475 209.463H486.859V243.027H520.475V209.463Z" fill="#232335"/>
<path d="M483.636 478.549H447.464V514.666H483.636V478.549Z" fill="#232335"/>
<path d="M467.603 476.865H433.987V510.429H467.603V476.865Z" fill="#232335"/>
<path d="M826.883 243.049H793.267V276.613H826.883V243.049Z" fill="#232335"/>
<path d="M836.804 279.303H803.188V312.868H836.804V279.303Z" fill="#232335"/>
<path d="M850.195 323.829H816.578V357.394H850.195V323.829Z" fill="#232335"/>
<path d="M811.494 316.44H777.878V350.004H811.494V316.44Z" fill="#232335"/>
<path d="M794.686 279.744H761.07V313.309H794.686V279.744Z" fill="#232335"/>
<path d="M787.734 239.817H754.118V273.381H787.734V239.817Z" fill="#232335"/>
<path d="M557.546 475.151H523.93V508.715H557.546V475.151Z" fill="#232335"/>
<path d="M512.843 328.146L485.02 327.256L480.646 299.498L490.675 294.581H512.843V328.146Z" fill="#232335"/>
<path d="M573.818 476.214H537.646V512.331H573.818V476.214Z" fill="#232335"/>
<path d="M617.718 431.825H584.102V465.39H617.718V431.825Z" fill="#232335"/>
<path d="M649.112 469.569H615.495V503.133H649.112V469.569Z" fill="#232335"/>
<path d="M562.717 228.826H529.101V262.391H562.717V228.826Z" fill="#232335"/>
<path d="M480.385 230.034H446.768V263.598H480.385V230.034Z" fill="#232335"/>
<path d="M491.501 436.171H457.885V469.735H491.501V436.171Z" fill="#232335"/>
<path d="M628.878 262.34C622.512 265.956 619.196 271.154 614.394 278.334C613.982 278.956 601.96 297.857 600.722 302.795C599.484 307.734 605.342 308.341 613.757 293.164C613.757 293.164 622.795 304.834 629.211 302.289C632.477 300.995 647.975 281.776 648.481 277.351" stroke="#232335" stroke-width="6" stroke-linecap="round" stroke-linejoin="round"/>
<path d="M636.453 293.504C636.453 293.504 635.729 287.242 632.759 290.084C629.79 292.926 624.069 300.38 624.069 300.38" stroke="#232335" stroke-width="6" stroke-linecap="round" stroke-linejoin="round"/>
<path d="M631.579 289.513C631.579 289.513 631.666 282.427 626.51 287.141C623.461 289.918 618.957 296.317 618.957 296.317" stroke="#232335" stroke-width="6" stroke-linecap="round" stroke-linejoin="round"/>
<path d="M626.329 285.608C626.329 285.608 624.823 280.547 621.839 283.388C618.855 286.23 614.387 292.434 614.387 292.434" stroke="#232335" stroke-width="6" stroke-linecap="round" stroke-linejoin="round"/>
<path d="M621.347 268.978C621.347 268.978 614.916 285.312 615.865 286.968C617.183 289.274 623.831 286.7 627.046 279.433C627.046 279.433 633.564 284.451 638.633 281.675" stroke="#232335" stroke-width="6" stroke-linecap="round" stroke-linejoin="round"/>
<path d="M708.552 115.378C694.452 124.417 683.083 134.424 679.918 142.855C674.342 157.764 653.659 211.437 653.659 211.437L623.845 257.713L656.433 282.622L688.261 234.64L702.462 199.933L769.673 199.745L842.641 199.933C850.607 199.803 855.199 192.073 853.366 185.175C853.366 185.175 828.107 136.231 814.601 120.209C802.956 102.385 787.669 87.1936 767.392 90.2594C764.924 90.6432 762.478 91.1548 760.063 91.7923" stroke="#232335" stroke-width="6" stroke-linecap="round" stroke-linejoin="round"/>
<path d="M751.778 180.128L795.953 168.285L775.662 144.641" stroke="#232335" stroke-width="6" stroke-linecap="round" stroke-linejoin="round"/>
<path d="M741.56 183.346C735.741 183.24 729.924 183.656 724.18 184.59C718.966 185.494 710.109 187.005 709.486 188.205C708.038 191.097 716.649 192.384 719.987 189.976" stroke="#232335" stroke-width="6" stroke-linecap="round" stroke-linejoin="round"/>
<path d="M720.508 194.358C715.707 195.493 713.267 195.276 713.991 192.912C714.527 191.227 725.911 185.298 728.257 184.619C730.603 183.939 751.8 180.859 751.8 180.859L762.351 200.873L730.69 201.372C723.13 201.921 724.412 198.118 727.301 197.091C730.191 196.065 735.398 193.642 736.31 193.816C736.31 193.816 728.554 195.985 725.36 198.031C722.971 198.979 719.618 197.46 719.154 196.737C718.691 196.014 720.603 194.011 724.223 192.182C726.946 190.856 729.75 189.702 732.617 188.726" stroke="#232335" stroke-width="6" stroke-linecap="round" stroke-linejoin="round"/>
<path d="M705.004 108.394L709.747 117.721L702.158 122.566C702.418 124.193 719.082 142.746 740.655 132.58C754.806 125.906 751.699 109.977 751.011 96.1957L740.8 101.583L730.661 76.9985" stroke="#232335" stroke-width="6" stroke-linecap="round" stroke-linejoin="round"/>
<path d="M729.126 74.6196C729.126 74.6196 743.871 73.3181 739.989 60.1584C737.049 50.1585 727.359 52.8338 722.848 54.7066" stroke="#232335" stroke-width="6" stroke-linecap="round" stroke-linejoin="round"/>
<path d="M674.016 79.7534C675.87 85.7475 687.479 112.327 706.677 108.097C725.875 103.867 732.327 82.5154 728.018 64.2654C723.709 46.0154 710.783 33.9837 698.551 36.3554C686.32 38.727 660.575 36.3698 674.016 79.7534Z" stroke="#232335" stroke-width="6" stroke-linecap="round" stroke-linejoin="round"/>
<path d="M702.454 88.7121C700.429 90.6613 697.824 91.8998 695.031 92.2407C694.848 92.2639 694.674 92.3301 694.521 92.4339C694.369 92.5377 694.244 92.6761 694.155 92.8377C694.067 92.9993 694.018 93.1796 694.013 93.3636C694.008 93.5477 694.047 93.7303 694.126 93.8965C695.06 95.9861 697.327 99.2037 702.092 97.4611C707.082 95.639 705.489 91.2645 704.265 89.0375C704.182 88.8807 704.065 88.7448 703.922 88.64C703.779 88.5353 703.614 88.4646 703.439 88.4332C703.265 88.4018 703.085 88.4106 702.914 88.459C702.744 88.5073 702.586 88.5939 702.454 88.7121Z" fill="#232335"/>
<path d="M695.322 83.6941L689.767 85.5957L685.603 62.0023" stroke="#232335" stroke-width="6" stroke-linecap="round" stroke-linejoin="round"/>
<path d="M699.898 60.8237C699.898 60.8237 694.539 57.8953 691.983 61.9806" stroke="#232335" stroke-width="6" stroke-linecap="round" stroke-linejoin="round"/>
<path d="M680.418 65.7984C680.418 65.7984 674.718 63.6292 672.763 68.0832" stroke="#232335" stroke-width="6" stroke-linecap="round" stroke-linejoin="round"/>
<path d="M699.064 76.6264C700.062 76.2245 700.354 74.6198 699.717 73.0422C699.079 71.4646 697.754 70.5114 696.756 70.9133C695.758 71.3152 695.466 72.9199 696.103 74.4975C696.741 76.0752 698.066 77.0283 699.064 76.6264Z" fill="#232335"/>
<path d="M681.49 84.0078C682.488 83.6059 682.78 82.0012 682.143 80.4235C681.505 78.8459 680.18 77.8928 679.182 78.2947C678.184 78.6965 677.892 80.3013 678.53 81.8789C679.167 83.4565 680.493 84.4096 681.49 84.0078Z" fill="#232335"/>
<path d="M762.117 117.813C765.592 111.183 762.221 102.575 754.588 98.5869C746.954 94.5991 737.95 96.7416 734.475 103.372C731 110.003 734.371 118.611 742.004 122.599C749.638 126.587 758.642 124.444 762.117 117.813Z" fill="#232335"/>
<path d="M760.924 140.292C764.026 134.373 761.017 126.688 754.202 123.128C747.387 119.568 739.348 121.481 736.246 127.4C733.144 133.32 736.154 141.004 742.968 144.565C749.783 148.125 757.822 146.212 760.924 140.292Z" fill="#232335"/>
<path d="M752.176 160.83C749.453 165.638 742.762 167.034 737.179 163.954C731.595 160.873 729.328 154.474 732.051 149.666C734.774 144.858 741.516 143.086 747.071 146.174C752.625 149.261 754.907 156.022 752.176 160.83Z" fill="#232335"/>
<path d="M748.961 178.48C744.855 182.348 745.014 185.978 746.137 188.603C746.249 188.871 746.278 189.168 746.22 189.453C746.161 189.738 746.017 189.999 745.808 190.201C745.598 190.404 745.332 190.538 745.044 190.587C744.757 190.636 744.461 190.597 744.196 190.475C737.316 187.034 726.215 179.723 731.016 170.078C733.275 165.523 739.054 163.455 744.464 165.703C749.874 167.952 752.662 174.98 748.961 178.48Z" fill="#232335"/>
<path d="M754.733 98.9216L740.046 98.2853" stroke="#FFCD1C" stroke-width="8" stroke-linecap="round" stroke-linejoin="round"/>
<path d="M754.994 123.752L742.632 122.421" stroke="#FFCD1C" stroke-width="8" stroke-linecap="round" stroke-linejoin="round"/>
<path d="M746.723 146.282L742.972 145.349" stroke="#FFCD1C" stroke-width="8" stroke-linecap="round" stroke-linejoin="round"/>
<path d="M743.45 164.995L739.648 164.257" stroke="#FFCD1C" stroke-width="8" stroke-linecap="round" stroke-linejoin="round"/>
<path d="M750.648 60.896C746.101 58.3725 747.904 62.2481 743.407 62.9929C742.871 73.4049 734.217 73.7086 730.371 73.3109C727.475 81.2646 731.566 90.9319 740.343 95.8053C749.997 101.156 759.223 97.4538 763.952 89.1025C768.681 80.7512 760.302 66.2466 750.648 60.896Z" fill="#232335"/>
<path d="M737.512 33.5571C731.342 26.7532 709.885 23.2825 699.558 30.3106C677.152 25.6107 648.141 25.2998 652.341 56.8758C652.439 57.6564 652.711 58.4053 653.135 59.0678C653.56 59.7304 654.128 60.2899 654.797 60.7056C655.465 61.1213 656.219 61.3827 657.002 61.4707C657.785 61.5586 658.578 61.471 659.322 61.2141L717.148 43.4775C720.153 46.5977 722.622 50.1913 724.455 54.1137C729.351 52.4217 737.382 51.2215 740.01 60.1657C743.631 72.5156 730.922 74.4389 729.3 74.6269C729.376 78.9834 728.797 83.3266 727.584 87.5118C740.756 86.7887 753.654 83.1734 754.378 71.6551C755.233 57.5699 746.13 43.1087 737.512 33.5571Z" fill="#232335"/>
<path d="M708.623 82.8676C714.859 80.101 716.877 71.0364 713.132 62.6213C709.386 54.2061 701.295 49.6271 695.06 52.3937C688.825 55.1603 686.806 64.2249 690.552 72.64C694.297 81.0552 702.388 85.6342 708.623 82.8676Z" stroke="#FFCD1C" stroke-width="4.5" stroke-linecap="round" stroke-linejoin="round"/>
<path d="M678.539 95.4356C684.774 92.669 686.792 83.6044 683.047 75.1892C679.302 66.7741 671.211 62.1951 664.975 64.9617C658.74 67.7283 656.722 76.7929 660.467 85.208C664.213 93.6232 672.304 98.2022 678.539 95.4356Z" stroke="#FFCD1C" stroke-width="4.5" stroke-linecap="round" stroke-linejoin="round"/>
<path d="M681.352 71.3805L688.464 68.3798" stroke="#FFCD1C" stroke-width="4.5" stroke-linecap="round" stroke-linejoin="round"/>
<path d="M710.341 57.5193L727.844 52.8556" stroke="#FFCD1C" stroke-width="4.5" stroke-linecap="round" stroke-linejoin="round"/>
<path d="M746.543 343.07L742.437 337.777C740.968 335.87 739.124 334.284 737.018 333.117C734.912 331.949 732.588 331.224 730.191 330.987C724.774 330.474 718.408 329.852 718.408 329.852C718.408 329.852 705.373 330.959 703.331 331.067C701.289 331.175 690.868 335.065 691.172 336.222C691.896 339.035 700.369 338.189 704.801 336.902C709.233 335.615 718.495 338.442 718.495 338.442C718.495 338.442 720.284 346.649 718.539 346.483C716.794 346.316 707.314 344.516 705.554 347.314C703.795 350.112 704.186 352.433 707.922 352.376C711.659 352.318 716.613 355.333 716.613 355.333C716.613 355.333 730.234 354.48 733.703 353.164C734.275 352.947 734.949 352.795 735.876 354.27" stroke="#232335" stroke-width="6" stroke-linecap="round" stroke-linejoin="round"/>
<path d="M865.996 377.965C861.441 375.473 856.409 373.97 851.231 373.555C846.053 373.14 840.846 373.822 835.95 375.557L798.771 388.731L751.17 338.218L718.778 372.144L779.24 441.558C781.147 443.747 783.681 445.301 786.499 446.009C789.318 446.718 792.287 446.547 795.005 445.52L816.825 437.277L794.259 508.137" stroke="#232335" stroke-width="6" stroke-linecap="round" stroke-linejoin="round"/>
<path d="M935.177 527.833C937.306 526.382 939.039 524.426 940.222 522.14C941.406 519.854 942.001 517.311 941.956 514.738L940.71 437.161C940.902 431.607 939.505 426.114 936.684 421.323C933.862 416.533 929.733 412.644 924.778 410.112L908.122 401.001" stroke="#232335" stroke-width="6" stroke-linecap="round" stroke-linejoin="round"/>
<path d="M822.408 505.259C816.346 505.072 810.28 505.498 804.304 506.532C798.727 507.544 789.248 509.229 788.292 510.675C786.033 514.08 794.542 515.736 798.59 512.909" stroke="#232335" stroke-width="5.64" stroke-linecap="round" stroke-linejoin="round"/>
<path d="M797.735 519.756C792.181 521.094 789.559 520.769 791.022 517.79C792.057 515.671 806.085 508.39 808.837 507.616C811.589 506.843 835.566 503.343 835.566 503.343L841.714 528.787H806.954C798.546 529.323 800.972 524.558 804.405 523.321C807.837 522.085 814.174 519.135 815.123 519.373C815.123 519.373 806.07 521.955 802.029 524.471C799.133 525.613 795.91 523.632 795.599 522.707C795.287 521.781 797.938 519.308 802.334 517.067C805.626 515.47 809.012 514.072 812.472 512.88" stroke="#232335" stroke-width="6" stroke-linecap="round" stroke-linejoin="round"/>
<path d="M833.394 503.531L897.397 489.337L895.167 458.354" stroke="#232335" stroke-width="6" stroke-linecap="round" stroke-linejoin="round"/>
<path d="M910.736 385.969C910.841 387.608 910.711 389.254 910.352 390.857L906.623 407.668C906.128 409.903 905.196 412.018 903.881 413.894C902.567 415.769 900.895 417.368 898.961 418.598C897.028 419.828 894.871 420.666 892.613 421.063C890.355 421.461 888.041 421.41 885.803 420.914C883.564 420.42 881.445 419.489 879.567 418.177C877.689 416.864 876.088 415.195 874.856 413.265C873.624 411.334 872.785 409.18 872.387 406.926C871.989 404.672 872.039 402.361 872.536 400.126L875.128 388.434" stroke="#232335" stroke-width="6" stroke-linecap="round" stroke-linejoin="round"/>
<path d="M924.264 360.727C924.264 360.727 938.219 333.59 910.852 319.079C908.303 317.727 890.691 308.84 882.233 323.07C876.584 332.571 872.478 343.561 869.922 352.289C869.922 352.339 864.794 368.702 868.242 379.866C871.689 391.03 886.23 394.906 895.253 392.939C904.277 390.972 906.428 389.114 910.287 384.53C914.147 379.946 924.264 360.777 924.264 360.777V360.727Z" stroke="#232335" stroke-width="6" stroke-linecap="round" stroke-linejoin="round"/>
<path d="M869.892 352.289C872.478 343.561 876.584 332.571 882.203 323.07C882.464 322.629 882.739 322.217 883.015 321.819C878.409 318.24 870.979 325.63 865.844 340.807C863.223 348.659 855.981 352.614 855.981 352.614C861.535 357.466 866.532 355.355 869.835 352.614L869.892 352.289Z" fill="#232335"/>
<path d="M882.833 347.256L876.938 362.043L881.798 363.822" stroke="#232335" stroke-width="6" stroke-linecap="round" stroke-linejoin="round"/>
<path d="M878.864 346.249C879.382 345.041 879.171 343.792 878.392 343.458C877.613 343.124 876.561 343.832 876.042 345.04C875.523 346.247 875.734 347.497 876.513 347.83C877.293 348.164 878.345 347.456 878.864 346.249Z" fill="#232335"/>
<path d="M892.407 352.062C892.691 350.779 892.249 349.591 891.421 349.409C890.594 349.226 889.692 350.118 889.409 351.401C889.125 352.684 889.566 353.872 890.394 354.055C891.222 354.237 892.123 353.345 892.407 352.062Z" fill="#232335"/>
<path d="M902.676 347.256C902.287 346.058 901.583 344.986 900.638 344.152C899.693 343.318 898.541 342.752 897.303 342.513" stroke="#232335" stroke-width="6" stroke-linecap="round" stroke-linejoin="round"/>
<path d="M884.434 336.396C884.434 336.396 880.154 332.484 876.938 334.783" stroke="#232335" stroke-width="6" stroke-linecap="round" stroke-linejoin="round"/>
<path d="M953.485 352.701L938.711 345.217C940.565 334.227 939.436 317.228 918.775 307.618C886.505 292.651 874.701 324.921 874.701 324.921L948.676 362.253C949.934 362.844 951.374 362.923 952.689 362.472C954.004 362.021 955.092 361.076 955.72 359.837C956.349 358.599 956.469 357.164 956.056 355.839C955.643 354.513 954.728 353.4 953.507 352.737L953.485 352.701Z" fill="#232335"/>
<path d="M879.357 374.653C876.062 367.957 891.444 372.484 891.444 372.484C891.444 372.484 887.12 387.928 879.357 374.653Z" fill="#232335"/>
<path d="M936.966 356.323L905.768 340.604C902.147 351.877 897.607 374.516 916.928 380.452C916.928 380.452 932.034 385.448 936.379 380.495C936.379 380.495 926.009 372.896 928.363 366.699C928.363 366.699 938.979 382.375 951.421 374.046C951.421 374.046 936.691 369.331 936.966 356.323Z" fill="#232335"/>
<path d="M449.405 414.226C449.405 414.226 464.011 410.285 472.31 402.368C477.257 397.646 483.608 391.269 483.499 389.194C483.282 385.304 475.106 391.283 473.773 392.086" stroke="#232335" stroke-width="6" stroke-linecap="round" stroke-linejoin="round"/>
<path d="M444.335 419.287L445.66 416.055C453.532 412.794 458.87 409.316 462.317 406.251C466.741 402.281 479.161 385.774 479.06 384.017C478.777 379.338 471.094 381.305 467.183 389.801" stroke="#232335" stroke-width="6" stroke-linecap="round" stroke-linejoin="round"/>
<path d="M457.334 401.334C457.334 401.334 464.258 395.347 466.749 390.372C469.24 385.398 470.833 381.573 469.993 380.9C469.153 380.228 464.692 381.428 462.882 384.371C460.897 389.374 452.786 396.128 452.786 396.128C453.764 395.737 458.754 390.22 461.028 386.8C463.302 383.38 463.41 378.037 456.357 384.002C456.357 384.002 448.905 390.633 446.03 392.606C446.03 392.606 432.995 397.494 429.758 403.026C429.033 404.306 426.492 408.507 422.958 414.226" stroke="#232335" stroke-width="6" stroke-linecap="round" stroke-linejoin="round"/>
<path d="M403.875 436.156L416.744 412.773L446.602 419.822L421.002 483.235" stroke="#232335" stroke-width="6" stroke-linecap="round" stroke-linejoin="round"/>
<path d="M272.56 409.114L249.067 408.254V408.022H240.913C232.078 408.022 220.049 417.422 218.731 427.603C216.313 446.301 204.364 472.063 199.36 493.567C195.595 504.938 192.453 516.505 189.945 528.216" stroke="#232335" stroke-width="6" stroke-linecap="round" stroke-linejoin="round"/>
<path d="M344.761 435.282C344.056 433.281 343.082 431.386 341.864 429.649C330.378 414.154 311.934 410.922 303.562 410.271" stroke="#232335" stroke-width="6" stroke-linecap="round" stroke-linejoin="round"/>
<path d="M271.227 406.359C266.752 406.909 262.262 401.63 261.154 394.458C260.534 391.009 260.958 387.455 262.37 384.248" stroke="#FFCD1C" stroke-width="6" stroke-linecap="round" stroke-linejoin="round"/>
<path d="M333.159 404.147C328.684 404.696 324.194 399.418 323.079 392.245" stroke="#FFCD1C" stroke-width="6" stroke-linecap="round" stroke-linejoin="round"/>
<path d="M266.245 332.412C275.782 325.384 282.097 288.544 256.237 263.83C230.05 238.819 208.253 264.379 203.408 271.111C198.563 277.843 194.913 296.36 217.558 313.858C240.203 331.356 255.346 340.438 266.245 332.412Z" fill="#232335"/>
<path d="M280.091 348.724L279.497 349.107C277.741 350.199 275.633 350.582 273.604 350.179C271.574 349.777 269.774 348.618 268.569 346.938L261.603 337.206C261.008 336.408 260.584 335.496 260.357 334.528C260.129 333.56 260.103 332.555 260.28 331.576C260.458 330.597 260.834 329.665 261.387 328.838C261.939 328.01 262.656 327.305 263.493 326.765L264.087 326.382C265.842 325.29 267.948 324.907 269.977 325.31C272.005 325.713 273.804 326.872 275.007 328.551L281.974 338.283C282.574 339.079 283.003 339.99 283.234 340.959C283.465 341.928 283.493 342.934 283.316 343.914C283.14 344.894 282.762 345.828 282.207 346.655C281.652 347.483 280.932 348.187 280.091 348.724Z" fill="#FFCD1C"/>
<path d="M272.567 382.773C271.278 383.611 269.792 384.102 268.256 384.195C266.721 384.289 265.187 383.983 263.804 383.308C259.409 381.218 257.468 376.135 259.459 371.963C260.179 370.511 261.305 369.299 262.701 368.474C264.097 367.648 265.703 367.245 267.324 367.314" stroke="#232335" stroke-width="6" stroke-linecap="round" stroke-linejoin="round"/>
<path d="M325.258 364.783C327.361 364.215 329.598 364.423 331.559 365.369C335.954 367.459 337.902 372.542 335.904 376.714C335.044 378.429 333.627 379.803 331.884 380.611C330.141 381.418 328.176 381.612 326.308 381.161" stroke="#232335" stroke-width="6" stroke-linecap="round" stroke-linejoin="round"/>
<path d="M303.533 408.868L303.7 413.134L314.186 415.433C314.497 416.345 314.83 425.26 310.905 432.787" stroke="#232335" stroke-width="6" stroke-linecap="round" stroke-linejoin="round"/>
<path d="M302.541 441.203C298.985 442.968 294.372 443.77 288.426 442.96C270.72 440.553 262.443 424.732 257.699 410.256L272.719 411.305L272.777 381.435" stroke="#232335" stroke-width="6" stroke-linecap="round" stroke-linejoin="round"/>
<path d="M304.507 407.691C319.632 404.917 328.997 386.929 325.425 367.515C321.853 348.101 306.696 334.612 291.571 337.386C276.446 340.161 267.08 358.148 270.652 377.562C274.225 396.976 289.382 410.466 304.507 407.691Z" stroke="#232335" stroke-width="6" stroke-linecap="round" stroke-linejoin="round"/>
<path d="M300.535 381.052L305.843 380.871C305.971 380.867 306.097 380.834 306.21 380.774C306.323 380.715 306.422 380.63 306.498 380.527C306.574 380.424 306.625 380.306 306.649 380.18C306.672 380.054 306.667 379.925 306.633 379.801L302.816 365.34" stroke="#232335" stroke-width="6" stroke-linecap="round" stroke-linejoin="round"/>
<path d="M285.841 358.305C285.841 358.305 290.534 354.104 294.459 357.582" stroke="#232335" stroke-width="6" stroke-linecap="round" stroke-linejoin="round"/>
<path d="M307.27 356.981C307.27 356.981 313.28 354.733 315.699 359.317" stroke="#232335" stroke-width="6" stroke-linecap="round" stroke-linejoin="round"/>
<path d="M295.897 370.158C295.954 368.41 295.051 366.962 293.88 366.924C292.708 366.886 291.713 368.272 291.656 370.02C291.599 371.768 292.502 373.216 293.674 373.254C294.845 373.292 295.841 371.906 295.897 370.158Z" fill="#232335"/>
<path d="M313.806 374.044C314.971 373.96 315.813 372.474 315.686 370.726C315.559 368.977 314.512 367.628 313.347 367.712C312.182 367.797 311.341 369.282 311.468 371.031C311.594 372.779 312.641 374.128 313.806 374.044Z" fill="#232335"/>
<path d="M330.045 377.155C334.571 376.432 338.359 382.462 339.46 389.722C340.56 396.981 337.823 403.46 333.297 404.125H333.137" stroke="#FFCD1C" stroke-width="6" stroke-linecap="round" stroke-linejoin="round"/>
<path d="M267.324 380.018C271.85 379.295 276.434 384.638 277.557 391.898C278.679 399.157 275.913 405.636 271.387 406.301H271.227" stroke="#FFCD1C" stroke-width="6" stroke-linecap="round" stroke-linejoin="round"/>
<path d="M301.592 391.471C301.592 391.471 289.484 398.969 288.868 382.686L301.592 391.471Z" stroke="#232335" stroke-width="6" stroke-linecap="round" stroke-linejoin="round"/>
<path d="M287.985 329.093L287.92 329.173C278.86 330.496 268.743 334.639 263.109 340.691C253.13 351.399 257.714 374.407 267.882 375.976C268.724 376.1 269.573 376.18 270.424 376.215C270.337 375.636 270.257 375.058 270.192 374.472C269.954 372.384 269.862 370.282 269.917 368.182C283.77 363.012 283.748 342.274 283.719 340.539C286.66 342.882 290.512 346.888 289.513 351.269L320.167 353.2C323.262 358.543 325.21 364.469 325.888 370.604V370.85C328.785 366.75 328.887 360.365 326.482 353.598L336.845 354.256C336.845 354.256 346.347 319.303 287.985 329.093Z" fill="#232335"/>
<path d="M294.082 486.026L254.071 485.881L257.699 457.783" stroke="#232335" stroke-width="6" stroke-linecap="round" stroke-linejoin="round"/>
<path d="M203.343 496.51C200.446 507.898 209.933 521.607 221.701 521.853L241.565 521.81" stroke="#232335" stroke-width="6" stroke-linecap="round" stroke-linejoin="round"/>
<path d="M254.68 485.975C254.68 485.975 244.896 481.637 237.835 492.121" stroke="#232335" stroke-width="6" stroke-linecap="round" stroke-linejoin="round"/>
<path d="M254.477 482.656C254.477 482.656 245.396 474.5 234.004 483.864" stroke="#232335" stroke-width="6" stroke-linecap="round" stroke-linejoin="round"/>
<path d="M240.79 510.986L288.644 511.485L304.409 437.451C304.537 436.688 304.927 435.993 305.513 435.486C306.098 434.979 306.843 434.692 307.617 434.674L424.21 436.446C426.332 436.446 427.904 438.709 427.418 441.001L412.594 519.966C411.566 524.854 405.353 528.643 401.008 528.571C372.366 528.108 257.019 526.466 253.644 526.401C238.139 526.177 240.79 510.986 240.79 510.986Z" stroke="#232335" stroke-width="6" stroke-linecap="round" stroke-linejoin="round"/>
<path d="M479.697 299.831C479.697 299.831 488.648 296.939 492.819 291.487C500.112 281.906 484.607 290.164 475.808 291.414" stroke="#232335" stroke-width="6" stroke-linecap="round" stroke-linejoin="round"/>
<path d="M418.815 224.56L406.07 255.392C406.07 255.392 434.834 278.088 455.937 283.172C474.121 288.428 475.584 290.944 475.584 290.944C475.584 290.944 482.927 305.89 483.723 311.385C484.52 316.881 487.424 334.755 484.563 335.152C482.529 335.434 479.154 326.627 477.582 322.029" stroke="#232335" stroke-width="6" stroke-linecap="round" stroke-linejoin="round"/>
<path d="M460.579 313.084C457.783 308.855 453.416 304.82 453.496 301.602C453.496 301.602 424.732 303.822 376.566 275.261C371.606 272.318 369.795 265.934 369.462 260.186C368.651 246.158 371.005 218.313 382.418 198.328" stroke="#232335" stroke-width="6" stroke-linecap="round" stroke-linejoin="round"/>
<path d="M479.407 311.364C479.407 311.364 478.85 324.53 474.563 325.868C470.275 327.206 469.718 323.547 469.718 323.547" stroke="#232335" stroke-width="6" stroke-linecap="round" stroke-linejoin="round"/>
<path d="M474.113 311.306C474.113 311.306 472.614 322.99 468.24 324.01C463.866 325.029 463.577 321.335 463.577 321.335" stroke="#232335" stroke-width="6" stroke-linecap="round" stroke-linejoin="round"/>
<path d="M467.589 311.082C467.589 311.082 465.568 325.102 460.253 320.25C454.937 315.398 455.263 312.687 455.263 312.687C455.263 312.687 457.342 308.717 461.585 314.487" stroke="#232335" stroke-width="6" stroke-linecap="round" stroke-linejoin="round"/>
<path d="M539.58 137.432C547.155 150.085 559.132 170.266 565.107 180.815" stroke="#232335" stroke-width="6" stroke-linecap="round" stroke-linejoin="round"/>
<path d="M494.615 108.343C527.84 104.67 541.535 131.864 541.535 131.864C541.535 131.864 531.729 155.06 521.41 162.392C521.41 162.392 543.649 179.232 533.605 199.991L434.262 200.866L420.452 226.245L379.985 197.576C379.985 197.576 401.073 155.993 406.997 151.3C410.139 148.798 420.865 138.762 437.412 128.885" stroke="#232335" stroke-width="6" stroke-linecap="round" stroke-linejoin="round"/>
<path d="M480.233 125.812C482.833 132.392 484.216 144.373 465.996 153.093C449.339 161.047 426.781 151.163 418.243 142.638L438.991 127.511L442.25 113.405" stroke="#232335" stroke-width="6" stroke-linecap="round" stroke-linejoin="round"/>
<path d="M437.405 94.6267C437.405 94.6267 421.473 93.506 425.094 79.4425C427.809 68.7557 438.353 71.4238 443.285 73.3399" stroke="#232335" stroke-width="6" stroke-linecap="round" stroke-linejoin="round"/>
<path d="M496.889 99.0591C495.158 105.465 483.854 133.961 463.012 129.804C442.17 125.646 434.291 103.05 438.115 83.5712C441.938 64.092 455.314 51.0335 468.53 53.3473C481.747 55.6611 509.417 52.6893 496.889 99.0591Z" stroke="#232335" stroke-width="6" stroke-linecap="round" stroke-linejoin="round"/>
<path d="M445.131 37.6956L452.68 36.5704L450.697 23.3047L443.147 24.4298L445.131 37.6956Z" fill="#FFCD1C"/>
<path d="M444.553 26.8399C451.976 26.8399 457.993 20.8316 457.993 13.42C457.993 6.00833 451.976 0 444.553 0C437.129 0 431.112 6.00833 431.112 13.42C431.112 20.8316 437.129 26.8399 444.553 26.8399Z" fill="#232335"/>
<path d="M452.881 32.3569C465.315 30.8602 478.227 31.5182 488.503 38.0113C519.223 59.515 514.523 84.8221 498.214 93.6868C502.139 75.8779 499.402 66.3552 494.007 61.0985C485.237 70.5561 461.708 75.7332 441.735 72.1975C441.656 72.3638 441.583 72.5373 441.511 72.7108C436.174 70.9972 427.476 69.8692 425.05 79.4281C421.705 92.6239 435.442 94.446 437.209 94.6123C437.209 95.7114 442.105 114.063 442.105 114.063L439.02 124.446L391.557 111.489C390.938 111.356 390.359 111.079 389.867 110.682C389.375 110.285 388.983 109.778 388.723 109.201C388.463 108.625 388.342 107.996 388.37 107.365C388.398 106.733 388.575 106.118 388.885 105.567C397.206 90.715 412.783 37.7293 452.881 32.3569Z" fill="#232335"/>
<path d="M470.377 114.012C470.377 114.012 465.047 114.887 464.243 108.517" stroke="#232335" stroke-width="6" stroke-linecap="round" stroke-linejoin="round"/>
<path d="M474.15 103.658L480.204 105.581L483.637 80.4042" stroke="#232335" stroke-width="6" stroke-linecap="round" stroke-linejoin="round"/>
<path d="M466.676 73.3616C466.676 73.3616 472.651 70.8309 475.055 75.444" stroke="#232335" stroke-width="6" stroke-linecap="round" stroke-linejoin="round"/>
<path d="M491.754 82.4287C491.754 82.4287 496.911 81.4237 498.04 85.48" stroke="#232335" stroke-width="6" stroke-linecap="round" stroke-linejoin="round"/>
<path d="M468.57 88.2876C469.273 86.6333 468.974 84.9243 467.903 84.4704C466.831 84.0166 465.393 84.9897 464.69 86.644C463.987 88.2982 464.286 90.0072 465.357 90.4611C466.428 90.9149 467.867 89.9418 468.57 88.2876Z" fill="#232335"/>
<path d="M490.872 96.6566C491.575 95.0023 491.276 93.2933 490.205 92.8394C489.133 92.3856 487.695 93.3587 486.992 95.013C486.289 96.6672 486.588 98.3762 487.659 98.8301C488.731 99.284 490.169 98.3108 490.872 96.6566Z" fill="#232335"/>
<path d="M476.029 85.9636C479.253 76.7836 476.212 67.3626 469.237 64.921C462.262 62.4795 453.994 67.9421 450.771 77.1221C447.548 86.302 450.589 95.7231 457.564 98.1647C464.539 100.606 472.806 95.1436 476.029 85.9636Z" stroke="#FFCD1C" stroke-width="6" stroke-linecap="round" stroke-linejoin="round"/>
<path d="M511.631 99.2241C514.854 90.0441 511.813 80.623 504.838 78.1815C497.863 75.74 489.596 81.2026 486.373 90.3825C483.149 99.5625 486.19 108.984 493.165 111.425C500.14 113.867 508.408 108.404 511.631 99.2241Z" stroke="#FFCD1C" stroke-width="6" stroke-linecap="round" stroke-linejoin="round"/>
<path d="M486.758 87.7865L476.742 84.2507" stroke="#FFCD1C" stroke-width="6" stroke-linecap="round" stroke-linejoin="round"/>
<path d="M451.497 73.7375L439.02 72.1974" stroke="#FFCD1C" stroke-width="6" stroke-linecap="round" stroke-linejoin="round"/>
<path d="M579.605 201.871C582.567 210.049 579.605 228.183 586.18 217.12C588.418 207.619 585.529 195.428 580.923 190.128C577.628 185.66 575.245 180.374 563.673 181.697C552.1 183.021 551.55 189.55 551.55 189.55C551.55 189.55 545.148 199.116 546.481 203.288C547.813 207.46 549.117 208.024 547.929 210.613C546.742 213.201 552.072 218.855 554.186 214.814C556.301 210.772 556.359 201.43 555.772 199.629C555.258 198.031 558.546 196.694 559.197 196.441L559.306 196.404H559.668C562.702 199.984 562.464 224.018 565.693 224.691C568.923 225.363 569.423 223.244 569.423 223.244" stroke="#232335" stroke-width="6" stroke-linecap="round" stroke-linejoin="round"/>
<path d="M576.129 223.787C575.306 224.575 574.268 225.103 573.145 225.305C567.844 226.238 569.763 205.971 567.287 201.509" stroke="#232335" stroke-width="6" stroke-linecap="round" stroke-linejoin="round"/>
<path d="M582.813 219.81C581.756 222.37 580.373 224.495 578.649 224.691C574.116 225.211 575.557 206.903 573.848 201.553" stroke="#232335" stroke-width="6" stroke-linecap="round" stroke-linejoin="round"/>
</g>
<defs>
<clipPath id="clip0_3192_1107">
<rect width="1204" height="531" fill="white"/>
</clipPath>
</defs>
</svg>
