<svg width="241" height="67" viewBox="0 0 241 67" fill="none" xmlns="http://www.w3.org/2000/svg">
<g clip-path="url(#clip0_2483_570)">
<path d="M58.2559 0.0559082V51.6837L64.829 51.709V27.1352H80.7101V20.6311H64.829V6.55999H85.502V0.0559082H58.2559ZM97.3688 10.5333C99.7522 10.5333 101.659 8.58461 101.659 6.20568C101.659 3.82676 99.7271 1.87806 97.3688 1.87806C94.9854 1.87806 93.0787 3.82676 93.0787 6.20568C93.0787 8.58461 95.0105 10.5333 97.3688 10.5333ZM94.032 17.0374V51.6837H100.605V17.0374H94.032Z" fill="black"/>
<path fill-rule="evenodd" clip-rule="evenodd" d="M125.015 16.025C116.26 16.025 110.163 23.4908 110.163 32.3485C110.163 41.2062 116.26 48.672 125.015 48.672C129.03 48.672 132.316 47.1029 134.725 44.5721V49.1528C134.725 54.8977 130.259 59.6808 124.413 59.6808C122.306 59.6808 120.224 58.871 118.568 57.7068L115.256 63.477C117.89 65.1979 121.026 66.1849 124.388 66.1849C133.721 66.1849 141.273 58.5673 141.273 49.1528V17.0373H134.725V20.1249C132.316 17.5941 129.03 16.025 125.015 16.025ZM116.761 32.3485C116.761 26.8567 120.926 22.5291 125.743 22.5291C130.56 22.5291 134.725 26.8567 134.725 32.3485C134.725 37.8403 130.56 42.1679 125.743 42.1679C120.926 42.1679 116.761 37.8403 116.761 32.3485Z" fill="black"/>
<path d="M165.032 22.5291C161.144 22.5291 157.982 25.8697 157.982 29.7924V51.6836H151.409V17.0373H157.982V20.2008C159.914 17.6953 162.749 16.025 166.462 16.025C171.079 16.025 174.616 18.328 176.673 21.8711C178.956 18.4546 182.669 16.025 187.16 16.025C194.662 16.025 199.328 22.1242 199.353 29.6659V51.6836H192.78V29.7671C192.78 25.8444 189.619 22.5038 185.73 22.5038C181.842 22.5038 178.68 25.8444 178.68 29.7671V51.6836H172.107V29.7671C172.082 25.8444 168.921 22.5291 165.032 22.5291Z" fill="black"/>
<path fill-rule="evenodd" clip-rule="evenodd" d="M234.427 20.96C231.492 17.8978 227.478 16.025 222.836 16.025C213.052 16.025 206.077 24.4019 206.077 34.3731C206.077 44.3444 213.027 52.7212 222.836 52.7212C227.478 52.7212 231.492 50.8231 234.427 47.7862V51.6836H241V17.0373H234.427V20.96ZM212.675 34.3731C212.675 27.7678 217.693 22.5291 223.564 22.5291C229.409 22.5291 234.452 27.7425 234.452 34.3731C234.452 40.9784 229.435 46.2171 223.564 46.2171C217.693 46.1918 212.675 40.9784 212.675 34.3731Z" fill="black"/>
<path d="M22.1025 33.5126C22.1025 27.3629 27.045 22.3519 33.1666 22.3519C39.2631 22.3519 44.2306 27.3375 44.2306 33.5126C44.2306 39.6624 39.2882 44.6733 33.1666 44.6733C27.0701 44.6733 22.1025 39.6624 22.1025 33.5126Z" fill="#1ABCFE"/>
<path d="M0 55.8088C0 49.659 4.94243 44.6481 11.064 44.6481H22.128V55.8088C22.128 61.9586 17.1856 66.9695 11.064 66.9695C4.94243 66.9695 0 61.9839 0 55.8088Z" fill="#0ACF83"/>
<path d="M22.1025 0.0558253V22.3519H33.1666C39.2631 22.3519 44.2306 17.3663 44.2306 11.1912C44.2306 5.04145 39.2882 0.0305176 33.1666 0.0305176H22.1025V0.0558253Z" fill="#FF7262"/>
<path d="M0 11.2166C0 17.3664 4.94243 22.3773 11.064 22.3773H22.128V0.0559082H11.064C4.94243 0.0559082 0 5.04153 0 11.2166Z" fill="#F24E1E"/>
<path d="M0 33.5126C0 39.6624 4.94243 44.6733 11.064 44.6733H22.128V22.3519H11.064C4.94243 22.3519 0 27.3629 0 33.5126Z" fill="#A259FF"/>
</g>
<defs>
<clipPath id="clip0_2483_570">
<rect width="241" height="67" fill="white"/>
</clipPath>
</defs>
</svg>
