<svg width="69" height="64" viewBox="0 0 69 64" fill="none" xmlns="http://www.w3.org/2000/svg">
<g id="Group 87">
<g id="Union">
<mask id="path-1-inside-1_3985_1378" fill="white">
<path fill-rule="evenodd" clip-rule="evenodd" d="M28.1588 5.29706C21.7171 -1.76564 11.273 -1.76565 4.83129 5.29705C-1.61043 12.3598 -1.61043 23.8106 4.83128 30.8733L10.9368 37.5675L10.9085 37.5985L34.236 63.1748L34.2643 63.1438L34.2926 63.1748L57.6202 37.5985L57.5918 37.5675L63.6974 30.8734C70.1391 23.8107 70.1391 12.3598 63.6974 5.29707C57.2557 -1.76563 46.8116 -1.76564 40.3699 5.29706L34.2643 11.9912L28.1588 5.29706Z"/>
</mask>
<path d="M4.83129 5.29705L2.11935 2.82356L4.83129 5.29705ZM28.1588 5.29706L25.4469 7.77055L28.1588 5.29706ZM4.83128 30.8733L7.54322 28.3999H7.54322L4.83128 30.8733ZM10.9368 37.5675L13.6487 40.041L15.9048 37.5675L13.6488 35.094L10.9368 37.5675ZM10.9085 37.5985L8.1966 35.125L5.94055 37.5985L8.19658 40.072L10.9085 37.5985ZM34.236 63.1748L31.5241 65.6483L34.2361 68.6217L36.948 65.6482L34.236 63.1748ZM34.2643 63.1438L36.9764 60.6704L34.2644 57.6967L31.5524 60.6703L34.2643 63.1438ZM34.2926 63.1748L31.5806 65.6482L34.2925 68.6218L37.0046 65.6483L34.2926 63.1748ZM57.6202 37.5985L60.3321 40.072L62.5882 37.5984L60.332 35.125L57.6202 37.5985ZM57.5918 37.5675L54.8799 35.094L52.6238 37.5675L54.88 40.041L57.5918 37.5675ZM63.6974 30.8734L66.4093 33.3469L63.6974 30.8734ZM63.6974 5.29707L66.4093 2.82358V2.82358L63.6974 5.29707ZM40.3699 5.29706L43.0818 7.77055V7.77055L40.3699 5.29706ZM34.2643 11.9912L31.5524 14.4647L34.2643 17.438L36.9763 14.4647L34.2643 11.9912ZM7.54322 7.77054C12.5292 2.30389 20.4609 2.30389 25.4469 7.77055L30.8707 2.82357C22.9733 -5.83518 10.0168 -5.83518 2.11935 2.82356L7.54322 7.77054ZM7.54322 28.3999C2.37962 22.7385 2.37963 13.4319 7.54322 7.77054L2.11935 2.82356C-5.60048 11.2876 -5.60049 24.8828 2.11935 33.3468L7.54322 28.3999ZM13.6488 35.094L7.54322 28.3999L2.11935 33.3468L8.2249 40.041L13.6488 35.094ZM13.6204 40.072L13.6487 40.041L8.22492 35.094L8.1966 35.125L13.6204 40.072ZM36.948 60.7013L13.6205 35.125L8.19658 40.072L31.5241 65.6483L36.948 60.7013ZM31.5524 60.6703L31.524 60.7014L36.948 65.6482L36.9763 65.6172L31.5524 60.6703ZM37.0047 60.7014L36.9764 60.6704L31.5523 65.6171L31.5806 65.6482L37.0047 60.7014ZM54.9082 35.125L31.5807 60.7013L37.0046 65.6483L60.3321 40.072L54.9082 35.125ZM54.88 40.041L54.9083 40.0721L60.332 35.125L60.3037 35.0939L54.88 40.041ZM60.9854 28.3999L54.8799 35.094L60.3038 40.041L66.4093 33.3469L60.9854 28.3999ZM60.9854 7.77056C66.149 13.4319 66.149 22.7385 60.9854 28.3999L66.4093 33.3469C74.1291 24.8828 74.1291 11.2876 66.4093 2.82358L60.9854 7.77056ZM43.0818 7.77055C48.0678 2.3039 55.9994 2.3039 60.9854 7.77056L66.4093 2.82358C58.5119 -5.83516 45.5554 -5.83518 37.6579 2.82357L43.0818 7.77055ZM36.9763 14.4647L43.0818 7.77055L37.6579 2.82357L31.5524 9.51769L36.9763 14.4647ZM25.4469 7.77055L31.5524 14.4647L36.9763 9.51769L30.8707 2.82357L25.4469 7.77055Z" fill="#0078E8" mask="url(#path-1-inside-1_3985_1378)"/>
</g>
<path id="Vector 23" d="M36.2806 13L14.1094 37" stroke="#0078E8" stroke-width="3.66866"/>
</g>
</svg>
