<svg width="80" height="67" viewBox="0 0 80 67" fill="none" xmlns="http://www.w3.org/2000/svg">
<g id="Group 111">
<g id="Group 31">
<g id="Group 30">
<path id="Vector 28" d="M41.5733 65.9999C45.1798 49.4591 41.8477 36.6775 39.5122 27.6552" stroke="#0078E8" stroke-width="2.73891"/>
<path id="Vector 29" d="M57.1676 14.4735C49.2057 12.5638 42.3606 21.1919 39.9332 25.7447C42.3357 27.8748 48.7013 32.553 54.9429 34.2249C61.1846 35.8969 72.6371 30.6026 77.5831 27.7465C74.0954 24.1179 65.1295 16.3832 57.1676 14.4735Z" fill="#0078E8" stroke="#0078E8" stroke-width="2.40815"/>
<path id="Vector 30" d="M29.1486 10.5858C37.6252 17.2771 38.2603 22.4312 39.3832 28.0449C35.1423 26.1078 23.6664 28.9464 16.8318 23.71C9.99721 18.4737 6.51427 8.42438 5.62712 4.05428C12.3646 6.83797 20.6719 3.89458 29.1486 10.5858Z" fill="#0078E8" stroke="#0078E8" stroke-width="2.40815"/>
</g>
</g>
</g>
</svg>
