<svg width="51" height="60" viewBox="0 0 51 78" fill="none" xmlns="http://www.w3.org/2000/svg">
<g id="Group 110">
<g id="Group 35">
<path id="Rectangle 33" d="M16.4512 64.1613H34.5479V70.7419C34.5479 73.4677 32.3383 75.6774 29.6125 75.6774H21.3867C18.6609 75.6774 16.4512 73.4677 16.4512 70.7419V64.1613Z" fill="#0078E8"/>
<path id="Rectangle 34" d="M21.3867 74.0322H29.6125C29.6125 75.8494 28.1394 77.3225 26.3222 77.3225H24.677C22.8598 77.3225 21.3867 75.8494 21.3867 74.0322Z" fill="#0078E8"/>
</g>
<g id="Group 37">
<g id="Union">
<mask id="path-3-inside-1_3985_1399" fill="white">
<path fill-rule="evenodd" clip-rule="evenodd" d="M45.6132 41.1769C48.9887 36.8524 51 31.4111 51 25.5C51 11.4167 39.5833 0 25.5 0C11.4167 0 0 11.4167 0 25.5C0 31.4113 2.01143 36.8528 5.3872 41.1775L16.4517 62.5161H34.5485L45.6132 41.1769Z"/>
</mask>
<path d="M45.6132 41.1769L43.0195 39.1524L42.8323 39.3923L42.6922 39.6624L45.6132 41.1769ZM5.3872 41.1775L8.3082 39.6629L8.16812 39.3928L7.98088 39.1529L5.3872 41.1775ZM16.4517 62.5161L13.5307 64.0307L14.4514 65.8065H16.4517V62.5161ZM34.5485 62.5161V65.8065H36.5487L37.4695 64.0307L34.5485 62.5161ZM47.7097 25.5C47.7097 30.6518 45.9596 35.3856 43.0195 39.1524L48.207 43.2015C52.0178 38.3191 54.2903 32.1703 54.2903 25.5H47.7097ZM25.5 3.29032C37.7661 3.29032 47.7097 13.2339 47.7097 25.5H54.2903C54.2903 9.59954 41.4005 -3.29032 25.5 -3.29032V3.29032ZM3.29032 25.5C3.29032 13.2339 13.2339 3.29032 25.5 3.29032V-3.29032C9.59954 -3.29032 -3.29032 9.59954 -3.29032 25.5H3.29032ZM7.98088 39.1529C5.04051 35.386 3.29032 30.652 3.29032 25.5H-3.29032C-3.29032 32.1706 -1.01766 38.3197 2.79351 43.2021L7.98088 39.1529ZM19.3727 61.0016L8.3082 39.6629L2.4662 42.6921L13.5307 64.0307L19.3727 61.0016ZM34.5485 59.2258H16.4517V65.8065H34.5485V59.2258ZM42.6922 39.6624L31.6275 61.0016L37.4695 64.0307L48.5342 42.6915L42.6922 39.6624Z" fill="#0078E8" mask="url(#path-3-inside-1_3985_1399)"/>
</g>
<g id="Group 36">
<path id="Vector 33" d="M22.661 55.8361C21.5642 46.5135 16.0803 31.1586 15.2578 27.8683C14.5385 24.991 14.1183 20.4651 18.548 20.4651C21.8388 20.4651 25.5168 29.5135 21.8381 29.5135C17.7255 29.5135 23.5008 19.7419 26.7911 19.7419C30.0814 19.7419 30.8867 23.7554 30.8867 23.7554C30.8867 23.7554 33.3547 29.5135 30.0641 29.5135C26.7736 29.5135 33.8478 18.8199 35.822 22.1103C37.7962 25.4006 30.3384 44.5942 28.419 55.8361" stroke="#0078E8" stroke-width="1.64516"/>
</g>
</g>
</g>
</svg>
