<svg version="1.1" id="Layer_1" xmlns="http://www.w3.org/2000/svg" xmlns:xlink="http://www.w3.org/1999/xlink" x="0px" y="0px"
	 width="100%" viewBox="0 0 270 231" enable-background="new 0 0 270 231" xml:space="preserve">
<path fill="#FFFFFF" opacity="1.000000" stroke="none" 
	d="
M160.000000,232.000000 
	C106.666672,232.000000 53.833340,232.000000 1.000007,232.000000 
	C1.000005,155.000015 1.000005,78.000015 1.000002,1.000017 
	C90.999992,1.000012 180.999985,1.000012 271.000000,1.000006 
	C271.000000,77.999985 271.000000,154.999969 271.000000,231.999969 
	C234.166672,232.000000 197.333328,232.000000 160.000000,232.000000 
M43.932114,49.977142 
	C49.203915,49.977142 54.475712,49.977142 59.545799,49.977142 
	C59.862602,50.795429 60.074669,51.087685 60.074959,51.380146 
	C60.113483,90.931633 60.117565,130.483170 60.196957,170.034561 
	C60.203194,173.141281 58.843517,174.091675 55.959358,174.035446 
	C51.644882,173.951294 47.325676,174.109772 42.488922,174.117935 
	C42.396923,174.413513 42.304924,174.709106 42.091427,175.934067 
	C42.091427,187.153091 42.091427,198.372116 42.091427,209.787308 
	C54.149555,209.787308 65.571106,209.787308 77.506660,209.877884 
	C77.616058,209.583206 77.725449,209.288528 77.977142,208.067963 
	C77.977142,202.801208 77.977142,197.534470 77.977142,192.216095 
	C117.632263,192.216095 156.723541,192.216095 196.164948,192.216095 
	C196.164948,198.057312 196.164948,203.524399 196.117813,209.511169 
	C196.413452,209.603210 196.709091,209.695267 197.934128,209.908768 
	C209.485733,209.908768 221.037338,209.908768 232.785767,209.908768 
	C232.785767,197.851242 232.785767,186.429245 232.876907,174.493912 
	C232.582535,174.384552 232.288177,174.275192 231.077682,174.023087 
	C227.802704,174.023087 224.527710,174.023087 221.070709,174.023087 
	C221.070709,132.462128 221.070709,91.469391 221.070709,49.995876 
	C224.068573,49.995876 226.894745,50.271404 229.620926,49.869255 
	C230.823029,49.691925 232.752762,48.156513 232.771393,47.206669 
	C232.991943,35.962189 232.913345,24.711838 232.913345,13.213869 
	C220.550430,13.213869 208.778992,13.213869 196.493866,13.122758 
	C196.384384,13.417293 196.274918,13.711827 196.022888,14.932295 
	C196.022888,20.203093 196.022888,25.473890 196.022888,30.778767 
	C156.428055,30.778767 117.335793,30.778767 77.834442,30.778767 
	C77.834442,24.935722 77.834442,19.472120 77.881363,13.489327 
	C77.586006,13.397611 77.290649,13.305893 76.065926,13.092514 
	C64.846733,13.092514 53.627533,13.092514 42.212864,13.092514 
	C42.212864,25.484629 42.212864,37.238628 42.122211,49.506580 
	C42.416870,49.615986 42.711533,49.725391 43.932114,49.977142 
z"/>
<path fill="#0078E8" opacity="1.000000" stroke="none" 
	d="
M43.008480,174.165039 
	C47.325676,174.109772 51.644882,173.951294 55.959358,174.035446 
	C58.843517,174.091675 60.203194,173.141281 60.196957,170.034561 
	C60.117565,130.483170 60.113483,90.931633 60.074959,51.380146 
	C60.074669,51.087685 59.862602,50.795429 59.545799,49.977142 
	C54.475712,49.977142 49.203915,49.977142 43.378891,49.729156 
	C42.673698,49.252728 42.469429,49.089878 42.212864,48.992626 
	C42.212864,37.238628 42.212864,25.484629 42.212864,13.092514 
	C53.627533,13.092514 64.846733,13.092514 76.627342,13.326394 
	C77.364105,13.767127 77.579330,13.916541 77.834442,14.008518 
	C77.834442,19.472120 77.834442,24.935722 77.834442,30.778767 
	C117.335793,30.778767 156.428055,30.778767 196.022888,30.778767 
	C196.022888,25.473890 196.022888,20.203093 196.270981,14.379245 
	C196.747620,13.674528 196.910446,13.470420 197.007553,13.213869 
	C208.778992,13.213869 220.550430,13.213869 232.913345,13.213869 
	C232.913345,24.711838 232.991943,35.962189 232.771393,47.206669 
	C232.752762,48.156513 230.823029,49.691925 229.620926,49.869255 
	C226.894745,50.271404 224.068573,49.995876 221.070709,49.995876 
	C221.070709,91.469391 221.070709,132.462128 221.070709,174.023087 
	C224.527710,174.023087 227.802704,174.023087 231.625717,174.271164 
	C232.325333,174.747665 232.529343,174.910339 232.785767,175.007263 
	C232.785767,186.429245 232.785767,197.851242 232.785767,209.908768 
	C221.037338,209.908768 209.485733,209.908768 197.372498,209.674835 
	C196.635483,209.233749 196.420181,209.083954 196.164948,208.991501 
	C196.164948,203.524399 196.164948,198.057312 196.164948,192.216095 
	C156.723541,192.216095 117.632263,192.216095 77.977142,192.216095 
	C77.977142,197.534470 77.977142,202.801208 77.729172,208.621185 
	C77.252769,209.326431 77.089928,209.530731 76.992661,209.787308 
	C65.571106,209.787308 54.149555,209.787308 42.091427,209.787308 
	C42.091427,198.372116 42.091427,187.153091 42.325352,175.372498 
	C42.766411,174.635559 42.916145,174.420258 43.008480,174.165039 
M72.280075,82.499939 
	C72.280075,112.759018 72.280075,143.018097 72.280075,173.393555 
	C74.519478,173.631485 76.112259,173.800720 77.777061,173.977615 
	C77.975029,175.959564 78.148438,177.695679 78.327194,179.485352 
	C117.633591,179.485352 156.558899,179.485352 195.720245,179.485352 
	C195.913315,177.538803 196.086166,175.796097 196.313324,173.506042 
	C200.453232,173.506042 204.361938,173.506042 208.379562,173.506042 
	C208.379562,132.036926 208.379562,91.149963 208.379562,50.624184 
	C203.847748,48.043541 195.027710,54.682949 195.737442,43.629978 
	C156.367584,43.629978 117.315781,43.629978 78.239944,43.629978 
	C78.046120,45.908669 77.881462,47.844456 77.718811,49.756607 
	C75.823830,49.960026 74.232056,50.130898 72.280212,50.340420 
	C72.280212,60.896198 72.280212,71.198067 72.280075,82.499939 
z"/>
<path fill="#2089EB" opacity="1.000000" stroke="none" 
	d="
M77.857903,13.748922 
	C77.579330,13.916541 77.364105,13.767127 77.092026,13.387225 
	C77.290649,13.305893 77.586006,13.397611 77.857903,13.748922 
z"/>
<path fill="#2089EB" opacity="1.000000" stroke="none" 
	d="
M196.750702,13.168314 
	C196.910446,13.470420 196.747620,13.674528 196.342255,13.916279 
	C196.274918,13.711827 196.384384,13.417293 196.750702,13.168314 
z"/>
<path fill="#2089EB" opacity="1.000000" stroke="none" 
	d="
M42.167538,49.249603 
	C42.469429,49.089878 42.673698,49.252728 42.915932,49.657986 
	C42.711533,49.725391 42.416870,49.615986 42.167538,49.249603 
z"/>
<path fill="#2089EB" opacity="1.000000" stroke="none" 
	d="
M42.748703,174.141479 
	C42.916145,174.420258 42.766411,174.635559 42.386101,174.907806 
	C42.304924,174.709106 42.396923,174.413513 42.748703,174.141479 
z"/>
<path fill="#2089EB" opacity="1.000000" stroke="none" 
	d="
M232.831329,174.750580 
	C232.529343,174.910339 232.325333,174.747665 232.083786,174.342529 
	C232.288177,174.275192 232.582535,174.384552 232.831329,174.750580 
z"/>
<path fill="#2089EB" opacity="1.000000" stroke="none" 
	d="
M77.249664,209.832596 
	C77.089928,209.530731 77.252769,209.326431 77.658020,209.084137 
	C77.725449,209.288528 77.616058,209.583206 77.249664,209.832596 
z"/>
<path fill="#2089EB" opacity="1.000000" stroke="none" 
	d="
M196.141388,209.251343 
	C196.420181,209.083954 196.635483,209.233749 196.907806,209.614105 
	C196.709091,209.695267 196.413452,209.603210 196.141388,209.251343 
z"/>
<path fill="#FFFFFF" opacity="1.000000" stroke="none" 
	d="
M72.280144,81.999939 
	C72.280212,71.198067 72.280212,60.896198 72.280212,50.340420 
	C74.232056,50.130898 75.823830,49.960026 77.718811,49.756607 
	C77.881462,47.844456 78.046120,45.908669 78.239944,43.629978 
	C117.315781,43.629978 156.367584,43.629978 195.737442,43.629978 
	C195.027710,54.682949 203.847748,48.043541 208.379562,50.624184 
	C208.379562,91.149963 208.379562,132.036926 208.379562,173.506042 
	C204.361938,173.506042 200.453232,173.506042 196.313324,173.506042 
	C196.086166,175.796097 195.913315,177.538803 195.720245,179.485352 
	C156.558899,179.485352 117.633591,179.485352 78.327194,179.485352 
	C78.148438,177.695679 77.975029,175.959564 77.777061,173.977615 
	C76.112259,173.800720 74.519478,173.631485 72.280075,173.393555 
	C72.280075,143.018097 72.280075,112.759018 72.280144,81.999939 
M132.716537,109.500168 
	C132.716537,123.905731 132.716537,138.311295 132.716537,153.000000 
	C135.141876,153.000000 136.784637,152.999405 138.427414,153.000107 
	C144.925064,153.002884 144.928238,153.003036 144.928940,146.425171 
	C144.930771,129.111832 144.929565,111.798500 144.929565,94.485168 
	C144.929565,92.733643 144.929565,90.982109 144.929565,88.770744 
	C151.694351,88.770744 157.768677,88.770744 163.635376,88.770744 
	C163.635376,85.056236 163.635376,81.817780 163.635376,78.518875 
	C146.352264,78.518875 129.434723,78.518875 112.262497,78.518875 
	C112.165741,80.021019 112.182373,81.322838 111.982460,82.590508 
	C111.206398,87.511810 112.936897,89.592735 118.190964,89.093956 
	C122.894135,88.647469 127.673172,89.000000 132.716385,89.000000 
	C132.716385,95.555038 132.716385,102.027672 132.716537,109.500168 
z"/>
<path fill="#0078E8" opacity="1.000000" stroke="none" 
	d="
M132.716461,109.000237 
	C132.716385,102.027672 132.716385,95.555038 132.716385,89.000000 
	C127.673172,89.000000 122.894135,88.647469 118.190964,89.093956 
	C112.936897,89.592735 111.206398,87.511810 111.982460,82.590508 
	C112.182373,81.322838 112.165741,80.021019 112.262497,78.518875 
	C129.434723,78.518875 146.352264,78.518875 163.635376,78.518875 
	C163.635376,81.817780 163.635376,85.056236 163.635376,88.770744 
	C157.768677,88.770744 151.694351,88.770744 144.929565,88.770744 
	C144.929565,90.982109 144.929565,92.733643 144.929565,94.485168 
	C144.929565,111.798500 144.930771,129.111832 144.928940,146.425171 
	C144.928238,153.003036 144.925064,153.002884 138.427414,153.000107 
	C136.784637,152.999405 135.141876,153.000000 132.716537,153.000000 
	C132.716537,138.311295 132.716537,123.905731 132.716461,109.000237 
z"/>
</svg>